<svg width="809" height="539" viewBox="0 0 809 539" fill="none" xmlns="http://www.w3.org/2000/svg">
<g clip-path="url(#clip0_405_5199)">
<path d="M509.874 282.986C509.898 282.89 509.887 282.735 509.947 282.7L521.386 266.791L519.357 266.78C517.365 266.828 515.374 266.47 513.517 265.791L506.74 270.047C506.68 270.082 506.62 270.118 506.525 270.093L504.712 270.035C504.556 270.046 504.426 269.962 504.319 269.782C504.249 269.662 504.297 269.472 504.382 269.341L510.067 264.196L507.89 262.979C507.438 262.761 507.095 262.318 507.062 261.852C507.004 261.482 507.007 261.077 507.14 260.755L501.986 256.693C501.855 256.608 501.808 256.393 501.893 256.263C501.882 256.107 502.061 256.001 502.216 255.99L507.288 255.817C507.348 255.781 507.383 255.841 507.478 255.866L513.203 258.297L513.379 254.635C513.393 254.385 513.572 254.279 513.787 254.232L515.35 254.277C515.505 254.266 515.636 254.35 515.707 254.47L517.698 258.788C520.096 258.743 522.995 258.724 526.05 258.694L529.78 247.107C529.864 246.976 529.948 246.846 530.104 246.835C531.369 246.651 532.522 247.505 532.765 248.735L533.668 253.537L536.924 253.711C537.269 253.748 537.662 254.001 537.97 254.385C538.182 254.744 538.311 255.234 538.379 255.759C538.352 256.26 538.266 256.797 538.013 257.189C537.904 257.415 537.7 257.616 537.521 257.723C537.341 257.829 537.126 257.876 536.971 257.887L534.431 257.693L534.592 258.648C537.897 258.632 540.796 258.613 542.634 258.576C544.662 258.588 546.699 259.16 548.303 260.231C548.862 260.628 549.42 261.025 549.859 261.493C550.464 262.105 550.709 262.93 550.454 263.728C550.343 264.359 549.971 264.822 549.432 265.141C549.252 265.248 549.073 265.354 548.858 265.4C547.388 265.786 545.847 266.051 544.427 266.246C542.91 266.416 541.394 266.586 539.927 266.565L531.67 266.684L526.826 270.927L528.293 270.948C528.699 270.95 529.091 271.203 529.339 271.622C529.552 271.981 529.68 272.471 529.749 272.996C529.779 273.867 529.393 274.581 528.855 274.9C528.675 275.006 528.46 275.053 528.305 275.064L522.569 274.661L513.119 283.005C512.999 283.076 512.855 283.242 512.735 283.313C511.957 283.773 510.931 283.815 510.086 283.345C509.92 283.201 509.849 283.081 509.874 282.986ZM505.658 269.313L506.41 269.353L514.588 264.187C513.742 264.122 512.43 264.091 511.248 264.144L505.658 269.313ZM507.188 256.604L503.298 256.724L508.618 260.931L516.542 260.524L507.188 256.604ZM514.093 255.021L513.881 258.623L514.524 258.889C515.18 258.905 515.956 258.85 516.767 258.855L514.999 255.05L514.093 255.021ZM536.82 257.086C537.036 257.04 537.155 256.969 537.299 256.803C537.468 256.541 537.506 256.196 537.544 255.85C537.546 255.444 537.429 255.109 537.287 254.87C537.18 254.69 537.014 254.546 536.859 254.557C536.799 254.593 536.764 254.533 536.704 254.568C536.644 254.604 536.524 254.675 536.44 254.805C536.272 255.067 536.234 255.413 536.196 255.758C536.251 256.534 536.535 257.013 536.82 257.086ZM535.723 257.008C535.546 256.709 535.453 256.279 535.456 255.873C535.482 255.372 535.604 254.896 535.797 254.539L533.794 254.432L534.221 256.928L535.723 257.008ZM531.965 248.886C531.85 248.145 531.185 247.569 530.409 247.624L526.861 258.699C529.199 258.688 531.538 258.678 533.781 258.643L531.965 248.886ZM549.678 263.783C549.703 263.687 549.763 263.652 549.727 263.592C549.874 263.02 549.745 262.53 549.342 262.122C549.152 262.074 549.032 262.144 548.912 262.215C548.493 262.463 548.371 262.94 548.619 263.359C548.832 263.718 549.284 263.935 549.678 263.783ZM539.872 265.79C541.339 265.81 542.855 265.64 544.312 265.505C545.732 265.311 547.273 265.045 548.683 264.696C548.743 264.66 548.898 264.649 548.958 264.614C548.577 264.516 548.244 264.228 547.996 263.809C547.535 263.03 547.744 262.018 548.522 261.557C548.582 261.521 548.582 261.521 548.642 261.486C548.345 261.258 548.083 261.089 547.822 260.92C547.787 260.861 547.727 260.896 547.691 260.836C547.58 261.468 547.004 262.133 545.986 262.735C545.747 262.877 545.447 263.054 545.113 263.171C544.933 263.278 544.707 263.169 544.601 262.99C544.494 262.81 544.603 262.584 544.783 262.478C546.565 261.665 546.891 260.987 546.964 260.701C546.953 260.546 546.942 260.39 546.847 260.366C545.55 259.678 544.097 259.407 542.534 259.363C537.296 259.392 523.647 259.551 516.357 259.664L518.38 260.487C518.571 260.535 518.617 260.75 518.628 260.906C518.604 261.001 518.519 261.132 518.46 261.167C518.4 261.203 518.34 261.238 518.244 261.214L508.483 261.658C508.387 261.633 508.292 261.609 508.197 261.585L507.734 261.212C507.709 261.307 507.72 261.462 507.731 261.618C507.813 261.893 507.955 262.132 508.181 262.241L510.583 263.567L510.668 263.436C510.727 263.401 510.847 263.33 510.907 263.294C511.528 263.25 514.762 263.114 515.641 263.644C515.772 263.728 515.843 263.848 515.819 263.943C515.83 264.099 515.745 264.229 515.626 264.3L514.224 265.211C515.82 265.721 517.489 265.946 519.172 265.92L521.82 265.887L521.989 265.626C522.013 265.53 522.133 265.46 522.228 265.484C522.503 265.402 528.548 264.006 532.3 265.018C532.396 265.042 532.562 265.186 532.573 265.341C532.584 265.497 532.56 265.592 532.475 265.723L532.415 265.758L539.872 265.79ZM528.19 274.323C528.595 274.326 528.897 273.743 528.877 273.027C528.88 272.621 528.762 272.287 528.621 272.047C528.514 271.868 528.348 271.724 528.193 271.735C528.133 271.77 528.098 271.71 528.038 271.746C527.798 271.887 527.521 272.375 527.565 272.996C527.585 273.711 527.904 274.25 528.19 274.323ZM527.057 274.186C526.88 273.886 526.787 273.456 526.789 273.051C526.816 272.55 526.938 272.073 527.131 271.716L525.914 271.709L523.3 273.985L527.057 274.186ZM512.574 282.357L531.449 265.764C528.195 265.185 523.525 266.172 522.665 266.357L510.829 282.824C511.461 282.935 512.106 282.796 512.574 282.357Z" fill="#475566" fill-opacity="0.6"/>
<mask id="path-2-inside-1_405_5199" fill="white">
<path d="M-62.3913 165.232C-63.9796 164.39 -65.5603 163.664 -67.3461 163.424C-69.7196 163.222 -72.4083 163.63 -74.7168 162.597C-76.2976 161.872 -79.6243 157.835 -75.8401 157.948C-73.239 158.017 -68.1918 157.577 -66.5563 155.466C-62.4124 150.126 -55.6437 161.85 -50.6716 160.234C-48.013 159.356 -47.6506 155.792 -44.7243 157.258C-42.8934 158.203 -40.9075 159.729 -39.5093 161.292C-37.4782 163.522 -38.6886 164.898 -41.3623 165.541C-43.8083 166.051 -46.2919 165.974 -48.878 166.139C-51.229 166.29 -53.5649 166.675 -55.9009 167.06C-58.2369 167.445 -60.3179 166.28 -62.3913 165.232ZM-36.3463 147.988C-36.3463 147.988 -34.7077 153.313 -32.7818 153.898C-30.9735 154.491 -29.973 155.371 -28.9553 152.827C-27.93 150.401 -30.7012 149.516 -32.8198 147.763C-34.9383 146.01 -38.4051 141.628 -36.3463 147.988ZM-42.8994 180.275C-46.4136 178.847 -44.9106 176.509 -46.3339 172.704C-47.7573 168.9 -49.978 172.937 -53.1541 176.799C-56.3302 180.661 -60.1673 174.179 -62.0432 172.528C-63.9191 170.877 -62.296 170.42 -71.3999 170.175C-80.3938 169.805 -79.7035 169.525 -83.4073 174.365C-87.1111 179.205 -79.7805 177.556 -74.5708 177.814C-69.361 178.071 -69.0482 181.12 -69.3156 184.324C-69.583 187.527 -79.2022 186.608 -88.2036 186.121C-97.205 185.633 -96.2545 187.579 -100.711 189.87C-105.168 192.162 -115.145 187.488 -119.224 186.45C-123.304 185.413 -150.47 188.801 -154.467 189.056C-158.464 189.312 -160.502 192.511 -163.468 194.116C-166.434 195.722 -164.788 201.165 -164.74 203.758C-164.693 206.352 -170.72 204.376 -173.777 204.572C-176.833 204.767 -175.898 206.478 -175.99 208.726C-176.082 210.975 -174.774 211.127 -171.145 210.659C-167.516 210.191 -165.95 210.681 -165.675 213.142C-165.4 215.603 -170.302 214.618 -173.241 214.806C-176.18 214.994 -174.674 220.091 -173.808 224.403C-172.942 228.715 -170.166 227.829 -168.445 228.899C-166.725 229.97 -164.268 231.465 -177.764 238.229C-191.259 244.993 -178.024 241.55 -175.733 240.46C-173.442 239.369 -163.3 235.534 -160.244 235.339C-157.188 235.144 -152.711 231.317 -149.042 227.778C-145.373 224.238 -133.168 224.993 -124.462 224.554C-115.755 224.116 -107.015 242.679 -102.596 245.347C-98.1763 248.015 -96.1813 271.848 -95.8482 278.909C-95.5151 285.969 -90.0349 290.458 -87.5412 292.541C-85.0475 294.625 -78.4689 307.07 -71.5729 315.245C-64.6693 323.538 -68.3066 312.794 -70.5029 307.977C-72.7067 303.042 -68.7697 307.394 -68.7697 307.394C-68.7697 307.394 -56.6586 319.603 -54.0421 325.456C-51.4256 331.308 -41.4635 335.747 -34.9682 335.804C-28.4729 335.861 -28.4778 337.632 -28.4778 337.632C-28.4778 337.632 -28.6727 340.123 -20.8543 340.568C-13.1535 341.02 -14.0635 347.097 -10.7394 349.246C-7.41531 351.394 -2.32048 353.547 2.02887 353.269C6.37823 352.991 4.82004 352.619 5.85321 355.857C6.88636 359.096 4.11547 363.758 2.03224 366.252C-0.0509933 368.746 0.0594283 374.168 0.465023 380.516C0.870619 386.864 3.42178 387.999 3.42178 387.999C3.42178 387.999 18.2196 409.007 21.5211 410.803C24.8226 412.598 24.6228 416.86 24.6228 416.86C24.6228 416.86 26.6809 449.069 26.721 451.545C26.7612 454.021 26.5261 454.036 24.598 457.11C22.6699 460.184 23.4356 466.627 23.4356 466.627C23.4356 466.627 24.9082 495.214 25.0434 497.33C25.1786 499.446 28.6427 501.939 39.7078 507.015C50.7729 512.092 42.4663 504.006 41.1631 502.083C39.8599 500.16 40.3523 494.935 40.1044 491.056C39.8566 487.177 43.0203 484.968 44.1631 482.534C45.306 480.101 44.0178 478.413 43.7549 474.298C43.492 470.184 47.9413 467.775 47.9413 467.775C47.9413 467.775 71.4596 440.542 73.3077 438.063C75.1558 435.585 75.2156 430.978 74.8152 428.407C74.4149 425.836 81.6925 417.817 85.8391 414.365C89.9856 410.913 92.8237 401.761 92.9311 399.748C93.0385 397.735 92.8632 393.143 95.6592 390.722C98.4553 388.3 98.0298 383.488 98.8823 378.358C99.7348 373.229 90.2932 373.242 84.418 369.958C78.5427 366.675 69.5413 366.188 68.836 366.233C68.1307 366.278 64.1641 367.003 64.2114 364.05C64.2587 361.096 61.4672 356.199 59.8988 353.82C58.3305 351.442 56.1046 351.702 53.4009 351.875C50.6973 352.048 41.9805 344.933 38.3038 342.807C34.6271 340.682 27.5767 343.02 22.7921 342.028C18.0075 341.035 20.3585 340.885 16.0515 339.98C11.7446 339.075 10.1218 345.08 8.16104 345.795C6.20023 346.511 -0.280052 346.689 -2.65358 346.486C-5.02712 346.284 -7.05326 342.282 -7.88136 338.558C-8.70947 334.834 -10.1077 333.271 -13.3942 331.711C-16.6807 330.15 -17.4063 326.184 -17.2339 323.34C-17.0615 320.496 -19.0749 320.389 -21.4334 320.421C-23.7919 320.454 -23.6143 321.387 -24.0743 323.423C-24.5344 325.459 -26.3551 326.519 -31.4624 326.02C-36.5771 325.402 -39.0761 319.542 -39.9718 314.76C-40.8675 309.978 -40.9227 307.267 -37.8115 304.236C-34.7004 301.204 -33.6624 302.672 -29.1504 303.092C-24.6384 303.512 -21.7398 300.848 -18.9964 297.604C-16.2529 294.36 -12.3959 299.307 -12.3959 299.307C-12.3959 299.307 -12.3959 299.307 -7.09565 306.522C-1.7954 313.737 -2.87136 306.134 -4.51253 298.921C-6.15372 291.708 14.8187 267.116 18.0173 263.607C21.216 260.098 20.9535 261.531 26.8009 260.685C32.6484 259.839 34.4988 253.702 37.75 251.015C41.0012 248.329 33.1329 248.95 29.4862 247.294C25.8395 245.639 31.687 244.793 33.7353 243.6C35.7836 242.407 40.2129 241.533 46.113 241.511C52.013 241.488 36.1149 221.73 33.4961 219.537C30.8773 217.344 31.3573 213.772 29.964 210.438C28.5706 207.104 24.9344 213.002 22.2285 216.834C19.5226 220.666 19.4073 217.014 19.7348 214.751C20.0623 212.487 17.5611 210.286 16.3079 207.298C15.0546 204.309 7.59151 205.73 4.88034 205.785C2.16918 205.841 2.65439 206.046 2.12447 210.683C1.59455 215.32 3.07538 218.176 4.16864 222.355C5.26188 226.534 0.927899 232.595 -1.58798 235.706C-4.10386 238.818 -5.03448 235.336 -5.33981 232.405C-5.64513 229.474 -7.02568 230.034 -10.3471 229.774C-13.6686 229.514 -13.9112 229.412 -15.3995 226.438C-16.8879 223.464 -21.4025 221.156 -25.5318 221.184C-29.661 221.212 -28.8262 213.959 -28.9114 210.777C-29.0042 207.478 -22.8991 206.97 -20.9383 206.255C-18.9775 205.539 -15.8213 203.213 -12.2895 206.764C-8.76526 210.198 -5.82424 206.351 -5.82424 206.351C-5.82424 206.351 -1.01744 202.149 -1.16766 199.798C-1.31788 197.447 -2.33078 198.22 -5.50464 198.423C-8.67849 198.626 -9.14868 198.656 -9.32143 195.952C-9.49419 193.248 -9.50921 193.013 -3.87431 192.535C1.76059 192.057 -1.15601 187.05 1.38991 184.409C3.93584 181.768 6.64212 183.483 6.4949 188.568C6.34767 193.653 11.9773 189.398 15.3513 190.481C18.7254 191.563 17.3024 193.307 14.5187 194.075C11.7351 194.843 13.676 195.663 14.6941 198.667C15.7122 201.67 15.307 200.87 24.2859 201.004C33.2648 201.139 25.3311 197.043 24.6832 196.14C24.0354 195.237 21.1815 193.059 29.3225 193.011C37.4635 192.963 31.9882 186.703 31.9882 186.703C31.9882 186.703 25.7224 177.307 19.0994 175.251C12.4765 173.196 14.2472 173.201 10.5679 169.187C6.88852 165.173 -6.03188 168.005 -9.92604 168.018C-13.8202 168.03 -13.4199 170.601 -15.2605 173.198C-16.9836 175.786 -12.1238 177.954 -11.1504 185.8C-10.177 193.646 -15.7923 187.041 -15.7923 187.041C-15.7923 187.041 -18.8313 183.812 -20.3197 180.839C-21.808 177.865 -22.3834 176.249 -20.6453 173.896C-18.9072 171.542 -18.2421 169.021 -22.4367 164.332C-26.6313 159.643 -29.9253 157.965 -31.5861 157.835C-33.2468 157.705 -32.5663 160.966 -32.1509 163.772C-31.7356 166.578 -30.1199 166.003 -28.0164 167.521C-26.0304 169.047 -26.658 172.155 -26.9254 175.359C-27.1928 178.563 -27.4531 176.337 -30.6998 171.706C-33.9465 167.074 -35.662 169.78 -38.0378 173.237C-40.4136 176.693 -33.2329 178.241 -32.6223 184.103C-32.0116 189.966 -35.611 185.357 -35.611 185.357C-35.611 185.357 -39.3853 181.703 -42.8994 180.275ZM-142.622 300.546C-142.622 300.546 -139.217 313.194 -135.963 312.396C-129.456 310.799 -134.663 306.883 -140.859 300.433C-141.374 299.758 -143.515 297.652 -142.622 300.546ZM0.388488 320.207C1.10881 320.397 1.82163 320.47 2.4319 320.785C3.40986 321.313 4.18277 322.326 5.26325 322.611C6.71141 323.108 9.44249 321.517 10.8305 321.075C16.7355 319.281 0.418158 315.13 -2.44811 314.605C-5.31438 314.08 -6.17478 313.545 -12.3422 316.772C-18.5097 319.999 -6.73964 319.483 -6.73964 319.483C-4.24855 319.678 -1.88252 319.762 0.388488 320.207ZM14.8374 322.825C14.8824 323.53 14.9275 324.236 15.0526 324.346C15.7229 325.601 17.3386 325.026 18.5141 324.951C19.5721 324.883 26.1323 324.11 23.0009 323.13C21.0751 322.545 18.9941 321.379 16.8331 320.809C13.7092 319.946 14.7472 321.415 14.8374 322.825ZM-22.8524 155.978C-21.7843 157.916 -20.3963 157.474 -19.1832 157.986C-17.9702 158.499 -17.5274 159.887 -16.9569 163.273C-16.3864 166.66 -5.65444 164.676 1.74371 164.085C9.14186 163.494 4.07446 159.923 -5.31454 160.759C-9.42128 161.14 -9.93656 160.464 -11.2548 158.306C-12.573 156.148 -14.4613 156.15 -17.2325 155.265C-20.0038 154.38 -19.8588 152.954 -22.6177 150.416C-26.377 146.997 -24.0381 154.047 -24.0381 154.047C-24.0381 154.047 -23.9205 154.04 -22.8524 155.978ZM6.67784 156.334C11.9676 155.996 14.7482 147.792 14.9007 146.484C15.0532 145.176 18.0843 142.74 22.3161 142.469C26.548 142.199 28.7814 142.056 30.5195 139.703C32.2576 137.349 30.3268 138.535 36.3418 136.616C42.3568 134.697 42.119 132.824 41.8513 130.48C41.5835 128.137 31.7168 128.885 29.0206 129.176C26.3245 129.466 26.6648 131.097 23.8462 133.165C21.0276 135.234 3.16488 134.605 -2.48504 134.848C-3.0728 134.885 -3.66055 134.923 -4.11573 135.188C-3.34283 136.201 -0.859236 136.278 0.228755 136.681C1.79446 137.171 2.69242 138.294 4.03804 139.034C5.37615 139.657 6.91183 139.677 8.32995 139.704C23.2389 140.286 11.9192 142.308 10.7512 142.5C9.58318 142.693 7.65731 142.108 7.49995 145.187C7.34259 148.265 3.36579 146.985 1.37493 147.23C-0.615905 147.476 0.0668645 147.078 -0.173488 143.316C-0.413841 139.555 -9.06748 140.816 -12.8216 141.174C-16.5757 141.532 -14.8447 144.608 -14.847 148.267C-14.8492 151.926 -13.9163 151.748 -10.0146 151.853C-6.23051 151.965 -7.46347 152.988 -6.85056 155.192C-6.23765 157.395 -0.382689 156.667 -0.382689 156.667C-0.382689 156.667 1.38807 156.672 6.67784 156.334ZM48.1967 133.734C48.1967 133.734 44.7277 133.011 43.1222 135.593C41.5166 138.174 43.4125 138.289 39.3057 138.669C35.199 139.05 35.4491 139.27 34.6664 141.798C33.8838 144.327 32.0356 146.806 29.0969 146.993C26.1581 147.181 21.3885 146.424 22.0014 148.627C22.6218 150.948 27.0016 156.688 29.0075 156.678C31.0133 156.667 47.7028 153.713 49.8942 160.3C52.0931 167.005 49.993 178.471 53.287 180.149C56.581 181.827 55.3131 184.15 54.2927 184.806C53.2723 185.461 51.544 184.273 51.7618 187.682C51.9797 191.091 52.94 189.495 55.001 192.196C57.0621 194.897 57.9349 193.779 58.2053 198.011C58.4757 202.243 58.1106 203.919 61.3145 204.186C64.5184 204.453 67.3874 206.867 67.9552 208.365C68.523 209.863 71.6068 208.249 72.3094 206.316C73.0121 204.383 81.92 190.476 84.8437 190.053C87.7675 189.63 92.8447 189.66 92.797 187.066C92.7493 184.473 90.8633 180.816 94.4998 180.466C98.1363 180.116 105.079 179.79 107.918 176.186C110.756 172.582 116.871 168.532 110.934 167.967C108.2 167.67 105.581 165.476 106.811 162.565C106.906 162.205 111.043 162.295 111.623 162.139C113.019 161.814 114.87 161.224 115.602 159.761C116.738 157.209 117.873 154.658 119.126 152.1C120.291 150.019 124.245 145.399 118.895 144.796C117.227 144.549 116.284 142.721 118.507 140.572C118.507 140.572 121.531 132.471 125.057 132.246C126.115 132.178 136.077 131.069 134.561 129.514C133.553 128.516 133.553 128.516 126.47 128.496C125.522 128.439 124.882 127.654 124.036 127.354C122.838 127.076 121.318 127.291 120.142 127.366C113.817 128.125 115.941 128.107 113.094 126.046C110.248 123.986 107.662 124.151 96.2669 124.997C84.7545 125.851 80.33 124.953 77.6665 127.602C75.003 130.251 76.3938 131.696 70.3987 132.079C64.4036 132.462 48.1967 133.734 48.1967 133.734ZM113.626 191.637C113.649 191.99 113.679 192.46 113.701 192.813C113.761 193.753 113.874 195.516 115.167 195.434C117.048 195.313 118.921 195.076 120.795 194.838C121.727 194.66 122.815 195.063 123.483 194.43C125.054 193.149 125.661 191.576 127.872 191.081C128.805 190.903 131.421 191.208 131.449 189.79C131.411 189.202 130.33 183.37 129.345 182.725C126.881 181.112 121.222 184.896 117.225 185.151C115.814 185.242 114.374 184.862 112.86 185.194C111.582 185.512 112.15 187.01 112.445 187.936C113.123 189.309 113.426 190.351 113.626 191.637ZM145.992 217.896C145.992 217.896 141.508 221.606 141.57 224.434C141.626 227.145 141.126 232.253 144.282 229.927C147.556 227.593 149.724 222.733 149.724 222.733C149.724 222.733 149.946 213.276 145.992 217.896ZM153.337 216.483C154.008 217.738 154.341 219.251 154.783 220.639C155.536 223.188 154.151 225.519 152.861 227.49C151.673 229.218 150.045 231.447 152.501 232.942C155.81 234.855 159.719 229.53 162.522 227.227C164.768 225.431 163.405 222.567 161.874 220.776C159.945 218.303 157.687 216.205 156.441 213.334C155.32 210.572 153.194 208.702 151.281 206.463C149.883 204.9 148.165 205.718 147.655 208.82C147.24 211.561 149.21 212.851 150.946 214.157C151.932 214.802 152.807 215.572 153.337 216.483ZM193.582 218.278C189.286 219.379 186.995 220.47 182.695 219.682C180.307 219.245 180.952 212.712 178.453 212.399C177.615 212.217 176.27 211.476 175.734 212.337C175.412 212.83 175.73 214.108 175.767 214.695C175.96 215.863 176.853 218.757 175.105 219.105C172.776 219.608 173.736 218.012 172.641 223.039C171.546 228.066 166.627 230.505 165.041 231.551C163.455 232.596 161.02 235.113 157.023 235.368C153.019 235.506 152.513 236.836 155.83 238.867C158.411 240.473 158.929 243.036 159.345 245.842C159.345 245.842 159.345 245.842 159.352 245.96C159.545 247.128 160.395 251.205 158.655 251.67C156.561 252.158 149.486 252.256 146.547 252.444C143.608 252.631 145.077 257.141 145.139 259.969C145.202 262.798 145.967 263.693 146.923 263.868C147.886 264.161 150.187 265.076 151.528 267.587C152.868 270.098 156.665 268.557 160.677 268.537C164.688 268.517 163.683 263.86 164.158 262.059C164.633 260.258 163.155 259.29 167.144 258.917C171.015 258.552 172.261 255.876 172.543 252.907C172.818 249.821 175.937 252.454 179.659 249.738C183.38 247.021 189.958 253.919 192.79 255.744C194.143 256.602 197.724 259.088 197.534 259.808C196.817 261.507 190.459 259.906 192.558 263.195C195.326 267.739 197.777 265.458 201.121 260.523C204.59 255.699 195.636 252.258 193.907 251.07C192.171 249.764 188.009 247.434 190.613 243.844C193.224 240.373 200.317 247.946 200.317 247.946C203.406 250.109 208.154 256.061 209.895 261.143C211.746 266.1 212.364 266.533 216.971 266.592C221.578 266.652 217.668 260.882 216.813 258.577C215.847 256.396 215.81 255.808 218.756 255.738C221.702 255.667 223.598 261.33 225.379 263.341C227.16 265.351 233.018 266.511 235.309 265.421C237.717 264.323 238.362 263.337 241.364 265.978C244.365 268.619 238.343 275.968 236.367 276.448C234.391 276.928 230.898 279.512 226.038 277.344C221.171 275.058 220.378 275.581 215.028 274.979C209.678 274.376 210.674 277.027 209.583 280.284C208.493 283.54 205.757 281.355 204.491 280.019C203.226 278.684 193.169 274.605 189.477 272.244C185.785 269.883 186.208 267.26 184.749 264.756C183.291 262.253 179.327 264.867 178.674 265.735C178.021 266.603 174.62 266.938 171.446 267.141C168.272 267.344 167.059 266.831 165.336 269.42C163.613 272.008 163.641 270.59 160.264 273.167C156.888 275.743 153.309 275.145 148.182 276.181C143.055 277.217 145.214 286.994 145.326 288.757C145.439 290.52 144.744 292.571 142.598 292.236C140.452 291.901 137.484 302.713 135.158 305.105C132.832 307.496 134.678 314.223 134.946 316.567C135.214 318.91 133.336 320.919 132.073 321.472C130.81 322.025 132.959 329.795 132.146 331.854C131.333 333.912 138.234 334.77 138.234 334.77C138.874 335.555 143.439 336.798 146.655 340.959C150.645 346.134 154.149 345.556 154.149 345.556C154.149 345.556 178.239 343.898 183.764 343.545C186.115 343.395 188.401 344.075 190.049 345.858C191.58 347.649 193.186 350.615 192.036 352.931C190.995 355.122 190.648 358.922 192.539 360.807C193.547 361.805 195.12 362.413 196.348 363.16C200.253 365.154 202.169 374.828 202.492 379.882C202.702 383.174 202.568 386.605 201.837 389.957C201.67 391.03 201.385 392.11 200.74 393.096C199.889 394.566 199.589 395.412 199.812 397.05C199.977 399.636 199.687 402.487 202.576 403.365C204.384 403.958 207.606 411.896 207.606 411.896C207.606 411.896 215.774 430.731 216.984 434.902C218.195 439.074 220.179 438.711 221.472 438.629C222.765 438.546 224.19 438.691 224.43 436.905C224.678 435.237 226.228 435.492 226.228 435.492C226.228 435.492 227.654 435.637 233.752 435.011C239.967 434.378 243.81 424.336 245.241 422.71C246.671 421.085 246.759 420.607 246.446 417.558C246.008 414.399 246.581 414.127 249.622 413.696C252.781 413.258 252.145 410.702 251.872 404.582C251.599 398.462 254.536 396.386 258.504 392.001C262.473 387.617 258.476 371.23 257.695 364.552C256.914 357.874 261.061 354.422 261.061 354.422C261.061 354.422 274.167 332.34 279.089 326.242C284.011 320.144 275.52 322.103 275.52 322.103C275.52 322.103 267.659 322.841 263.985 322.603C260.318 322.484 255.951 315.091 254.06 313.205C252.169 311.319 247.829 308.056 246.861 303.987C245.893 299.917 244.124 296.253 244.124 296.253C243.719 295.453 239.717 291.932 238.962 287.495C237.265 277.571 241.523 285.089 241.523 285.089C241.523 285.089 243.106 287.702 248.393 291.023C253.688 294.462 257.343 307.33 260.135 312.227C262.926 317.124 262.574 317.146 270.34 316.768C278.113 316.507 287.964 304.429 291.003 302.11C294.041 299.792 292.81 297.156 291.337 294.417C289.864 291.678 287.198 292.439 281.958 291.712C276.726 291.102 274.557 284.867 269.667 282.228C264.777 279.59 269.142 279.547 272.456 279.689C275.769 279.832 276.235 281.573 278.008 283.466C279.789 285.476 282.45 286.487 287.592 285.686C292.742 285.003 296.279 286.783 297.552 288.236C298.825 289.69 302.434 290.757 302.434 290.757C302.434 290.757 311.25 290.194 312.383 291.302C313.517 292.41 313.132 295.621 318.929 295.841C324.727 296.061 328.276 307.283 328.276 307.283C328.276 307.283 330.853 321.754 335.008 323.967C343.074 328.291 340.047 312.314 340.204 309.235C340.362 306.156 348.76 300.899 351.726 299.293C352.982 298.622 353.479 297.174 353.507 295.756C353.564 294.808 352.723 292.737 353.384 291.987C353.941 291.479 356.3 291.446 357.013 291.519C358.556 291.656 361.302 290.301 362.218 293.547C363.133 296.793 367.628 300.637 367.628 300.637C369.004 301.848 370.694 302.448 372.48 302.688C374.023 302.825 375.859 302 377.322 302.732C379.396 303.78 378.358 307.86 378.353 309.63C378.473 311.511 378.123 313.422 378.486 315.405C378.856 317.506 380.262 319.187 380.867 321.273C381.31 322.661 381.628 323.939 381.836 325.342C381.836 325.342 387.481 337.964 394.217 336.236C398.749 335.12 390.259 327.872 386.625 324.564C382.991 321.255 382.53 317.744 383.826 314.002C385.121 310.26 388.353 314.657 393.61 317.508C398.868 320.359 396.794 319.311 400.578 313.876C404.369 308.558 400.335 302.678 398.959 301.468C397.583 300.258 391.725 293.55 397.93 290.911C404.018 288.279 410.1 287.419 413.479 286.731C416.858 286.043 416.273 282.421 421.404 274.067C426.536 265.713 420.483 255.949 417.869 251.985C415.137 248.029 414.532 245.943 417.796 241.603C421.059 237.264 424.941 244.452 424.941 244.452C424.941 244.452 428.851 250.221 433.928 255.798C439.006 261.376 439.553 253.315 440.256 251.381C440.951 249.33 437.737 247.057 435.801 244.466C433.865 241.875 435.593 237.515 435.966 235.957C436.338 234.399 444.656 229.737 447.293 228.506C449.929 227.275 452.457 222.51 452.994 212.444C453.531 202.377 456.58 213.159 456.58 213.159C456.58 213.159 458.368 235.588 458.513 239.71C458.658 243.832 459.006 245.58 454.154 249.077C449.302 252.574 448.67 251.906 446.003 252.666C443.337 253.427 442.457 254.427 442.635 260.908C442.813 267.388 445.762 263.659 446.017 262.108C446.272 260.557 447.162 256.015 450.593 256.15C454.025 256.285 459.184 252.06 462.208 249.506C465.231 246.953 463.415 240.695 463.065 237.058C462.714 233.422 462.429 234.502 465.588 234.064C468.747 233.627 467.557 233.467 467.839 230.498C468.121 227.529 466.688 227.266 463.742 227.337C460.796 227.407 461.203 224.548 461.203 224.548C461.203 224.548 460.867 210.052 459.944 206.688C459.028 203.442 454.599 198.767 446.055 199.904C437.511 201.04 449.808 188.451 453.652 183.956C457.379 179.469 461.556 182.035 461.556 182.035C461.556 182.035 466.525 184.078 473.316 185.06C480.106 186.043 476.594 180.956 477.192 177.377C477.79 173.798 480.818 175.021 486.584 178.429C492.349 181.838 482.448 189.434 481.29 191.633C480.132 193.831 483.541 199.161 487.348 205.173C491.155 211.185 490.079 203.582 490.392 201.084C490.587 198.593 490.209 196.374 492.557 194.336C494.906 192.297 493.285 189.096 492.962 184.041C492.639 178.986 496.21 179.466 501.735 179.113C507.268 178.878 507.845 176.835 509.086 175.929C510.326 175.024 509.501 173.188 517.662 171.604C525.83 170.138 507.323 150.193 505.815 148.755C504.307 147.317 480.291 150.15 474.399 150.29C468.506 150.431 468.501 146.654 467.236 145.319C465.97 143.983 452.762 146.007 450.286 146.048C447.81 146.088 444.893 141.081 442.762 140.981C440.631 140.881 439.944 143.049 437.948 145.065C435.952 147.081 435.667 142.615 435.311 140.749C434.956 138.883 433.626 138.378 431.23 137.823C428.833 137.268 429.232 143.498 429.249 145.621C429.267 147.745 410.296 148.249 406.645 148.364C402.993 148.479 401.562 144.558 400.587 140.371C399.611 136.184 396.135 140.891 396.135 140.891L387.231 141.932C387.231 141.932 372.154 142.424 368.195 143.267C364.354 144.102 367.887 138.447 369.845 135.844C371.796 133.122 361.799 129.984 360.556 129.001C359.313 128.018 351.52 129.815 349.836 129.332C348.271 128.842 346.93 126.331 346.512 127.184C346.095 128.037 345.665 130.543 343.984 131.949C342.303 133.354 340.628 132.989 338.299 133.492C335.971 133.995 337.449 134.963 329.425 135.003C321.41 135.161 321.395 140.474 319.114 143.57C316.716 146.674 312.469 146.709 310.478 146.955C308.495 147.318 309.455 151.269 308.673 153.798C307.89 156.326 303.768 150.924 302.312 150.309C300.849 149.576 301.612 154.131 301.612 154.131C301.612 154.131 302.366 167.774 301.868 169.222C301.371 170.671 296.153 159.201 295.98 156.497C295.925 153.786 293.316 148.051 292.778 147.023C292.365 146.106 291.287 147.709 289.894 149.922C288.501 152.136 289.712 156.308 289.547 159.269C289.383 162.23 287.639 160.807 283.055 161.1C278.47 161.393 277.745 162.974 275.977 164.857C274.209 166.741 267.243 166.714 263.247 166.969C259.25 167.224 257.394 169.585 253.893 172.052C250.392 174.518 251.107 170.931 248.553 167.908C245.874 164.774 245.397 170.234 244.254 172.668C243.111 175.101 235.895 169.307 232.431 166.813C228.967 164.32 227.096 166.446 225.333 166.559C223.569 166.671 221.616 167.504 219.54 164.568C217.464 161.632 212.549 162.3 207.147 160.875C201.745 159.45 200.347 163.434 194.832 165.793C189.317 168.152 188.117 171.533 188.117 171.533C188.117 171.533 188.117 171.533 187.967 174.73C187.817 177.926 184.163 181.701 181.89 184.915C179.617 188.129 174.93 188.664 172.434 190.24C169.938 191.816 172.235 200.049 172.57 203.451C172.898 206.735 178.155 204.038 181.681 203.813C185.09 203.595 183.397 206.654 183.017 208.095C182.85 209.168 181.071 209.045 180.764 209.773C180.654 209.898 180.669 210.133 180.809 210.478C181.354 211.624 182.707 212.481 183.488 213.612C185.954 217.113 187.344 213.011 187.344 213.011C187.344 213.011 190.468 208.327 193.224 203.429C195.665 199.142 190.525 196.284 193.216 192.217C195.474 188.768 198.342 185.634 201.248 183.088C206.275 178.635 207.256 181.051 208.934 183.305C210.613 185.558 201.654 189.435 199.451 195.596C197.248 201.756 205.809 197.196 203.671 202.526C199.492 214.714 198.224 217.037 193.582 218.278ZM264.401 157.335C266.13 158.523 267.968 159.585 269.917 160.523C270.527 160.838 273.336 162.311 272.51 160.476C271.957 159.213 270.817 157.987 269.926 156.982C268.145 154.971 268.29 153.545 268.11 150.724C267.93 147.903 273.422 145.191 273.422 145.191C292.202 134.313 274.445 140.877 271.646 141.41C268.957 141.818 266.276 142.343 264.896 142.904C263.515 143.464 260.582 147.428 259.256 150.7C258.846 151.67 259.156 152.831 259.569 153.749C259.967 154.431 260.475 154.989 261.21 155.414C262.313 156.052 263.534 156.682 264.401 157.335ZM270.257 389.362C268.804 390.635 269.389 394.257 269.67 400.494C269.782 402.257 272.812 414.575 275.473 410.038C275.465 409.92 278.984 404.03 278.899 400.849C278.806 397.55 281.299 394.086 282.215 391.785C283.13 389.484 282.354 386.582 279.813 381.906C277.272 377.229 275.204 385.505 275.204 385.505C274.581 386.843 271.71 388.089 270.257 389.362ZM387.294 346.12C389.06 347.896 390.834 349.789 392.6 351.565C393.482 352.453 394.365 353.341 395.248 354.228C396.249 355.109 397.484 355.974 398.03 357.119C398.575 358.265 398.563 359.918 399.563 360.798C400.439 361.569 401.732 361.486 402.782 361.301C407.359 360.89 411.958 360.833 416.66 360.532C443.697 358.805 423.123 358.231 421.933 358.071C420.742 357.911 418.311 358.656 415.973 357.153C413.634 355.65 403.555 356.766 403.555 356.766C403.555 356.766 400.036 357.109 400.318 354.141C400.6 351.172 399.205 351.497 394.265 344.377C389.325 337.257 389.89 342.414 382.379 335.694C374.868 328.974 379.683 335.984 381.274 338.715C382.865 341.446 386.271 344.887 386.271 344.887C386.537 345.343 386.919 345.79 387.294 346.12ZM426.156 346.588C425.784 348.146 425.874 349.557 427.675 350.032C431.026 350.762 430.371 349.742 433.527 347.415C434.092 347.025 435.788 345.855 435.618 345.039C435.455 344.341 433.927 344.439 433.317 344.124C432.699 343.691 432.074 343.141 431.368 343.186C430.42 343.129 429.48 343.189 428.547 343.367C427.379 343.559 426.814 343.949 426.521 344.912C426.316 345.398 426.236 345.993 426.156 346.588ZM415.604 345.846C416.662 345.778 417.838 345.703 418.865 345.165C419.783 344.753 420.318 343.892 420.986 343.259C422.212 342.119 422.372 340.928 422.532 339.738C423.034 336.519 422.581 333.125 422.378 329.951C422.018 324.309 421.263 325.419 420.172 323.128C419.619 321.865 415.72 323.649 414.157 325.047C412.594 326.445 413.677 328.619 413.665 330.272C413.8 332.388 411.707 332.876 410.364 334.024C408.683 335.429 407.127 336.945 405.572 338.461C403.569 340.359 405.687 342.113 406.748 343.933C407.013 344.388 407.403 344.954 407.896 345.276C408.764 345.929 409.829 345.979 410.777 346.036C410.895 346.029 410.895 346.029 411.012 346.021C412.548 346.041 414.076 345.944 415.604 345.846ZM432.87 318.658C433.805 320.369 435.093 322.057 436.257 323.635C436.904 324.538 438.295 325.983 439.41 324.968C440.864 323.695 440.383 321.719 440.286 320.191C440.06 316.664 440.082 311.47 438.514 309.091C436.828 306.72 433.917 305.49 432.003 303.252C430.48 301.578 429.32 301.889 427.136 295.418C424.834 288.956 425.948 297.147 425.858 301.284C425.768 305.42 429.74 308.471 429.74 308.471C432.639 311.355 431.116 315.229 432.87 318.658ZM463.75 349.379C465.168 349.407 466.491 349.794 467.507 350.91C468.772 352.245 469.23 353.868 470.268 355.336C470.924 356.357 471.954 357.707 473.46 357.257C474.84 356.697 476.161 355.196 477.434 356.649C479.215 358.66 479.978 357.667 479.978 357.667C480.425 357.284 483.927 354.818 485.78 356.116C496.54 363.808 491.793 357.856 488.996 354.73C486.2 351.604 479.309 347.205 476.183 344.454C473.056 341.703 467.226 344.672 463.905 344.412C460.583 344.152 461.454 341.146 459.563 339.26C457.672 337.375 450.754 339.941 449.056 339.223C447.357 338.506 446.512 338.206 446.369 335.972C446.347 335.62 445.454 332.726 444.698 333.836C444.376 334.329 444.693 335.607 444.731 336.195C444.791 337.135 444.851 338.076 445.029 339.009C445.524 341.219 447.227 340.166 450.279 341.742C453.323 343.2 454.568 346.071 455.314 348.502C455.912 350.47 458.373 350.195 460.239 349.84C461.407 349.647 462.575 349.454 463.75 349.379ZM485.318 435.698C484.722 435.618 483.539 435.575 483.349 436.295C483.159 437.016 484.505 437.756 484.542 438.344C484.602 439.284 484.555 442.238 487.391 442.293C490.11 442.355 490.475 440.679 490.89 437.938C490.978 437.46 490.948 436.99 490.682 436.535C490.292 435.97 489.462 435.905 488.874 435.942C488.279 435.862 487.691 435.9 486.978 435.827C486.383 435.748 485.913 435.778 485.318 435.698ZM449.033 370.267C445.881 370.822 443.07 373.008 440.464 374.709C438.761 375.762 436.955 377.058 436.26 379.109C435.66 380.8 435.958 383.613 435.835 385.392C435.618 387.53 429.973 386.002 427.88 386.49C425.786 386.978 426.627 389.049 425.966 389.799C425.189 390.557 422.197 389.922 419.759 390.55C416.858 391.325 418.599 396.408 418.491 398.421C418.384 400.434 417.806 402.478 417.464 404.506C416.764 408.328 418.975 407.832 420.916 408.653C422.856 409.473 421.439 414.993 421.979 417.909C422.505 420.59 426.196 422.951 428.49 423.749C430.063 424.356 431.921 423.883 433.567 423.778C435.448 423.658 437.336 423.656 439.069 423.073C440.803 422.49 442.005 420.997 443.466 419.841C445.704 417.928 448.238 416.939 451.192 416.987C454.263 417.027 457.224 417.191 460.288 417.114C461.934 417.009 464.717 416.241 465.323 418.326C465.773 419.832 465.643 421.493 466.093 422.998C467.009 426.245 469.167 424.926 471.871 424.754C474.575 424.581 474.827 426.689 475.66 428.643C477.054 431.977 479.507 431.584 482.564 431.388C484.68 431.253 486.795 431.118 488.904 430.865C492.525 430.28 494.526 426.493 494.526 426.493C494.526 426.493 498.82 417.956 500.96 414.515C503.101 411.073 503.568 403.608 503.2 397.848C502.832 392.088 494.321 384.487 494.321 384.487C494.321 384.487 482.775 371.888 480.766 370.01C478.758 368.131 479.776 365.588 478.928 363.399C478.197 361.203 476.667 364.96 474.706 365.676C472.745 366.391 474.314 374.317 474.389 375.492C474.464 376.668 471.98 376.59 470.582 375.027C469.184 373.464 468.384 373.87 466.435 372.932C464.487 371.994 463.184 370.071 462.746 366.912C462.425 363.746 459.202 365.014 455.433 365.137C451.663 365.259 453.267 366.337 452.689 368.381C452.302 369.704 450.898 369.911 449.73 370.104C449.378 370.127 449.15 370.259 449.033 370.267ZM534.892 441.264L534.782 441.389C533.586 443 530.038 448.42 532.411 448.622C534.667 448.832 537.571 449.945 538.884 448.327C540.182 446.474 539.622 445.093 543.748 443.177C545.812 442.219 547.162 435.641 547.162 435.641C547.162 435.641 546.306 433.335 544.806 432.015C543.562 431.032 540.997 435.209 540.006 436.334C538.348 438.093 536.315 439.521 534.892 441.264ZM553.051 428.065C553.716 425.544 555.57 426.842 555.457 425.078C555.344 423.315 549.969 420.472 548.109 419.056C544.394 416.343 548.084 422.363 547.366 424.061C546.428 426.009 546.311 426.017 547.276 428.198C547.549 428.77 548.317 431.554 548.92 431.752C552.404 432.709 552.394 430.703 553.051 428.065Z"/>
</mask>
<path d="M-62.3913 165.232C-63.9796 164.39 -65.5603 163.664 -67.3461 163.424C-69.7196 163.222 -72.4083 163.63 -74.7168 162.597C-76.2976 161.872 -79.6243 157.835 -75.8401 157.948C-73.239 158.017 -68.1918 157.577 -66.5563 155.466C-62.4124 150.126 -55.6437 161.85 -50.6716 160.234C-48.013 159.356 -47.6506 155.792 -44.7243 157.258C-42.8934 158.203 -40.9075 159.729 -39.5093 161.292C-37.4782 163.522 -38.6886 164.898 -41.3623 165.541C-43.8083 166.051 -46.2919 165.974 -48.878 166.139C-51.229 166.29 -53.5649 166.675 -55.9009 167.06C-58.2369 167.445 -60.3179 166.28 -62.3913 165.232ZM-36.3463 147.988C-36.3463 147.988 -34.7077 153.313 -32.7818 153.898C-30.9735 154.491 -29.973 155.371 -28.9553 152.827C-27.93 150.401 -30.7012 149.516 -32.8198 147.763C-34.9383 146.01 -38.4051 141.628 -36.3463 147.988ZM-42.8994 180.275C-46.4136 178.847 -44.9106 176.509 -46.3339 172.704C-47.7573 168.9 -49.978 172.937 -53.1541 176.799C-56.3302 180.661 -60.1673 174.179 -62.0432 172.528C-63.9191 170.877 -62.296 170.42 -71.3999 170.175C-80.3938 169.805 -79.7035 169.525 -83.4073 174.365C-87.1111 179.205 -79.7805 177.556 -74.5708 177.814C-69.361 178.071 -69.0482 181.12 -69.3156 184.324C-69.583 187.527 -79.2022 186.608 -88.2036 186.121C-97.205 185.633 -96.2545 187.579 -100.711 189.87C-105.168 192.162 -115.145 187.488 -119.224 186.45C-123.304 185.413 -150.47 188.801 -154.467 189.056C-158.464 189.312 -160.502 192.511 -163.468 194.116C-166.434 195.722 -164.788 201.165 -164.74 203.758C-164.693 206.352 -170.72 204.376 -173.777 204.572C-176.833 204.767 -175.898 206.478 -175.99 208.726C-176.082 210.975 -174.774 211.127 -171.145 210.659C-167.516 210.191 -165.95 210.681 -165.675 213.142C-165.4 215.603 -170.302 214.618 -173.241 214.806C-176.18 214.994 -174.674 220.091 -173.808 224.403C-172.942 228.715 -170.166 227.829 -168.445 228.899C-166.725 229.97 -164.268 231.465 -177.764 238.229C-191.259 244.993 -178.024 241.55 -175.733 240.46C-173.442 239.369 -163.3 235.534 -160.244 235.339C-157.188 235.144 -152.711 231.317 -149.042 227.778C-145.373 224.238 -133.168 224.993 -124.462 224.554C-115.755 224.116 -107.015 242.679 -102.596 245.347C-98.1763 248.015 -96.1813 271.848 -95.8482 278.909C-95.5151 285.969 -90.0349 290.458 -87.5412 292.541C-85.0475 294.625 -78.4689 307.07 -71.5729 315.245C-64.6693 323.538 -68.3066 312.794 -70.5029 307.977C-72.7067 303.042 -68.7697 307.394 -68.7697 307.394C-68.7697 307.394 -56.6586 319.603 -54.0421 325.456C-51.4256 331.308 -41.4635 335.747 -34.9682 335.804C-28.4729 335.861 -28.4778 337.632 -28.4778 337.632C-28.4778 337.632 -28.6727 340.123 -20.8543 340.568C-13.1535 341.02 -14.0635 347.097 -10.7394 349.246C-7.41531 351.394 -2.32048 353.547 2.02887 353.269C6.37823 352.991 4.82004 352.619 5.85321 355.857C6.88636 359.096 4.11547 363.758 2.03224 366.252C-0.0509933 368.746 0.0594283 374.168 0.465023 380.516C0.870619 386.864 3.42178 387.999 3.42178 387.999C3.42178 387.999 18.2196 409.007 21.5211 410.803C24.8226 412.598 24.6228 416.86 24.6228 416.86C24.6228 416.86 26.6809 449.069 26.721 451.545C26.7612 454.021 26.5261 454.036 24.598 457.11C22.6699 460.184 23.4356 466.627 23.4356 466.627C23.4356 466.627 24.9082 495.214 25.0434 497.33C25.1786 499.446 28.6427 501.939 39.7078 507.015C50.7729 512.092 42.4663 504.006 41.1631 502.083C39.8599 500.16 40.3523 494.935 40.1044 491.056C39.8566 487.177 43.0203 484.968 44.1631 482.534C45.306 480.101 44.0178 478.413 43.7549 474.298C43.492 470.184 47.9413 467.775 47.9413 467.775C47.9413 467.775 71.4596 440.542 73.3077 438.063C75.1558 435.585 75.2156 430.978 74.8152 428.407C74.4149 425.836 81.6925 417.817 85.8391 414.365C89.9856 410.913 92.8237 401.761 92.9311 399.748C93.0385 397.735 92.8632 393.143 95.6592 390.722C98.4553 388.3 98.0298 383.488 98.8823 378.358C99.7348 373.229 90.2932 373.242 84.418 369.958C78.5427 366.675 69.5413 366.188 68.836 366.233C68.1307 366.278 64.1641 367.003 64.2114 364.05C64.2587 361.096 61.4672 356.199 59.8988 353.82C58.3305 351.442 56.1046 351.702 53.4009 351.875C50.6973 352.048 41.9805 344.933 38.3038 342.807C34.6271 340.682 27.5767 343.02 22.7921 342.028C18.0075 341.035 20.3585 340.885 16.0515 339.98C11.7446 339.075 10.1218 345.08 8.16104 345.795C6.20023 346.511 -0.280052 346.689 -2.65358 346.486C-5.02712 346.284 -7.05326 342.282 -7.88136 338.558C-8.70947 334.834 -10.1077 333.271 -13.3942 331.711C-16.6807 330.15 -17.4063 326.184 -17.2339 323.34C-17.0615 320.496 -19.0749 320.389 -21.4334 320.421C-23.7919 320.454 -23.6143 321.387 -24.0743 323.423C-24.5344 325.459 -26.3551 326.519 -31.4624 326.02C-36.5771 325.402 -39.0761 319.542 -39.9718 314.76C-40.8675 309.978 -40.9227 307.267 -37.8115 304.236C-34.7004 301.204 -33.6624 302.672 -29.1504 303.092C-24.6384 303.512 -21.7398 300.848 -18.9964 297.604C-16.2529 294.36 -12.3959 299.307 -12.3959 299.307C-12.3959 299.307 -12.3959 299.307 -7.09565 306.522C-1.7954 313.737 -2.87136 306.134 -4.51253 298.921C-6.15372 291.708 14.8187 267.116 18.0173 263.607C21.216 260.098 20.9535 261.531 26.8009 260.685C32.6484 259.839 34.4988 253.702 37.75 251.015C41.0012 248.329 33.1329 248.95 29.4862 247.294C25.8395 245.639 31.687 244.793 33.7353 243.6C35.7836 242.407 40.2129 241.533 46.113 241.511C52.013 241.488 36.1149 221.73 33.4961 219.537C30.8773 217.344 31.3573 213.772 29.964 210.438C28.5706 207.104 24.9344 213.002 22.2285 216.834C19.5226 220.666 19.4073 217.014 19.7348 214.751C20.0623 212.487 17.5611 210.286 16.3079 207.298C15.0546 204.309 7.59151 205.73 4.88034 205.785C2.16918 205.841 2.65439 206.046 2.12447 210.683C1.59455 215.32 3.07538 218.176 4.16864 222.355C5.26188 226.534 0.927899 232.595 -1.58798 235.706C-4.10386 238.818 -5.03448 235.336 -5.33981 232.405C-5.64513 229.474 -7.02568 230.034 -10.3471 229.774C-13.6686 229.514 -13.9112 229.412 -15.3995 226.438C-16.8879 223.464 -21.4025 221.156 -25.5318 221.184C-29.661 221.212 -28.8262 213.959 -28.9114 210.777C-29.0042 207.478 -22.8991 206.97 -20.9383 206.255C-18.9775 205.539 -15.8213 203.213 -12.2895 206.764C-8.76526 210.198 -5.82424 206.351 -5.82424 206.351C-5.82424 206.351 -1.01744 202.149 -1.16766 199.798C-1.31788 197.447 -2.33078 198.22 -5.50464 198.423C-8.67849 198.626 -9.14868 198.656 -9.32143 195.952C-9.49419 193.248 -9.50921 193.013 -3.87431 192.535C1.76059 192.057 -1.15601 187.05 1.38991 184.409C3.93584 181.768 6.64212 183.483 6.4949 188.568C6.34767 193.653 11.9773 189.398 15.3513 190.481C18.7254 191.563 17.3024 193.307 14.5187 194.075C11.7351 194.843 13.676 195.663 14.6941 198.667C15.7122 201.67 15.307 200.87 24.2859 201.004C33.2648 201.139 25.3311 197.043 24.6832 196.14C24.0354 195.237 21.1815 193.059 29.3225 193.011C37.4635 192.963 31.9882 186.703 31.9882 186.703C31.9882 186.703 25.7224 177.307 19.0994 175.251C12.4765 173.196 14.2472 173.201 10.5679 169.187C6.88852 165.173 -6.03188 168.005 -9.92604 168.018C-13.8202 168.03 -13.4199 170.601 -15.2605 173.198C-16.9836 175.786 -12.1238 177.954 -11.1504 185.8C-10.177 193.646 -15.7923 187.041 -15.7923 187.041C-15.7923 187.041 -18.8313 183.812 -20.3197 180.839C-21.808 177.865 -22.3834 176.249 -20.6453 173.896C-18.9072 171.542 -18.2421 169.021 -22.4367 164.332C-26.6313 159.643 -29.9253 157.965 -31.5861 157.835C-33.2468 157.705 -32.5663 160.966 -32.1509 163.772C-31.7356 166.578 -30.1199 166.003 -28.0164 167.521C-26.0304 169.047 -26.658 172.155 -26.9254 175.359C-27.1928 178.563 -27.4531 176.337 -30.6998 171.706C-33.9465 167.074 -35.662 169.78 -38.0378 173.237C-40.4136 176.693 -33.2329 178.241 -32.6223 184.103C-32.0116 189.966 -35.611 185.357 -35.611 185.357C-35.611 185.357 -39.3853 181.703 -42.8994 180.275ZM-142.622 300.546C-142.622 300.546 -139.217 313.194 -135.963 312.396C-129.456 310.799 -134.663 306.883 -140.859 300.433C-141.374 299.758 -143.515 297.652 -142.622 300.546ZM0.388488 320.207C1.10881 320.397 1.82163 320.47 2.4319 320.785C3.40986 321.313 4.18277 322.326 5.26325 322.611C6.71141 323.108 9.44249 321.517 10.8305 321.075C16.7355 319.281 0.418158 315.13 -2.44811 314.605C-5.31438 314.08 -6.17478 313.545 -12.3422 316.772C-18.5097 319.999 -6.73964 319.483 -6.73964 319.483C-4.24855 319.678 -1.88252 319.762 0.388488 320.207ZM14.8374 322.825C14.8824 323.53 14.9275 324.236 15.0526 324.346C15.7229 325.601 17.3386 325.026 18.5141 324.951C19.5721 324.883 26.1323 324.11 23.0009 323.13C21.0751 322.545 18.9941 321.379 16.8331 320.809C13.7092 319.946 14.7472 321.415 14.8374 322.825ZM-22.8524 155.978C-21.7843 157.916 -20.3963 157.474 -19.1832 157.986C-17.9702 158.499 -17.5274 159.887 -16.9569 163.273C-16.3864 166.66 -5.65444 164.676 1.74371 164.085C9.14186 163.494 4.07446 159.923 -5.31454 160.759C-9.42128 161.14 -9.93656 160.464 -11.2548 158.306C-12.573 156.148 -14.4613 156.15 -17.2325 155.265C-20.0038 154.38 -19.8588 152.954 -22.6177 150.416C-26.377 146.997 -24.0381 154.047 -24.0381 154.047C-24.0381 154.047 -23.9205 154.04 -22.8524 155.978ZM6.67784 156.334C11.9676 155.996 14.7482 147.792 14.9007 146.484C15.0532 145.176 18.0843 142.74 22.3161 142.469C26.548 142.199 28.7814 142.056 30.5195 139.703C32.2576 137.349 30.3268 138.535 36.3418 136.616C42.3568 134.697 42.119 132.824 41.8513 130.48C41.5835 128.137 31.7168 128.885 29.0206 129.176C26.3245 129.466 26.6648 131.097 23.8462 133.165C21.0276 135.234 3.16488 134.605 -2.48504 134.848C-3.0728 134.885 -3.66055 134.923 -4.11573 135.188C-3.34283 136.201 -0.859236 136.278 0.228755 136.681C1.79446 137.171 2.69242 138.294 4.03804 139.034C5.37615 139.657 6.91183 139.677 8.32995 139.704C23.2389 140.286 11.9192 142.308 10.7512 142.5C9.58318 142.693 7.65731 142.108 7.49995 145.187C7.34259 148.265 3.36579 146.985 1.37493 147.23C-0.615905 147.476 0.0668645 147.078 -0.173488 143.316C-0.413841 139.555 -9.06748 140.816 -12.8216 141.174C-16.5757 141.532 -14.8447 144.608 -14.847 148.267C-14.8492 151.926 -13.9163 151.748 -10.0146 151.853C-6.23051 151.965 -7.46347 152.988 -6.85056 155.192C-6.23765 157.395 -0.382689 156.667 -0.382689 156.667C-0.382689 156.667 1.38807 156.672 6.67784 156.334ZM48.1967 133.734C48.1967 133.734 44.7277 133.011 43.1222 135.593C41.5166 138.174 43.4125 138.289 39.3057 138.669C35.199 139.05 35.4491 139.27 34.6664 141.798C33.8838 144.327 32.0356 146.806 29.0969 146.993C26.1581 147.181 21.3885 146.424 22.0014 148.627C22.6218 150.948 27.0016 156.688 29.0075 156.678C31.0133 156.667 47.7028 153.713 49.8942 160.3C52.0931 167.005 49.993 178.471 53.287 180.149C56.581 181.827 55.3131 184.15 54.2927 184.806C53.2723 185.461 51.544 184.273 51.7618 187.682C51.9797 191.091 52.94 189.495 55.001 192.196C57.0621 194.897 57.9349 193.779 58.2053 198.011C58.4757 202.243 58.1106 203.919 61.3145 204.186C64.5184 204.453 67.3874 206.867 67.9552 208.365C68.523 209.863 71.6068 208.249 72.3094 206.316C73.0121 204.383 81.92 190.476 84.8437 190.053C87.7675 189.63 92.8447 189.66 92.797 187.066C92.7493 184.473 90.8633 180.816 94.4998 180.466C98.1363 180.116 105.079 179.79 107.918 176.186C110.756 172.582 116.871 168.532 110.934 167.967C108.2 167.67 105.581 165.476 106.811 162.565C106.906 162.205 111.043 162.295 111.623 162.139C113.019 161.814 114.87 161.224 115.602 159.761C116.738 157.209 117.873 154.658 119.126 152.1C120.291 150.019 124.245 145.399 118.895 144.796C117.227 144.549 116.284 142.721 118.507 140.572C118.507 140.572 121.531 132.471 125.057 132.246C126.115 132.178 136.077 131.069 134.561 129.514C133.553 128.516 133.553 128.516 126.47 128.496C125.522 128.439 124.882 127.654 124.036 127.354C122.838 127.076 121.318 127.291 120.142 127.366C113.817 128.125 115.941 128.107 113.094 126.046C110.248 123.986 107.662 124.151 96.2669 124.997C84.7545 125.851 80.33 124.953 77.6665 127.602C75.003 130.251 76.3938 131.696 70.3987 132.079C64.4036 132.462 48.1967 133.734 48.1967 133.734ZM113.626 191.637C113.649 191.99 113.679 192.46 113.701 192.813C113.761 193.753 113.874 195.516 115.167 195.434C117.048 195.313 118.921 195.076 120.795 194.838C121.727 194.66 122.815 195.063 123.483 194.43C125.054 193.149 125.661 191.576 127.872 191.081C128.805 190.903 131.421 191.208 131.449 189.79C131.411 189.202 130.33 183.37 129.345 182.725C126.881 181.112 121.222 184.896 117.225 185.151C115.814 185.242 114.374 184.862 112.86 185.194C111.582 185.512 112.15 187.01 112.445 187.936C113.123 189.309 113.426 190.351 113.626 191.637ZM145.992 217.896C145.992 217.896 141.508 221.606 141.57 224.434C141.626 227.145 141.126 232.253 144.282 229.927C147.556 227.593 149.724 222.733 149.724 222.733C149.724 222.733 149.946 213.276 145.992 217.896ZM153.337 216.483C154.008 217.738 154.341 219.251 154.783 220.639C155.536 223.188 154.151 225.519 152.861 227.49C151.673 229.218 150.045 231.447 152.501 232.942C155.81 234.855 159.719 229.53 162.522 227.227C164.768 225.431 163.405 222.567 161.874 220.776C159.945 218.303 157.687 216.205 156.441 213.334C155.32 210.572 153.194 208.702 151.281 206.463C149.883 204.9 148.165 205.718 147.655 208.82C147.24 211.561 149.21 212.851 150.946 214.157C151.932 214.802 152.807 215.572 153.337 216.483ZM193.582 218.278C189.286 219.379 186.995 220.47 182.695 219.682C180.307 219.245 180.952 212.712 178.453 212.399C177.615 212.217 176.27 211.476 175.734 212.337C175.412 212.83 175.73 214.108 175.767 214.695C175.96 215.863 176.853 218.757 175.105 219.105C172.776 219.608 173.736 218.012 172.641 223.039C171.546 228.066 166.627 230.505 165.041 231.551C163.455 232.596 161.02 235.113 157.023 235.368C153.019 235.506 152.513 236.836 155.83 238.867C158.411 240.473 158.929 243.036 159.345 245.842C159.345 245.842 159.345 245.842 159.352 245.96C159.545 247.128 160.395 251.205 158.655 251.67C156.561 252.158 149.486 252.256 146.547 252.444C143.608 252.631 145.077 257.141 145.139 259.969C145.202 262.798 145.967 263.693 146.923 263.868C147.886 264.161 150.187 265.076 151.528 267.587C152.868 270.098 156.665 268.557 160.677 268.537C164.688 268.517 163.683 263.86 164.158 262.059C164.633 260.258 163.155 259.29 167.144 258.917C171.015 258.552 172.261 255.876 172.543 252.907C172.818 249.821 175.937 252.454 179.659 249.738C183.38 247.021 189.958 253.919 192.79 255.744C194.143 256.602 197.724 259.088 197.534 259.808C196.817 261.507 190.459 259.906 192.558 263.195C195.326 267.739 197.777 265.458 201.121 260.523C204.59 255.699 195.636 252.258 193.907 251.07C192.171 249.764 188.009 247.434 190.613 243.844C193.224 240.373 200.317 247.946 200.317 247.946C203.406 250.109 208.154 256.061 209.895 261.143C211.746 266.1 212.364 266.533 216.971 266.592C221.578 266.652 217.668 260.882 216.813 258.577C215.847 256.396 215.81 255.808 218.756 255.738C221.702 255.667 223.598 261.33 225.379 263.341C227.16 265.351 233.018 266.511 235.309 265.421C237.717 264.323 238.362 263.337 241.364 265.978C244.365 268.619 238.343 275.968 236.367 276.448C234.391 276.928 230.898 279.512 226.038 277.344C221.171 275.058 220.378 275.581 215.028 274.979C209.678 274.376 210.674 277.027 209.583 280.284C208.493 283.54 205.757 281.355 204.491 280.019C203.226 278.684 193.169 274.605 189.477 272.244C185.785 269.883 186.208 267.26 184.749 264.756C183.291 262.253 179.327 264.867 178.674 265.735C178.021 266.603 174.62 266.938 171.446 267.141C168.272 267.344 167.059 266.831 165.336 269.42C163.613 272.008 163.641 270.59 160.264 273.167C156.888 275.743 153.309 275.145 148.182 276.181C143.055 277.217 145.214 286.994 145.326 288.757C145.439 290.52 144.744 292.571 142.598 292.236C140.452 291.901 137.484 302.713 135.158 305.105C132.832 307.496 134.678 314.223 134.946 316.567C135.214 318.91 133.336 320.919 132.073 321.472C130.81 322.025 132.959 329.795 132.146 331.854C131.333 333.912 138.234 334.77 138.234 334.77C138.874 335.555 143.439 336.798 146.655 340.959C150.645 346.134 154.149 345.556 154.149 345.556C154.149 345.556 178.239 343.898 183.764 343.545C186.115 343.395 188.401 344.075 190.049 345.858C191.58 347.649 193.186 350.615 192.036 352.931C190.995 355.122 190.648 358.922 192.539 360.807C193.547 361.805 195.12 362.413 196.348 363.16C200.253 365.154 202.169 374.828 202.492 379.882C202.702 383.174 202.568 386.605 201.837 389.957C201.67 391.03 201.385 392.11 200.74 393.096C199.889 394.566 199.589 395.412 199.812 397.05C199.977 399.636 199.687 402.487 202.576 403.365C204.384 403.958 207.606 411.896 207.606 411.896C207.606 411.896 215.774 430.731 216.984 434.902C218.195 439.074 220.179 438.711 221.472 438.629C222.765 438.546 224.19 438.691 224.43 436.905C224.678 435.237 226.228 435.492 226.228 435.492C226.228 435.492 227.654 435.637 233.752 435.011C239.967 434.378 243.81 424.336 245.241 422.71C246.671 421.085 246.759 420.607 246.446 417.558C246.008 414.399 246.581 414.127 249.622 413.696C252.781 413.258 252.145 410.702 251.872 404.582C251.599 398.462 254.536 396.386 258.504 392.001C262.473 387.617 258.476 371.23 257.695 364.552C256.914 357.874 261.061 354.422 261.061 354.422C261.061 354.422 274.167 332.34 279.089 326.242C284.011 320.144 275.52 322.103 275.52 322.103C275.52 322.103 267.659 322.841 263.985 322.603C260.318 322.484 255.951 315.091 254.06 313.205C252.169 311.319 247.829 308.056 246.861 303.987C245.893 299.917 244.124 296.253 244.124 296.253C243.719 295.453 239.717 291.932 238.962 287.495C237.265 277.571 241.523 285.089 241.523 285.089C241.523 285.089 243.106 287.702 248.393 291.023C253.688 294.462 257.343 307.33 260.135 312.227C262.926 317.124 262.574 317.146 270.34 316.768C278.113 316.507 287.964 304.429 291.003 302.11C294.041 299.792 292.81 297.156 291.337 294.417C289.864 291.678 287.198 292.439 281.958 291.712C276.726 291.102 274.557 284.867 269.667 282.228C264.777 279.59 269.142 279.547 272.456 279.689C275.769 279.832 276.235 281.573 278.008 283.466C279.789 285.476 282.45 286.487 287.592 285.686C292.742 285.003 296.279 286.783 297.552 288.236C298.825 289.69 302.434 290.757 302.434 290.757C302.434 290.757 311.25 290.194 312.383 291.302C313.517 292.41 313.132 295.621 318.929 295.841C324.727 296.061 328.276 307.283 328.276 307.283C328.276 307.283 330.853 321.754 335.008 323.967C343.074 328.291 340.047 312.314 340.204 309.235C340.362 306.156 348.76 300.899 351.726 299.293C352.982 298.622 353.479 297.174 353.507 295.756C353.564 294.808 352.723 292.737 353.384 291.987C353.941 291.479 356.3 291.446 357.013 291.519C358.556 291.656 361.302 290.301 362.218 293.547C363.133 296.793 367.628 300.637 367.628 300.637C369.004 301.848 370.694 302.448 372.48 302.688C374.023 302.825 375.859 302 377.322 302.732C379.396 303.78 378.358 307.86 378.353 309.63C378.473 311.511 378.123 313.422 378.486 315.405C378.856 317.506 380.262 319.187 380.867 321.273C381.31 322.661 381.628 323.939 381.836 325.342C381.836 325.342 387.481 337.964 394.217 336.236C398.749 335.12 390.259 327.872 386.625 324.564C382.991 321.255 382.53 317.744 383.826 314.002C385.121 310.26 388.353 314.657 393.61 317.508C398.868 320.359 396.794 319.311 400.578 313.876C404.369 308.558 400.335 302.678 398.959 301.468C397.583 300.258 391.725 293.55 397.93 290.911C404.018 288.279 410.1 287.419 413.479 286.731C416.858 286.043 416.273 282.421 421.404 274.067C426.536 265.713 420.483 255.949 417.869 251.985C415.137 248.029 414.532 245.943 417.796 241.603C421.059 237.264 424.941 244.452 424.941 244.452C424.941 244.452 428.851 250.221 433.928 255.798C439.006 261.376 439.553 253.315 440.256 251.381C440.951 249.33 437.737 247.057 435.801 244.466C433.865 241.875 435.593 237.515 435.966 235.957C436.338 234.399 444.656 229.737 447.293 228.506C449.929 227.275 452.457 222.51 452.994 212.444C453.531 202.377 456.58 213.159 456.58 213.159C456.58 213.159 458.368 235.588 458.513 239.71C458.658 243.832 459.006 245.58 454.154 249.077C449.302 252.574 448.67 251.906 446.003 252.666C443.337 253.427 442.457 254.427 442.635 260.908C442.813 267.388 445.762 263.659 446.017 262.108C446.272 260.557 447.162 256.015 450.593 256.15C454.025 256.285 459.184 252.06 462.208 249.506C465.231 246.953 463.415 240.695 463.065 237.058C462.714 233.422 462.429 234.502 465.588 234.064C468.747 233.627 467.557 233.467 467.839 230.498C468.121 227.529 466.688 227.266 463.742 227.337C460.796 227.407 461.203 224.548 461.203 224.548C461.203 224.548 460.867 210.052 459.944 206.688C459.028 203.442 454.599 198.767 446.055 199.904C437.511 201.04 449.808 188.451 453.652 183.956C457.379 179.469 461.556 182.035 461.556 182.035C461.556 182.035 466.525 184.078 473.316 185.06C480.106 186.043 476.594 180.956 477.192 177.377C477.79 173.798 480.818 175.021 486.584 178.429C492.349 181.838 482.448 189.434 481.29 191.633C480.132 193.831 483.541 199.161 487.348 205.173C491.155 211.185 490.079 203.582 490.392 201.084C490.587 198.593 490.209 196.374 492.557 194.336C494.906 192.297 493.285 189.096 492.962 184.041C492.639 178.986 496.21 179.466 501.735 179.113C507.268 178.878 507.845 176.835 509.086 175.929C510.326 175.024 509.501 173.188 517.662 171.604C525.83 170.138 507.323 150.193 505.815 148.755C504.307 147.317 480.291 150.15 474.399 150.29C468.506 150.431 468.501 146.654 467.236 145.319C465.97 143.983 452.762 146.007 450.286 146.048C447.81 146.088 444.893 141.081 442.762 140.981C440.631 140.881 439.944 143.049 437.948 145.065C435.952 147.081 435.667 142.615 435.311 140.749C434.956 138.883 433.626 138.378 431.23 137.823C428.833 137.268 429.232 143.498 429.249 145.621C429.267 147.745 410.296 148.249 406.645 148.364C402.993 148.479 401.562 144.558 400.587 140.371C399.611 136.184 396.135 140.891 396.135 140.891L387.231 141.932C387.231 141.932 372.154 142.424 368.195 143.267C364.354 144.102 367.887 138.447 369.845 135.844C371.796 133.122 361.799 129.984 360.556 129.001C359.313 128.018 351.52 129.815 349.836 129.332C348.271 128.842 346.93 126.331 346.512 127.184C346.095 128.037 345.665 130.543 343.984 131.949C342.303 133.354 340.628 132.989 338.299 133.492C335.971 133.995 337.449 134.963 329.425 135.003C321.41 135.161 321.395 140.474 319.114 143.57C316.716 146.674 312.469 146.709 310.478 146.955C308.495 147.318 309.455 151.269 308.673 153.798C307.89 156.326 303.768 150.924 302.312 150.309C300.849 149.576 301.612 154.131 301.612 154.131C301.612 154.131 302.366 167.774 301.868 169.222C301.371 170.671 296.153 159.201 295.98 156.497C295.925 153.786 293.316 148.051 292.778 147.023C292.365 146.106 291.287 147.709 289.894 149.922C288.501 152.136 289.712 156.308 289.547 159.269C289.383 162.23 287.639 160.807 283.055 161.1C278.47 161.393 277.745 162.974 275.977 164.857C274.209 166.741 267.243 166.714 263.247 166.969C259.25 167.224 257.394 169.585 253.893 172.052C250.392 174.518 251.107 170.931 248.553 167.908C245.874 164.774 245.397 170.234 244.254 172.668C243.111 175.101 235.895 169.307 232.431 166.813C228.967 164.32 227.096 166.446 225.333 166.559C223.569 166.671 221.616 167.504 219.54 164.568C217.464 161.632 212.549 162.3 207.147 160.875C201.745 159.45 200.347 163.434 194.832 165.793C189.317 168.152 188.117 171.533 188.117 171.533C188.117 171.533 188.117 171.533 187.967 174.73C187.817 177.926 184.163 181.701 181.89 184.915C179.617 188.129 174.93 188.664 172.434 190.24C169.938 191.816 172.235 200.049 172.57 203.451C172.898 206.735 178.155 204.038 181.681 203.813C185.09 203.595 183.397 206.654 183.017 208.095C182.85 209.168 181.071 209.045 180.764 209.773C180.654 209.898 180.669 210.133 180.809 210.478C181.354 211.624 182.707 212.481 183.488 213.612C185.954 217.113 187.344 213.011 187.344 213.011C187.344 213.011 190.468 208.327 193.224 203.429C195.665 199.142 190.525 196.284 193.216 192.217C195.474 188.768 198.342 185.634 201.248 183.088C206.275 178.635 207.256 181.051 208.934 183.305C210.613 185.558 201.654 189.435 199.451 195.596C197.248 201.756 205.809 197.196 203.671 202.526C199.492 214.714 198.224 217.037 193.582 218.278ZM264.401 157.335C266.13 158.523 267.968 159.585 269.917 160.523C270.527 160.838 273.336 162.311 272.51 160.476C271.957 159.213 270.817 157.987 269.926 156.982C268.145 154.971 268.29 153.545 268.11 150.724C267.93 147.903 273.422 145.191 273.422 145.191C292.202 134.313 274.445 140.877 271.646 141.41C268.957 141.818 266.276 142.343 264.896 142.904C263.515 143.464 260.582 147.428 259.256 150.7C258.846 151.67 259.156 152.831 259.569 153.749C259.967 154.431 260.475 154.989 261.21 155.414C262.313 156.052 263.534 156.682 264.401 157.335ZM270.257 389.362C268.804 390.635 269.389 394.257 269.67 400.494C269.782 402.257 272.812 414.575 275.473 410.038C275.465 409.92 278.984 404.03 278.899 400.849C278.806 397.55 281.299 394.086 282.215 391.785C283.13 389.484 282.354 386.582 279.813 381.906C277.272 377.229 275.204 385.505 275.204 385.505C274.581 386.843 271.71 388.089 270.257 389.362ZM387.294 346.12C389.06 347.896 390.834 349.789 392.6 351.565C393.482 352.453 394.365 353.341 395.248 354.228C396.249 355.109 397.484 355.974 398.03 357.119C398.575 358.265 398.563 359.918 399.563 360.798C400.439 361.569 401.732 361.486 402.782 361.301C407.359 360.89 411.958 360.833 416.66 360.532C443.697 358.805 423.123 358.231 421.933 358.071C420.742 357.911 418.311 358.656 415.973 357.153C413.634 355.65 403.555 356.766 403.555 356.766C403.555 356.766 400.036 357.109 400.318 354.141C400.6 351.172 399.205 351.497 394.265 344.377C389.325 337.257 389.89 342.414 382.379 335.694C374.868 328.974 379.683 335.984 381.274 338.715C382.865 341.446 386.271 344.887 386.271 344.887C386.537 345.343 386.919 345.79 387.294 346.12ZM426.156 346.588C425.784 348.146 425.874 349.557 427.675 350.032C431.026 350.762 430.371 349.742 433.527 347.415C434.092 347.025 435.788 345.855 435.618 345.039C435.455 344.341 433.927 344.439 433.317 344.124C432.699 343.691 432.074 343.141 431.368 343.186C430.42 343.129 429.48 343.189 428.547 343.367C427.379 343.559 426.814 343.949 426.521 344.912C426.316 345.398 426.236 345.993 426.156 346.588ZM415.604 345.846C416.662 345.778 417.838 345.703 418.865 345.165C419.783 344.753 420.318 343.892 420.986 343.259C422.212 342.119 422.372 340.928 422.532 339.738C423.034 336.519 422.581 333.125 422.378 329.951C422.018 324.309 421.263 325.419 420.172 323.128C419.619 321.865 415.72 323.649 414.157 325.047C412.594 326.445 413.677 328.619 413.665 330.272C413.8 332.388 411.707 332.876 410.364 334.024C408.683 335.429 407.127 336.945 405.572 338.461C403.569 340.359 405.687 342.113 406.748 343.933C407.013 344.388 407.403 344.954 407.896 345.276C408.764 345.929 409.829 345.979 410.777 346.036C410.895 346.029 410.895 346.029 411.012 346.021C412.548 346.041 414.076 345.944 415.604 345.846ZM432.87 318.658C433.805 320.369 435.093 322.057 436.257 323.635C436.904 324.538 438.295 325.983 439.41 324.968C440.864 323.695 440.383 321.719 440.286 320.191C440.06 316.664 440.082 311.47 438.514 309.091C436.828 306.72 433.917 305.49 432.003 303.252C430.48 301.578 429.32 301.889 427.136 295.418C424.834 288.956 425.948 297.147 425.858 301.284C425.768 305.42 429.74 308.471 429.74 308.471C432.639 311.355 431.116 315.229 432.87 318.658ZM463.75 349.379C465.168 349.407 466.491 349.794 467.507 350.91C468.772 352.245 469.23 353.868 470.268 355.336C470.924 356.357 471.954 357.707 473.46 357.257C474.84 356.697 476.161 355.196 477.434 356.649C479.215 358.66 479.978 357.667 479.978 357.667C480.425 357.284 483.927 354.818 485.78 356.116C496.54 363.808 491.793 357.856 488.996 354.73C486.2 351.604 479.309 347.205 476.183 344.454C473.056 341.703 467.226 344.672 463.905 344.412C460.583 344.152 461.454 341.146 459.563 339.26C457.672 337.375 450.754 339.941 449.056 339.223C447.357 338.506 446.512 338.206 446.369 335.972C446.347 335.62 445.454 332.726 444.698 333.836C444.376 334.329 444.693 335.607 444.731 336.195C444.791 337.135 444.851 338.076 445.029 339.009C445.524 341.219 447.227 340.166 450.279 341.742C453.323 343.2 454.568 346.071 455.314 348.502C455.912 350.47 458.373 350.195 460.239 349.84C461.407 349.647 462.575 349.454 463.75 349.379ZM485.318 435.698C484.722 435.618 483.539 435.575 483.349 436.295C483.159 437.016 484.505 437.756 484.542 438.344C484.602 439.284 484.555 442.238 487.391 442.293C490.11 442.355 490.475 440.679 490.89 437.938C490.978 437.46 490.948 436.99 490.682 436.535C490.292 435.97 489.462 435.905 488.874 435.942C488.279 435.862 487.691 435.9 486.978 435.827C486.383 435.748 485.913 435.778 485.318 435.698ZM449.033 370.267C445.881 370.822 443.07 373.008 440.464 374.709C438.761 375.762 436.955 377.058 436.26 379.109C435.66 380.8 435.958 383.613 435.835 385.392C435.618 387.53 429.973 386.002 427.88 386.49C425.786 386.978 426.627 389.049 425.966 389.799C425.189 390.557 422.197 389.922 419.759 390.55C416.858 391.325 418.599 396.408 418.491 398.421C418.384 400.434 417.806 402.478 417.464 404.506C416.764 408.328 418.975 407.832 420.916 408.653C422.856 409.473 421.439 414.993 421.979 417.909C422.505 420.59 426.196 422.951 428.49 423.749C430.063 424.356 431.921 423.883 433.567 423.778C435.448 423.658 437.336 423.656 439.069 423.073C440.803 422.49 442.005 420.997 443.466 419.841C445.704 417.928 448.238 416.939 451.192 416.987C454.263 417.027 457.224 417.191 460.288 417.114C461.934 417.009 464.717 416.241 465.323 418.326C465.773 419.832 465.643 421.493 466.093 422.998C467.009 426.245 469.167 424.926 471.871 424.754C474.575 424.581 474.827 426.689 475.66 428.643C477.054 431.977 479.507 431.584 482.564 431.388C484.68 431.253 486.795 431.118 488.904 430.865C492.525 430.28 494.526 426.493 494.526 426.493C494.526 426.493 498.82 417.956 500.96 414.515C503.101 411.073 503.568 403.608 503.2 397.848C502.832 392.088 494.321 384.487 494.321 384.487C494.321 384.487 482.775 371.888 480.766 370.01C478.758 368.131 479.776 365.588 478.928 363.399C478.197 361.203 476.667 364.96 474.706 365.676C472.745 366.391 474.314 374.317 474.389 375.492C474.464 376.668 471.98 376.59 470.582 375.027C469.184 373.464 468.384 373.87 466.435 372.932C464.487 371.994 463.184 370.071 462.746 366.912C462.425 363.746 459.202 365.014 455.433 365.137C451.663 365.259 453.267 366.337 452.689 368.381C452.302 369.704 450.898 369.911 449.73 370.104C449.378 370.127 449.15 370.259 449.033 370.267ZM534.892 441.264L534.782 441.389C533.586 443 530.038 448.42 532.411 448.622C534.667 448.832 537.571 449.945 538.884 448.327C540.182 446.474 539.622 445.093 543.748 443.177C545.812 442.219 547.162 435.641 547.162 435.641C547.162 435.641 546.306 433.335 544.806 432.015C543.562 431.032 540.997 435.209 540.006 436.334C538.348 438.093 536.315 439.521 534.892 441.264ZM553.051 428.065C553.716 425.544 555.57 426.842 555.457 425.078C555.344 423.315 549.969 420.472 548.109 419.056C544.394 416.343 548.084 422.363 547.366 424.061C546.428 426.009 546.311 426.017 547.276 428.198C547.549 428.77 548.317 431.554 548.92 431.752C552.404 432.709 552.394 430.703 553.051 428.065Z" stroke="#475566" stroke-opacity="0.3" stroke-width="2" mask="url(#path-2-inside-1_405_5199)"/>
<mask id="path-3-inside-2_405_5199" fill="white">
<path d="M22.1711 323.065C25.3025 324.045 18.7422 324.818 17.6843 324.886C16.5088 324.961 14.8931 325.536 14.2227 324.281C14.2152 324.163 14.0526 323.465 14.0075 322.76C13.9099 321.232 12.8794 319.882 15.8782 320.634C18.1642 321.314 20.3628 322.472 22.1711 323.065ZM547.404 419.101C543.689 416.388 547.379 422.408 546.661 424.106C545.723 426.054 545.606 426.062 546.572 428.243C546.844 428.816 547.612 431.599 548.215 431.797C551.582 432.762 551.681 430.631 552.346 428.11C553.012 425.589 554.865 426.887 554.752 425.123C554.64 423.36 549.382 420.509 547.404 419.101ZM-143.334 300.474C-143.334 300.474 -139.812 313.114 -136.676 312.323C-130.168 310.727 -135.375 306.811 -141.571 300.361C-142.079 299.803 -144.227 297.58 -143.334 300.474ZM116.755 185.182C115.345 185.272 113.904 184.892 112.391 185.224C111.113 185.542 111.681 187.04 111.976 187.966C112.411 189.236 112.714 190.279 112.914 191.565C112.937 191.917 112.967 192.387 112.989 192.74C113.049 193.681 113.162 195.444 114.455 195.361C116.336 195.241 118.209 195.003 120.082 194.766C121.015 194.588 122.103 194.99 122.771 194.358C124.342 193.077 124.949 191.504 127.16 191.008C128.093 190.831 130.709 191.136 130.737 189.718C130.699 189.13 129.618 183.297 128.633 182.652C126.419 181.259 120.642 185.051 116.755 185.182ZM143.68 229.729C146.953 227.395 149.122 222.536 149.122 222.536C149.122 222.536 149.234 213.204 145.28 217.824C145.28 217.824 140.795 221.533 140.851 224.244C141.031 227.066 140.414 232.18 143.68 229.729ZM260.615 155.334C261.608 156.097 262.829 156.727 263.697 157.38C265.425 158.568 267.263 159.631 269.212 160.568C269.822 160.883 272.631 162.356 271.805 160.521C271.253 159.258 270.112 158.032 269.222 157.027C267.441 155.016 267.586 153.59 267.405 150.769C267.225 147.948 272.717 145.237 272.717 145.237C291.497 134.358 273.74 140.922 270.941 141.455C268.253 141.863 265.571 142.388 264.191 142.949C262.81 143.509 259.877 147.473 258.552 150.745C258.141 151.715 258.452 152.876 258.864 153.794C259.365 154.234 259.99 154.784 260.615 155.334ZM150.352 214.077C151.22 214.73 152.095 215.5 152.625 216.41C153.296 217.666 153.628 219.179 154.071 220.567C154.824 223.115 153.439 225.447 152.148 227.417C150.96 229.146 149.332 231.374 151.788 232.87C155.097 234.783 158.889 229.465 161.81 227.154C164.056 225.358 162.692 222.495 161.162 220.704C159.233 218.231 156.975 216.132 155.729 213.261C154.608 210.5 152.482 208.629 150.569 206.391C149.17 204.828 147.452 205.646 146.942 208.747C146.52 211.371 148.491 212.661 150.352 214.077ZM-13.047 316.817C-19.2145 320.044 -7.44442 319.528 -7.44442 319.528C-5.07841 319.613 -2.71237 319.697 -0.441368 320.143C0.278957 320.333 0.991771 320.405 1.60206 320.72C2.58001 321.248 3.35291 322.261 4.43339 322.546C5.88155 323.043 8.61262 321.452 10.0007 321.01C15.9056 319.216 -0.411683 315.065 -3.27796 314.54C-6.14422 314.015 -6.87957 313.59 -13.047 316.817ZM425.809 344.84C425.611 345.443 425.531 346.038 425.326 346.523C424.954 348.081 425.044 349.492 426.845 349.967C430.196 350.697 429.541 349.677 432.697 347.351C433.262 346.96 434.958 345.79 434.788 344.974C434.625 344.277 433.097 344.374 432.487 344.059C431.869 343.626 431.244 343.076 430.538 343.121C429.591 343.064 428.65 343.124 427.717 343.302C426.659 343.369 426.094 343.759 425.809 344.84ZM539.184 436.387C537.643 438.138 535.603 439.448 534.18 441.192L534.07 441.317C532.874 442.928 529.325 448.348 531.699 448.55C533.955 448.76 536.859 449.873 538.172 448.255C539.47 446.401 538.909 445.021 543.036 443.105C545.099 442.146 546.449 435.569 546.449 435.569C546.449 435.569 545.594 433.263 544.093 431.942C542.623 431.092 540.064 435.386 539.184 436.387ZM449.692 341.78C452.735 343.237 453.981 346.109 454.727 348.54C455.325 350.508 457.786 350.233 459.651 349.877C460.819 349.685 461.98 349.374 463.045 349.424C464.463 349.452 465.786 349.839 466.802 350.955C468.068 352.29 468.525 353.913 469.564 355.382C470.219 356.402 471.249 357.752 472.755 357.302C474.136 356.742 475.456 355.241 476.729 356.694C478.51 358.705 479.273 357.712 479.273 357.712C479.721 357.329 483.222 354.863 485.075 356.161C495.835 363.853 491.088 357.901 488.292 354.775C485.495 351.649 478.604 347.25 475.478 344.499C472.351 341.748 466.522 344.717 463.2 344.457C459.879 344.197 460.749 341.191 458.858 339.305C456.967 337.42 450.049 339.986 448.351 339.269C446.653 338.551 445.807 338.251 445.664 336.017C445.642 335.665 444.749 332.771 443.994 333.881C443.671 334.374 443.989 335.652 444.026 336.24C444.086 337.18 444.146 338.121 444.324 339.054C444.937 341.257 446.64 340.204 449.692 341.78ZM379.317 309.923C378.846 309.953 378.259 309.991 377.788 310.021C377.796 310.138 377.796 310.138 377.804 310.256C377.924 312.136 377.574 314.047 377.936 316.031C378.307 318.132 379.712 319.812 380.318 321.898C380.761 323.286 381.078 324.564 381.286 325.967C381.286 325.967 386.932 338.59 393.667 336.861C398.199 335.745 389.71 328.498 386.076 325.189C382.441 321.88 381.981 318.369 383.276 314.627C384.571 310.885 387.803 315.282 393.061 318.133C398.318 320.984 396.245 319.936 400.028 314.501C403.057 310.176 401.111 305.58 399.432 303.326C393.17 306.913 386.362 309.355 379.317 309.923ZM437.802 309.019C436.116 306.648 433.205 305.417 431.291 303.179C429.768 301.506 428.607 301.816 426.423 295.346C424.122 288.883 425.236 297.074 425.146 301.211C425.056 305.348 429.028 308.399 429.028 308.399C431.934 311.4 430.412 315.274 432.283 318.696C433.218 320.406 434.506 322.095 435.669 323.673C436.317 324.575 437.708 326.021 438.823 325.005C440.276 323.732 439.796 321.757 439.698 320.228C439.458 316.467 439.363 311.28 437.802 309.019ZM409.651 333.951C407.971 335.357 406.415 336.873 404.86 338.389C402.856 340.287 404.975 342.04 406.035 343.861C406.301 344.316 406.691 344.881 407.183 345.204C408.051 345.857 409.117 345.906 410.065 345.964C410.182 345.956 410.182 345.956 410.3 345.949C411.836 345.969 413.364 345.871 414.892 345.774C415.95 345.706 417.125 345.631 418.153 345.093C419.071 344.68 419.606 343.82 420.274 343.187C421.499 342.046 421.659 340.856 421.819 339.665C422.322 336.447 421.869 333.053 421.666 329.879C421.306 324.236 420.55 325.347 419.46 323.056C418.907 321.793 415.008 323.576 413.445 324.975C411.882 326.373 412.965 328.546 412.952 330.199C413.088 332.315 410.994 332.803 409.651 333.951ZM421.228 358.116C420.045 358.073 417.606 358.701 415.268 357.198C412.929 355.695 402.85 356.812 402.85 356.812C402.85 356.812 399.331 357.154 399.613 354.186C399.896 351.217 398.5 351.542 393.56 344.422C388.62 337.302 389.186 342.459 381.674 335.739C374.163 329.019 378.978 336.029 380.569 338.76C382.16 341.491 385.567 344.933 385.567 344.933C385.949 345.38 386.325 345.71 386.707 346.158C388.473 347.934 390.246 349.827 392.012 351.603C392.895 352.49 393.778 353.378 394.661 354.266C395.662 355.146 396.897 356.012 397.443 357.157C397.988 358.303 397.975 359.956 398.976 360.836C399.851 361.606 401.144 361.524 402.195 361.339C406.772 360.928 411.371 360.87 416.073 360.57C442.867 358.74 422.411 358.158 421.228 358.116ZM274.366 385.322C273.876 386.888 270.998 388.016 269.545 389.289C268.092 390.563 268.677 394.184 268.958 400.422C269.07 402.185 272.1 414.503 274.761 409.965C274.753 409.848 278.272 403.958 278.187 400.776C278.094 397.477 280.587 394.013 281.502 391.712C282.418 389.411 281.642 386.51 279.101 381.833C276.559 377.156 274.366 385.322 274.366 385.322Z"/>
</mask>
<path d="M22.1711 323.065C25.3025 324.045 18.7422 324.818 17.6843 324.886C16.5088 324.961 14.8931 325.536 14.2227 324.281C14.2152 324.163 14.0526 323.465 14.0075 322.76C13.9099 321.232 12.8794 319.882 15.8782 320.634C18.1642 321.314 20.3628 322.472 22.1711 323.065ZM547.404 419.101C543.689 416.388 547.379 422.408 546.661 424.106C545.723 426.054 545.606 426.062 546.572 428.243C546.844 428.816 547.612 431.599 548.215 431.797C551.582 432.762 551.681 430.631 552.346 428.11C553.012 425.589 554.865 426.887 554.752 425.123C554.64 423.36 549.382 420.509 547.404 419.101ZM-143.334 300.474C-143.334 300.474 -139.812 313.114 -136.676 312.323C-130.168 310.727 -135.375 306.811 -141.571 300.361C-142.079 299.803 -144.227 297.58 -143.334 300.474ZM116.755 185.182C115.345 185.272 113.904 184.892 112.391 185.224C111.113 185.542 111.681 187.04 111.976 187.966C112.411 189.236 112.714 190.279 112.914 191.565C112.937 191.917 112.967 192.387 112.989 192.74C113.049 193.681 113.162 195.444 114.455 195.361C116.336 195.241 118.209 195.003 120.082 194.766C121.015 194.588 122.103 194.99 122.771 194.358C124.342 193.077 124.949 191.504 127.16 191.008C128.093 190.831 130.709 191.136 130.737 189.718C130.699 189.13 129.618 183.297 128.633 182.652C126.419 181.259 120.642 185.051 116.755 185.182ZM143.68 229.729C146.953 227.395 149.122 222.536 149.122 222.536C149.122 222.536 149.234 213.204 145.28 217.824C145.28 217.824 140.795 221.533 140.851 224.244C141.031 227.066 140.414 232.18 143.68 229.729ZM260.615 155.334C261.608 156.097 262.829 156.727 263.697 157.38C265.425 158.568 267.263 159.631 269.212 160.568C269.822 160.883 272.631 162.356 271.805 160.521C271.253 159.258 270.112 158.032 269.222 157.027C267.441 155.016 267.586 153.59 267.405 150.769C267.225 147.948 272.717 145.237 272.717 145.237C291.497 134.358 273.74 140.922 270.941 141.455C268.253 141.863 265.571 142.388 264.191 142.949C262.81 143.509 259.877 147.473 258.552 150.745C258.141 151.715 258.452 152.876 258.864 153.794C259.365 154.234 259.99 154.784 260.615 155.334ZM150.352 214.077C151.22 214.73 152.095 215.5 152.625 216.41C153.296 217.666 153.628 219.179 154.071 220.567C154.824 223.115 153.439 225.447 152.148 227.417C150.96 229.146 149.332 231.374 151.788 232.87C155.097 234.783 158.889 229.465 161.81 227.154C164.056 225.358 162.692 222.495 161.162 220.704C159.233 218.231 156.975 216.132 155.729 213.261C154.608 210.5 152.482 208.629 150.569 206.391C149.17 204.828 147.452 205.646 146.942 208.747C146.52 211.371 148.491 212.661 150.352 214.077ZM-13.047 316.817C-19.2145 320.044 -7.44442 319.528 -7.44442 319.528C-5.07841 319.613 -2.71237 319.697 -0.441368 320.143C0.278957 320.333 0.991771 320.405 1.60206 320.72C2.58001 321.248 3.35291 322.261 4.43339 322.546C5.88155 323.043 8.61262 321.452 10.0007 321.01C15.9056 319.216 -0.411683 315.065 -3.27796 314.54C-6.14422 314.015 -6.87957 313.59 -13.047 316.817ZM425.809 344.84C425.611 345.443 425.531 346.038 425.326 346.523C424.954 348.081 425.044 349.492 426.845 349.967C430.196 350.697 429.541 349.677 432.697 347.351C433.262 346.96 434.958 345.79 434.788 344.974C434.625 344.277 433.097 344.374 432.487 344.059C431.869 343.626 431.244 343.076 430.538 343.121C429.591 343.064 428.65 343.124 427.717 343.302C426.659 343.369 426.094 343.759 425.809 344.84ZM539.184 436.387C537.643 438.138 535.603 439.448 534.18 441.192L534.07 441.317C532.874 442.928 529.325 448.348 531.699 448.55C533.955 448.76 536.859 449.873 538.172 448.255C539.47 446.401 538.909 445.021 543.036 443.105C545.099 442.146 546.449 435.569 546.449 435.569C546.449 435.569 545.594 433.263 544.093 431.942C542.623 431.092 540.064 435.386 539.184 436.387ZM449.692 341.78C452.735 343.237 453.981 346.109 454.727 348.54C455.325 350.508 457.786 350.233 459.651 349.877C460.819 349.685 461.98 349.374 463.045 349.424C464.463 349.452 465.786 349.839 466.802 350.955C468.068 352.29 468.525 353.913 469.564 355.382C470.219 356.402 471.249 357.752 472.755 357.302C474.136 356.742 475.456 355.241 476.729 356.694C478.51 358.705 479.273 357.712 479.273 357.712C479.721 357.329 483.222 354.863 485.075 356.161C495.835 363.853 491.088 357.901 488.292 354.775C485.495 351.649 478.604 347.25 475.478 344.499C472.351 341.748 466.522 344.717 463.2 344.457C459.879 344.197 460.749 341.191 458.858 339.305C456.967 337.42 450.049 339.986 448.351 339.269C446.653 338.551 445.807 338.251 445.664 336.017C445.642 335.665 444.749 332.771 443.994 333.881C443.671 334.374 443.989 335.652 444.026 336.24C444.086 337.18 444.146 338.121 444.324 339.054C444.937 341.257 446.64 340.204 449.692 341.78ZM379.317 309.923C378.846 309.953 378.259 309.991 377.788 310.021C377.796 310.138 377.796 310.138 377.804 310.256C377.924 312.136 377.574 314.047 377.936 316.031C378.307 318.132 379.712 319.812 380.318 321.898C380.761 323.286 381.078 324.564 381.286 325.967C381.286 325.967 386.932 338.59 393.667 336.861C398.199 335.745 389.71 328.498 386.076 325.189C382.441 321.88 381.981 318.369 383.276 314.627C384.571 310.885 387.803 315.282 393.061 318.133C398.318 320.984 396.245 319.936 400.028 314.501C403.057 310.176 401.111 305.58 399.432 303.326C393.17 306.913 386.362 309.355 379.317 309.923ZM437.802 309.019C436.116 306.648 433.205 305.417 431.291 303.179C429.768 301.506 428.607 301.816 426.423 295.346C424.122 288.883 425.236 297.074 425.146 301.211C425.056 305.348 429.028 308.399 429.028 308.399C431.934 311.4 430.412 315.274 432.283 318.696C433.218 320.406 434.506 322.095 435.669 323.673C436.317 324.575 437.708 326.021 438.823 325.005C440.276 323.732 439.796 321.757 439.698 320.228C439.458 316.467 439.363 311.28 437.802 309.019ZM409.651 333.951C407.971 335.357 406.415 336.873 404.86 338.389C402.856 340.287 404.975 342.04 406.035 343.861C406.301 344.316 406.691 344.881 407.183 345.204C408.051 345.857 409.117 345.906 410.065 345.964C410.182 345.956 410.182 345.956 410.3 345.949C411.836 345.969 413.364 345.871 414.892 345.774C415.95 345.706 417.125 345.631 418.153 345.093C419.071 344.68 419.606 343.82 420.274 343.187C421.499 342.046 421.659 340.856 421.819 339.665C422.322 336.447 421.869 333.053 421.666 329.879C421.306 324.236 420.55 325.347 419.46 323.056C418.907 321.793 415.008 323.576 413.445 324.975C411.882 326.373 412.965 328.546 412.952 330.199C413.088 332.315 410.994 332.803 409.651 333.951ZM421.228 358.116C420.045 358.073 417.606 358.701 415.268 357.198C412.929 355.695 402.85 356.812 402.85 356.812C402.85 356.812 399.331 357.154 399.613 354.186C399.896 351.217 398.5 351.542 393.56 344.422C388.62 337.302 389.186 342.459 381.674 335.739C374.163 329.019 378.978 336.029 380.569 338.76C382.16 341.491 385.567 344.933 385.567 344.933C385.949 345.38 386.325 345.71 386.707 346.158C388.473 347.934 390.246 349.827 392.012 351.603C392.895 352.49 393.778 353.378 394.661 354.266C395.662 355.146 396.897 356.012 397.443 357.157C397.988 358.303 397.975 359.956 398.976 360.836C399.851 361.606 401.144 361.524 402.195 361.339C406.772 360.928 411.371 360.87 416.073 360.57C442.867 358.74 422.411 358.158 421.228 358.116ZM274.366 385.322C273.876 386.888 270.998 388.016 269.545 389.289C268.092 390.563 268.677 394.184 268.958 400.422C269.07 402.185 272.1 414.503 274.761 409.965C274.753 409.848 278.272 403.958 278.187 400.776C278.094 397.477 280.587 394.013 281.502 391.712C282.418 389.411 281.642 386.51 279.101 381.833C276.559 377.156 274.366 385.322 274.366 385.322Z" stroke="#475566" stroke-opacity="0.5" stroke-width="2" mask="url(#path-3-inside-2_405_5199)"/>
</g>
<defs>
<clipPath id="clip0_405_5199">
<rect width="754" height="436" fill="white" transform="translate(0 106.88) rotate(-8.14916)"/>
</clipPath>
</defs>
</svg>
