<svg width="831" height="572" viewBox="0 0 831 572" fill="none" xmlns="http://www.w3.org/2000/svg">
<path d="M150.474 341.639C150.496 341.543 150.577 341.41 150.54 341.351L147.69 321.966L149.497 322.887C151.245 323.845 153.177 324.442 155.138 324.693L159.203 331.586C159.239 331.645 159.276 331.704 159.372 331.726L161.009 332.508C161.142 332.589 161.297 332.574 161.474 332.463C161.592 332.39 161.636 332.198 161.621 332.043L158.936 324.861L161.428 324.78C161.93 324.794 162.438 324.558 162.682 324.16C162.903 323.858 163.087 323.496 163.116 323.15L169.561 321.91C169.716 321.895 169.856 321.725 169.841 321.57C169.922 321.438 169.811 321.261 169.679 321.179L165.254 318.695C165.217 318.636 165.158 318.673 165.062 318.651L158.861 318.181L160.386 314.847C160.489 314.619 160.379 314.442 160.209 314.302L158.801 313.624C158.668 313.542 158.513 313.557 158.395 313.631L154.642 316.552C152.533 315.409 149.967 314.06 147.268 312.631L149.278 300.625C149.263 300.471 149.249 300.316 149.116 300.235C148.076 299.49 146.66 299.719 145.879 300.7L142.871 304.55L139.899 303.208C139.575 303.083 139.11 303.127 138.66 303.326C138.306 303.548 137.967 303.924 137.665 304.359C137.459 304.816 137.289 305.332 137.334 305.797C137.326 306.048 137.415 306.321 137.525 306.497C137.636 306.674 137.806 306.815 137.938 306.896L140.284 307.891L139.701 308.665C136.773 307.132 134.207 305.783 132.592 304.906C130.785 303.984 128.713 303.557 126.796 303.771C126.117 303.867 125.439 303.963 124.834 304.177C124.016 304.443 123.419 305.063 123.279 305.888C123.087 306.501 123.205 307.083 123.537 307.614C123.648 307.791 123.759 307.968 123.928 308.108C125.057 309.125 126.303 310.069 127.476 310.894C128.744 311.742 130.013 312.59 131.325 313.246L138.604 317.145L140.958 323.14L139.645 322.484C139.284 322.299 138.819 322.344 138.406 322.602C138.052 322.823 137.713 323.199 137.411 323.634C136.984 324.394 136.998 325.205 137.33 325.736C137.441 325.913 137.611 326.053 137.743 326.134L143.024 328.412L147.583 340.165C147.657 340.283 147.709 340.496 147.782 340.614C148.262 341.381 149.154 341.89 150.12 341.86C150.334 341.808 150.452 341.735 150.474 341.639ZM160.5 331.431L159.815 331.122L154.924 322.775C155.706 323.107 156.886 323.682 157.911 324.272L160.5 331.431ZM164.981 319.44L168.381 321.335L161.723 322.626L154.871 318.624L164.981 319.44ZM159.575 314.862L158.108 318.159L157.415 318.1C156.825 317.812 156.162 317.407 155.439 317.038L158.757 314.472L159.575 314.862ZM138.44 306.254C138.27 306.114 138.196 305.996 138.145 305.782C138.115 305.472 138.24 305.148 138.366 304.823C138.55 304.462 138.808 304.219 139.044 304.071C139.221 303.961 139.435 303.909 139.567 303.99C139.604 304.049 139.663 304.012 139.7 304.071C139.737 304.13 139.811 304.248 139.826 304.403C139.855 304.713 139.73 305.037 139.605 305.361C139.199 306.025 138.727 306.32 138.44 306.254ZM139.45 306.689C139.745 306.504 140.025 306.165 140.209 305.804C140.416 305.347 140.526 304.867 140.519 304.462L142.348 305.287L140.822 307.308L139.45 306.689ZM146.52 301.201C146.963 300.596 147.818 300.39 148.482 300.795L146.545 312.262C144.473 311.178 142.4 310.095 140.424 309.034L146.52 301.201ZM123.943 306.294C123.965 306.198 123.928 306.139 123.987 306.102C124.119 305.527 124.459 305.151 125.004 304.974C125.196 305.018 125.27 305.136 125.343 305.254C125.602 305.667 125.491 306.146 125.078 306.404C124.724 306.626 124.223 306.611 123.943 306.294ZM131.731 312.582C130.418 311.926 129.15 311.078 127.918 310.29C126.745 309.464 125.499 308.52 124.407 307.562C124.371 307.503 124.238 307.422 124.201 307.363C124.584 307.451 125.012 307.348 125.425 307.09C126.192 306.611 126.472 305.615 125.992 304.848C125.955 304.789 125.955 304.789 125.919 304.73C126.287 304.664 126.597 304.634 126.907 304.605C126.966 304.568 127.002 304.627 127.061 304.59C126.87 305.202 127.076 306.057 127.703 307.06C127.851 307.296 128.035 307.591 128.279 307.849C128.389 308.026 128.64 308.033 128.817 307.923C128.994 307.812 129.001 307.561 128.891 307.384C127.681 305.843 127.703 305.091 127.769 304.804C127.85 304.671 127.932 304.538 128.027 304.56C129.495 304.545 130.911 304.973 132.319 305.651C136.958 308.083 149.008 314.496 155.432 317.945L153.256 317.747C153.065 317.703 152.925 317.872 152.843 318.005C152.821 318.101 152.836 318.256 152.873 318.315C152.91 318.374 152.947 318.433 153.043 318.455L161.509 323.334C161.605 323.356 161.701 323.379 161.796 323.401L162.379 323.283C162.357 323.378 162.276 323.511 162.195 323.644C161.996 323.85 161.76 323.998 161.509 323.991L158.766 324.065L158.751 323.91C158.714 323.851 158.641 323.733 158.604 323.674C158.073 323.35 155.263 321.743 154.238 321.81C154.083 321.824 153.965 321.898 153.943 321.994C153.862 322.127 153.877 322.282 153.95 322.4L154.777 323.852C153.125 323.572 151.539 323.005 150.057 322.209L147.719 320.963L147.69 320.653C147.712 320.557 147.638 320.439 147.542 320.417C147.336 320.218 142.608 316.2 138.81 315.375C138.714 315.353 138.501 315.405 138.42 315.538C138.338 315.67 138.316 315.766 138.331 315.921L138.368 315.98L131.731 312.582ZM138.186 325.529C137.824 325.345 137.824 324.689 138.171 324.062C138.355 323.701 138.613 323.457 138.849 323.31C139.026 323.199 139.24 323.147 139.372 323.228C139.409 323.287 139.468 323.251 139.505 323.31C139.653 323.545 139.675 324.106 139.351 324.637C139.004 325.264 138.473 325.596 138.186 325.529ZM139.255 325.927C139.55 325.743 139.83 325.404 140.014 325.042C140.221 324.585 140.331 324.106 140.324 323.7L141.408 324.253L142.684 327.475L139.255 325.927ZM148.365 339.84L139.223 316.43C142.38 317.41 146.075 320.432 146.753 320.993L149.7 341.056C149.088 340.865 148.579 340.445 148.365 339.84Z" fill="#475566" fill-opacity="0.6"/>
<mask id="path-2-inside-1_405_5203" fill="white">
<path d="M182.483 120.656C180.975 119.677 179.464 118.816 177.706 118.421C175.359 118.011 172.645 118.182 170.436 116.95C168.925 116.089 165.965 111.777 169.725 112.22C172.31 112.518 177.376 112.522 179.19 110.562C183.786 105.606 189.501 117.878 194.596 116.704C197.321 116.063 197.995 112.544 200.781 114.26C202.522 115.363 204.367 117.056 205.623 118.736C207.45 121.136 206.124 122.401 203.404 122.807C200.923 123.101 198.456 122.806 195.865 122.744C193.51 122.687 191.149 122.866 188.788 123.046C186.428 123.225 184.457 121.881 182.483 120.656ZM209.94 105.761C209.94 105.761 211.105 111.209 212.972 111.96C214.722 112.709 215.641 113.674 216.878 111.229C218.112 108.902 215.429 107.778 213.472 105.846C211.515 103.914 208.446 99.2449 209.94 105.761ZM200.582 137.349C197.206 135.619 198.908 133.421 197.824 129.507C196.739 125.593 194.173 129.419 190.671 132.988C187.169 136.557 183.915 129.763 182.191 127.954C180.467 126.145 182.124 125.831 173.076 124.79C164.149 123.634 164.861 123.415 160.748 127.911C156.634 132.408 164.081 131.408 169.248 132.121C174.415 132.834 174.459 135.899 173.912 139.067C173.365 142.235 163.864 140.475 154.939 139.201C146.015 137.927 146.792 139.949 142.151 141.84C137.511 143.732 127.982 138.202 124.009 136.811C120.036 135.419 92.6775 136.413 88.6738 136.318C84.6701 136.222 82.3594 139.23 79.2639 140.569C76.1683 141.909 77.3311 147.475 77.1512 150.063C76.9714 152.65 71.14 150.154 68.0784 150.081C65.0167 150.007 65.7987 151.794 65.5096 154.025C65.2205 156.257 66.5101 156.524 70.1662 156.375C73.8223 156.227 75.339 156.853 75.3975 159.329C75.456 161.804 70.6591 160.393 67.7152 160.323C64.7713 160.252 65.8247 165.462 66.3091 169.833C66.7935 174.204 69.6366 173.565 71.2569 174.782C72.8773 175.999 75.1929 177.704 61.1567 183.259C47.1204 188.814 60.6066 186.545 62.9843 185.659C65.362 184.774 75.8007 181.843 78.8624 181.916C81.924 181.989 86.7189 178.569 90.6839 175.365C94.6488 172.161 106.741 173.983 115.452 174.309C124.163 174.636 131.243 193.893 135.411 196.938C139.58 199.984 139.478 223.9 139.191 230.962C138.904 238.025 143.97 242.977 146.271 245.271C148.573 247.564 154.035 260.538 160.188 269.286C166.338 278.153 163.657 267.131 161.891 262.14C160.128 257.031 163.669 261.711 163.669 261.711C163.669 261.711 174.663 274.935 176.757 280.995C178.85 287.054 188.385 292.349 194.85 292.975C201.315 293.601 201.155 295.364 201.155 295.364C201.155 295.364 200.743 297.829 208.492 298.957C216.124 300.083 214.684 306.057 217.807 308.488C220.93 310.92 225.817 313.511 230.174 313.615C234.531 313.72 233.011 313.212 233.757 316.529C234.502 319.846 231.333 324.247 229.039 326.549C226.745 328.85 226.38 334.261 226.228 340.62C226.076 346.979 228.517 348.334 228.517 348.334C228.517 348.334 241.417 370.558 244.548 372.636C247.68 374.714 247.107 378.942 247.107 378.942C247.107 378.942 246.334 411.207 246.157 413.677C245.98 416.147 245.745 416.142 243.554 419.035C241.364 421.928 241.562 428.413 241.562 428.413C241.562 428.413 240.524 457.019 240.473 459.139C240.422 461.258 243.654 464.046 254.232 470.072C264.809 476.099 257.243 467.317 256.114 465.287C254.984 463.257 255.933 458.095 256.026 454.209C256.119 450.323 259.464 448.4 260.816 446.076C262.168 443.752 261.032 441.958 261.131 437.836C261.23 433.715 265.873 431.705 265.873 431.705C265.873 431.705 291.688 406.638 293.746 404.331C295.804 402.024 296.268 397.44 296.094 394.844C295.921 392.247 303.873 384.897 308.306 381.822C312.74 378.747 316.369 369.879 316.652 367.883C316.936 365.887 317.164 361.297 320.161 359.13C323.159 356.964 323.157 352.133 324.455 347.098C325.754 342.062 316.348 341.248 310.783 337.462C305.218 333.676 296.294 332.402 295.588 332.385C294.881 332.368 290.866 332.743 291.172 329.805C291.478 326.867 289.127 321.744 287.773 319.237C286.419 316.73 284.179 316.794 281.47 316.73C278.762 316.665 270.702 308.813 267.226 306.373C263.75 303.934 256.522 305.646 251.843 304.237C247.163 302.829 249.518 302.886 245.307 301.606C241.096 300.327 238.954 306.167 236.938 306.708C234.922 307.249 228.451 306.858 226.104 306.448C223.757 306.039 222.09 301.875 221.591 298.093C221.093 294.31 219.837 292.631 216.7 290.788C213.563 288.946 213.188 284.931 213.609 282.113C214.03 279.295 212.033 279.012 209.681 278.838C207.329 278.664 207.424 279.608 206.787 281.596C206.15 283.584 204.244 284.481 199.2 283.535C194.159 282.472 192.183 276.416 191.71 271.573C191.237 266.731 191.42 264.026 194.785 261.279C198.15 258.531 199.055 260.085 203.513 260.899C207.971 261.712 211.091 259.313 214.109 256.322C217.126 253.331 220.534 258.596 220.534 258.596C220.534 258.596 220.534 258.596 225.182 266.249C229.829 273.901 229.424 266.232 228.421 258.903C227.419 251.574 250.466 228.915 253.96 225.7C257.454 222.484 257.067 223.889 262.966 223.559C268.865 223.229 271.246 217.277 274.72 214.886C278.194 212.495 270.302 212.424 266.814 210.455C263.327 208.486 269.226 208.156 271.371 207.147C273.516 206.138 278.005 205.657 283.884 206.151C289.763 206.645 275.658 185.57 273.242 183.156C270.825 180.742 271.616 177.226 270.521 173.783C269.425 170.34 265.286 175.896 262.254 179.476C259.223 183.056 259.428 179.408 259.953 177.182C260.478 174.956 258.179 172.544 257.192 169.457C256.206 166.37 248.647 167.132 245.941 166.949C243.236 166.767 243.701 167.013 242.767 171.586C241.833 176.159 243.057 179.134 243.78 183.393C244.503 187.652 239.654 193.309 236.875 196.188C234.097 199.067 233.475 195.517 233.427 192.571C233.38 189.624 231.956 190.061 228.67 189.511C225.384 188.961 225.151 188.838 223.929 185.745C222.707 182.652 218.413 179.957 214.297 179.623C210.181 179.289 211.648 172.137 211.842 168.96C212.039 165.666 218.165 165.695 220.181 165.154C222.197 164.613 225.545 162.572 228.752 166.42C231.962 170.149 235.228 166.575 235.228 166.575C235.228 166.575 240.385 162.81 240.442 160.455C240.498 158.1 239.421 158.781 236.242 158.705C233.062 158.629 232.591 158.617 232.656 155.909C232.721 153.201 232.727 152.965 238.382 152.983C244.037 153 241.571 147.757 244.338 145.349C247.106 142.941 249.651 144.887 249.059 149.939C248.467 154.992 254.447 151.247 257.714 152.621C260.98 153.995 259.409 155.607 256.569 156.128C253.729 156.649 255.59 157.637 256.341 160.718C257.092 163.799 256.759 162.967 265.691 163.888C274.624 164.809 267.08 160.033 266.514 159.077C265.947 158.12 263.295 155.7 271.409 156.366C279.523 157.032 274.618 150.316 274.618 150.316C274.618 150.316 269.2 140.407 262.782 137.779C256.365 135.151 258.128 135.311 254.815 130.99C251.502 126.669 238.383 128.358 234.502 128.029C230.622 127.7 230.796 130.297 228.734 132.722C226.791 135.149 231.442 137.735 231.724 145.636C232.006 153.537 226.991 146.465 226.991 146.465C226.991 146.465 224.247 142.983 223.025 139.89C221.803 136.797 221.372 135.137 223.309 132.945C225.247 130.753 226.13 128.3 222.363 123.261C218.596 118.222 215.461 116.262 213.818 115.987C212.175 115.712 212.567 119.02 212.735 121.852C212.903 124.684 214.563 124.252 216.525 125.949C218.37 127.642 217.472 130.684 216.925 133.853C216.378 137.021 216.314 134.78 213.485 129.882C210.657 124.983 208.711 127.529 206.041 130.764C203.372 133.999 210.389 136.17 210.484 142.064C210.578 147.957 207.397 143.05 207.397 143.05C207.397 143.05 203.957 139.08 200.582 137.349ZM90.701 248.416C90.701 248.416 92.9842 261.314 96.2954 260.804C102.918 259.785 98.0738 255.427 92.4674 248.459C92.0133 247.741 90.065 245.456 90.701 248.416ZM231.438 280.537C232.139 280.79 232.842 280.924 233.423 281.292C234.351 281.903 235.032 282.98 236.083 283.358C237.482 283.981 240.342 282.636 241.764 282.316C247.803 281.047 231.912 275.482 229.103 274.708C226.294 273.934 225.484 273.325 219.057 275.999C212.631 278.673 224.401 279.19 224.401 279.19C226.865 279.603 229.214 279.895 231.438 280.537ZM245.602 284.411C245.585 285.118 245.568 285.824 245.683 285.945C246.24 287.254 247.9 286.823 249.078 286.851C250.138 286.876 256.74 286.681 253.707 285.43C251.84 284.679 249.869 283.335 247.766 282.578C244.73 281.445 245.635 282.998 245.602 284.411ZM222.681 114.903C223.575 116.927 224.997 116.608 226.16 117.225C227.324 117.842 227.643 119.264 227.914 122.687C228.186 126.11 239.051 125.075 246.472 125.135C253.893 125.195 249.159 121.193 239.732 121.203C235.608 121.222 235.154 120.504 234.03 118.238C232.906 115.973 231.025 115.81 228.342 114.685C225.659 113.56 225.928 112.153 223.402 109.383C219.957 105.647 221.669 112.876 221.669 112.876C221.669 112.876 221.787 112.879 222.681 114.903ZM252.066 117.846C257.366 117.973 260.855 110.044 261.121 108.755C261.388 107.465 264.621 105.304 268.86 105.405C273.099 105.507 275.336 105.56 277.274 103.368C279.212 101.176 277.185 102.188 283.345 100.804C289.505 99.4195 289.432 97.5326 289.371 95.1747C289.309 92.8167 279.415 92.6975 276.704 92.7504C273.993 92.8032 274.189 94.4575 271.2 96.271C268.21 98.0846 250.472 95.8923 244.822 95.6391C244.233 95.625 243.645 95.6109 243.168 95.8351C243.849 96.9118 246.316 97.2066 247.365 97.703C248.882 98.3285 249.678 99.5258 250.953 100.381C252.232 101.119 253.76 101.273 255.17 101.425C269.97 103.311 258.517 104.333 257.337 104.422C256.156 104.512 254.289 103.76 253.863 106.813C253.436 109.866 249.587 108.243 247.582 108.312C245.577 108.382 246.292 108.046 246.383 104.278C246.473 100.509 237.742 101.007 233.971 101.035C230.2 101.062 231.655 104.278 231.332 107.923C231.009 111.568 231.954 111.473 235.831 111.919C239.591 112.363 238.273 113.274 238.69 115.522C239.108 117.771 245.004 117.559 245.004 117.559C245.004 117.559 246.767 117.719 252.066 117.846ZM295.406 98.9718C295.406 98.9718 292.014 97.948 290.189 100.379C288.363 102.809 290.241 103.09 286.117 103.109C281.993 103.128 282.223 103.369 281.221 105.819C280.22 108.27 278.162 110.577 275.218 110.506C272.274 110.436 267.589 109.263 268.007 111.512C268.421 113.878 272.281 119.98 274.28 120.145C276.279 120.311 293.163 118.83 294.769 125.585C296.372 132.457 293.275 143.694 296.409 145.654C299.543 147.614 298.076 149.818 297.003 150.381C295.929 150.945 294.311 149.61 294.229 153.025C294.147 156.44 295.244 154.934 297.06 157.805C298.877 160.677 299.844 159.64 299.743 163.879C299.641 168.118 299.131 169.755 302.299 170.302C305.467 170.85 308.113 173.505 308.547 175.047C308.982 176.589 312.195 175.253 313.065 173.388C313.934 171.524 324.026 158.452 326.976 158.287C329.926 158.122 334.981 158.596 335.16 156.008C335.34 153.421 333.782 149.613 337.435 149.583C341.088 149.552 348.033 149.836 351.177 146.495C354.32 143.153 360.767 139.655 354.901 138.572C352.204 138.036 349.788 135.622 351.268 132.83C351.395 132.479 355.508 132.931 356.099 132.827C357.518 132.626 359.413 132.2 360.272 130.807C361.626 128.365 362.981 125.923 364.453 123.484C365.796 121.513 370.14 117.258 364.863 116.189C363.223 115.796 362.444 113.892 364.847 111.947C364.847 111.947 368.569 104.142 372.102 104.226C373.161 104.252 383.182 104.02 381.808 102.338C380.892 101.256 380.892 101.256 373.838 100.615C372.898 100.475 372.329 99.6365 371.514 99.2635C370.344 98.882 368.811 98.9631 367.633 98.9349C361.266 99.1358 363.383 99.3044 360.728 97.0021C358.073 94.6999 355.483 94.6378 344.057 94.4819C332.514 94.3232 328.186 93.0412 325.3 95.4464C322.415 97.8515 323.674 99.4134 317.668 99.2695C311.662 99.1256 295.406 98.9718 295.406 98.9718ZM355.509 162.387C355.5 162.74 355.489 163.211 355.481 163.565C355.458 164.507 355.416 166.273 356.711 166.304C358.595 166.349 360.482 166.277 362.369 166.204C363.314 166.109 364.362 166.605 365.083 166.033C366.76 164.895 367.503 163.381 369.749 163.082C370.694 162.986 373.273 163.52 373.425 162.109C373.439 161.521 372.873 155.616 371.948 154.887C369.635 153.064 363.666 156.338 359.662 156.242C358.249 156.208 356.847 155.703 355.311 155.902C354.01 156.106 354.444 157.649 354.657 158.596C355.212 160.023 355.422 161.089 355.509 162.387ZM385.448 191.382C385.448 191.382 380.656 194.684 380.471 197.507C380.288 200.213 379.343 205.257 382.691 203.216C386.156 201.178 388.742 196.527 388.742 196.527C388.742 196.527 389.792 187.127 385.448 191.382ZM392.89 190.618C393.447 191.927 393.646 193.464 393.966 194.885C394.492 197.49 392.908 199.691 391.45 201.541C390.115 203.158 388.298 205.236 390.613 206.941C393.742 209.136 398.103 204.174 401.097 202.125C403.492 200.533 402.385 197.561 401.017 195.643C399.313 193.01 397.247 190.722 396.257 187.753C395.383 184.904 393.429 182.854 391.719 180.457C390.463 178.777 388.68 179.441 387.9 182.486C387.247 185.18 389.097 186.639 390.712 188.091C391.637 188.82 392.441 189.664 392.89 190.618ZM432.822 195.934C428.446 196.654 426.068 197.539 421.854 196.378C419.513 195.733 420.728 189.282 418.266 188.751C417.448 188.496 416.172 187.641 415.564 188.451C415.199 188.914 415.404 190.215 415.39 190.803C415.479 191.984 416.115 194.944 414.343 195.138C411.979 195.435 413.076 193.929 411.544 198.841C410.013 203.753 404.899 205.751 403.227 206.654C401.556 207.556 398.909 209.849 394.905 209.753C390.905 209.54 390.285 210.821 393.411 213.135C395.841 214.96 396.132 217.559 396.3 220.391C396.3 220.391 396.3 220.391 396.297 220.509C396.387 221.689 396.877 225.825 395.102 226.136C392.974 226.438 385.917 225.916 382.973 225.845C380.029 225.775 381.097 230.395 380.911 233.219C380.726 236.042 381.41 237.001 382.346 237.259C383.28 237.635 385.492 238.748 386.607 241.367C387.723 243.986 391.64 242.784 395.638 243.115C399.636 243.447 399.042 238.719 399.673 236.967C400.304 235.215 398.917 234.121 402.923 234.099C406.812 234.075 408.287 231.518 408.829 228.585C409.373 225.535 412.249 228.432 416.195 226.052C420.14 223.672 426.088 231.12 428.749 233.186C430.021 234.159 433.371 236.95 433.119 237.651C432.255 239.279 426.062 237.128 427.864 240.588C430.224 245.358 432.866 243.3 436.629 238.677C440.507 234.175 431.889 229.963 430.272 228.628C428.657 227.175 424.715 224.489 427.623 221.141C430.528 217.912 436.931 226.077 436.931 226.077C439.818 228.503 444.026 234.848 445.315 240.064C446.724 245.164 447.302 245.649 451.886 246.112C456.47 246.576 453.081 240.485 452.431 238.113C451.66 235.856 451.674 235.267 454.615 235.456C457.556 235.644 458.949 241.451 460.547 243.61C462.145 245.769 467.878 247.438 470.256 246.552C472.751 245.67 473.48 244.744 476.239 247.638C478.997 250.532 472.354 257.325 470.344 257.63C468.333 257.935 464.627 260.203 459.976 257.617C455.327 254.914 454.492 255.365 449.215 254.296C443.939 253.227 444.698 255.955 443.327 259.103C441.955 262.252 439.421 259.835 438.277 258.393C437.134 256.952 427.473 252.008 424.002 249.332C420.532 246.657 421.182 244.081 419.949 241.459C418.716 238.837 414.538 241.094 413.812 241.901C413.085 242.708 409.668 242.744 406.488 242.668C403.309 242.592 402.145 241.975 400.202 244.403C398.259 246.83 398.41 245.42 394.821 247.691C391.232 249.961 387.719 249.052 382.521 249.635C377.323 250.217 378.617 260.145 378.574 261.912C378.532 263.678 377.66 265.66 375.552 265.138C373.443 264.616 369.539 275.127 367.012 277.305C364.486 279.483 365.735 286.347 365.797 288.705C365.858 291.063 363.811 292.899 362.504 293.339C361.198 293.779 362.657 301.708 361.667 303.687C360.677 305.667 367.476 307.126 367.476 307.126C368.045 307.964 372.483 309.602 375.323 314.03C378.843 319.534 382.385 319.265 382.385 319.265C382.385 319.265 406.527 319.726 412.062 319.858C414.417 319.915 416.635 320.793 418.12 322.713C419.488 324.631 420.828 327.727 419.479 329.933C418.251 332.025 417.572 335.779 419.29 337.823C420.207 338.905 421.721 339.648 422.878 340.501C426.593 342.829 427.654 352.633 427.533 357.697C427.454 360.994 427.019 364.401 425.998 367.675C425.737 368.729 425.358 369.781 424.629 370.706C423.653 372.096 423.28 372.912 423.358 374.563C423.296 377.154 422.758 379.969 425.558 381.097C427.308 381.845 429.821 390.035 429.821 390.035C429.821 390.035 436.306 409.514 437.147 413.776C437.987 418.037 439.995 417.85 441.29 417.881C442.586 417.912 443.993 418.181 444.389 416.423C444.781 414.783 446.304 415.173 446.304 415.173C446.304 415.173 447.711 415.443 453.84 415.354C460.087 415.268 464.796 405.601 466.363 404.107C467.931 402.613 468.06 402.145 468.015 399.08C467.856 395.895 468.45 395.674 471.518 395.512C474.703 395.352 474.294 392.75 474.558 386.63C474.823 380.509 477.93 378.699 482.267 374.679C486.605 370.659 484.059 353.985 483.867 347.264C483.674 340.544 488.108 337.469 488.108 337.469C488.108 337.469 503.099 316.62 508.537 310.976C513.974 305.333 505.344 306.54 505.344 306.54C505.344 306.54 497.449 306.587 493.809 306.028C490.167 305.588 486.465 297.841 484.746 295.796C483.028 293.752 478.991 290.121 478.383 285.982C477.776 281.844 476.335 278.039 476.335 278.039C476.002 277.206 472.324 273.348 471.96 268.862C471.14 258.827 474.722 266.689 474.722 266.689C474.722 266.689 476.07 269.432 481.046 273.203C486.019 277.093 488.532 290.231 490.884 295.354C493.235 300.477 492.882 300.469 500.651 300.773C508.418 301.194 519.289 290.026 522.519 287.982C525.75 285.939 524.755 283.205 523.527 280.348C522.3 277.491 519.577 278.015 514.421 276.831C509.262 275.765 507.648 269.363 503.009 266.307C498.369 263.25 502.72 263.59 506.009 264.022C509.298 264.454 509.609 266.229 511.209 268.27C512.807 270.43 515.37 271.669 520.562 271.322C525.752 271.093 529.119 273.177 530.26 274.736C531.401 276.295 534.902 277.675 534.902 277.675C534.902 277.675 543.734 277.886 544.766 279.089C545.797 280.292 545.132 283.458 550.888 284.185C556.644 284.912 559.197 296.402 559.197 296.402C559.197 296.402 560.495 311.043 564.44 313.612C572.096 318.626 570.481 302.445 570.907 299.392C571.334 296.339 580.161 291.838 583.256 290.498C584.566 289.94 585.188 288.541 585.34 287.131C585.48 286.192 584.824 284.055 585.548 283.366C586.148 282.909 588.5 283.083 589.204 283.218C590.729 283.49 593.584 282.38 594.211 285.694C594.839 289.008 598.979 293.231 598.979 293.231C600.243 294.557 601.875 295.303 603.633 295.699C605.158 295.971 607.059 295.31 608.452 296.168C610.426 297.394 609.035 301.366 608.875 303.13C608.83 305.014 608.313 306.887 608.501 308.894C608.686 311.019 609.939 312.817 610.359 314.948C610.678 316.369 610.883 317.67 610.967 319.086C610.967 319.086 615.484 332.155 622.345 331.023C626.958 330.309 619.136 322.345 615.806 318.731C612.476 315.116 612.325 311.578 613.943 307.964C615.561 304.35 618.395 309.013 623.383 312.314C628.37 315.615 626.396 314.389 630.642 309.307C634.885 304.342 631.381 298.131 630.117 296.805C628.852 295.479 623.605 288.283 630.017 286.198C636.312 284.111 642.447 283.786 645.873 283.397C649.299 283.008 649.033 279.349 654.877 271.477C660.722 263.605 655.547 253.348 653.291 249.17C650.917 244.989 650.497 242.859 654.128 238.822C657.759 234.785 660.997 242.285 660.997 242.285C660.997 242.285 664.385 248.376 668.955 254.376C673.524 260.377 674.776 252.395 675.645 250.531C676.517 248.548 673.515 246.002 671.813 243.251C670.112 240.501 672.215 236.31 672.723 234.79C673.231 233.27 681.926 229.355 684.659 228.36C687.393 227.365 690.329 222.84 691.747 212.859C693.164 202.878 695.257 213.886 695.257 213.886C695.257 213.886 695.071 236.386 694.855 240.504C694.638 244.623 694.831 246.395 689.692 249.453C684.552 252.511 683.98 251.791 681.258 252.315C678.535 252.838 677.571 253.758 677.18 260.229C676.789 266.7 680.053 263.243 680.443 261.721C680.833 260.199 682.118 255.752 685.524 256.187C688.931 256.622 694.441 252.866 697.677 250.587C700.912 248.308 699.652 241.915 699.621 238.262C699.591 234.609 699.212 235.66 702.397 235.501C705.582 235.342 704.411 235.078 704.952 232.145C705.494 229.213 704.089 228.826 701.148 228.637C698.207 228.449 698.863 225.637 698.863 225.637C698.863 225.637 699.799 211.167 699.174 207.735C698.547 204.421 694.544 199.377 685.934 199.759C677.323 200.142 690.676 188.68 694.899 184.539C699.005 180.396 702.941 183.318 702.941 183.318C702.941 183.318 707.712 185.789 714.391 187.363C721.069 188.937 718.016 183.561 718.925 180.048C719.834 176.536 722.744 178.019 728.189 181.92C733.633 185.821 723.104 192.52 721.758 194.609C720.412 196.697 723.341 202.305 726.606 208.628C729.871 214.951 729.466 207.283 729.996 204.821C730.409 202.357 730.227 200.114 732.745 198.289C735.263 196.464 733.929 193.133 734.05 188.069C734.171 183.006 737.687 183.797 743.222 183.93C748.754 184.18 749.508 182.195 750.823 181.402C752.138 180.609 751.477 178.708 759.745 177.845C768.011 177.101 751.323 155.61 749.947 154.046C748.57 152.481 724.399 153.198 718.517 152.821C712.635 152.445 712.961 148.682 711.817 147.241C710.673 145.8 697.339 146.658 694.869 146.481C692.399 146.304 689.932 141.061 687.818 140.775C685.704 140.489 684.829 142.588 682.664 144.422C680.5 146.255 680.607 141.78 680.416 139.891C680.226 138.001 678.945 137.381 676.607 136.618C674.268 135.855 674.119 142.096 673.95 144.213C673.782 146.33 654.84 145.169 651.192 144.964C647.545 144.759 646.463 140.727 645.858 136.471C645.253 132.214 641.378 136.599 641.378 136.599L632.417 136.855C632.417 136.855 617.356 136.023 613.338 136.516C609.438 137.012 613.453 131.688 615.632 129.266C617.814 126.726 608.131 122.724 606.978 121.636C605.826 120.548 597.906 121.654 596.271 121.026C594.754 120.4 593.639 117.782 593.148 118.595C592.657 119.408 592.009 121.866 590.212 123.119C588.415 124.372 586.777 123.862 584.414 124.159C582.05 124.455 583.438 125.549 575.442 124.886C567.443 124.341 566.962 129.632 564.419 132.516C561.758 135.398 557.524 135.061 555.52 135.131C553.512 135.318 554.123 139.339 553.121 141.789C552.12 144.24 548.487 138.497 547.091 137.757C545.698 136.899 546.059 141.502 546.059 141.502C546.059 141.502 545.614 155.159 544.991 156.558C544.369 157.957 540.176 146.074 540.241 143.366C540.424 140.66 538.327 134.719 537.882 133.648C537.551 132.697 536.337 134.2 534.755 136.283C533.173 138.366 534.014 142.628 533.59 145.563C533.166 148.499 531.554 146.928 526.962 146.818C522.369 146.708 521.508 148.219 519.582 149.94C517.656 151.662 510.719 151.024 506.716 150.928C502.712 150.832 500.656 153.022 496.952 155.172C493.248 157.322 494.275 153.811 491.996 150.576C489.602 147.219 488.648 152.616 487.296 154.94C485.945 157.264 479.264 150.86 476.032 148.072C472.8 145.285 470.75 147.239 468.984 147.196C467.217 147.154 465.198 147.813 463.388 144.706C461.577 141.599 456.623 141.834 451.366 139.941C446.109 138.047 444.368 141.894 438.667 143.76C432.967 145.627 431.475 148.89 431.475 148.89C431.475 148.89 431.475 148.89 431.046 152.061C430.616 155.232 426.646 158.671 424.099 161.674C421.553 164.676 416.837 164.799 414.213 166.15C411.588 167.501 413.154 175.904 413.19 179.322C413.229 182.622 418.702 180.396 422.235 180.481C425.65 180.563 423.695 183.462 423.19 184.863C422.929 185.918 421.169 185.64 420.799 186.338C420.678 186.453 420.672 186.688 420.782 187.044C421.224 188.233 422.497 189.206 423.176 190.401C425.325 194.105 427.07 190.141 427.07 190.141C427.07 190.141 430.592 185.748 433.767 181.111C436.574 177.054 431.704 173.756 434.741 169.941C437.293 166.703 440.425 163.832 443.543 161.551C448.941 157.556 449.706 160.049 451.18 162.441C452.655 164.832 443.391 167.909 440.656 173.853C437.922 179.796 446.849 176.004 444.252 181.126C439.022 192.901 437.555 195.105 432.822 195.934ZM508.71 141.432C510.328 142.767 512.066 143.987 513.925 145.092C514.505 145.459 517.174 147.173 516.513 145.272C516.073 143.965 515.044 142.644 514.245 141.565C512.647 139.406 512.917 137.998 512.984 135.172C513.052 132.346 518.761 130.126 518.761 130.126C538.422 120.936 520.158 125.918 517.323 126.204C514.609 126.374 511.892 126.663 510.468 127.1C509.043 127.537 505.774 131.229 504.167 134.372C503.673 135.303 503.88 136.486 504.211 137.436C504.547 138.151 505.004 138.751 505.7 139.239C506.742 139.971 507.903 140.706 508.71 141.432ZM494.206 373.08C492.647 374.221 492.913 377.879 492.645 384.118C492.603 385.884 494.541 398.42 497.59 394.133C497.593 394.016 501.614 388.456 501.808 385.28C502.005 381.985 504.792 378.753 505.905 376.541C507.019 374.329 506.501 371.371 504.379 366.49C502.257 361.608 499.472 369.671 499.472 369.671C498.734 370.949 495.765 371.939 494.206 373.08ZM614.583 340.263C616.187 342.187 617.787 344.228 619.391 346.152C620.192 347.113 620.994 348.075 621.796 349.037C622.715 350.002 623.87 350.972 624.313 352.161C624.756 353.35 624.599 354.995 625.518 355.96C626.323 356.804 627.618 356.835 628.681 356.743C633.276 356.735 637.863 357.081 642.573 357.193C669.657 357.842 649.213 355.467 648.041 355.204C646.869 354.94 644.382 355.469 642.184 353.767C639.986 352.065 629.848 352.293 629.848 352.293C629.848 352.293 626.312 352.326 626.854 349.394C627.395 346.461 625.977 346.663 621.68 339.137C617.383 331.611 617.494 336.798 610.601 329.446C603.708 322.093 607.89 329.499 609.235 332.359C610.58 335.219 613.672 338.945 613.672 338.945C613.896 339.422 614.238 339.901 614.583 340.263ZM653.254 344.135C652.747 345.655 652.713 347.068 654.465 347.699C657.74 348.72 657.176 347.646 660.524 345.605C661.122 345.266 662.913 344.249 662.815 343.422C662.714 342.712 661.184 342.676 660.603 342.308C660.026 341.823 659.451 341.22 658.745 341.203C657.805 341.063 656.863 341.04 655.918 341.136C654.738 341.225 654.141 341.564 653.765 342.498C653.518 342.963 653.386 343.549 653.254 344.135ZM642.808 342.471C643.868 342.496 645.045 342.525 646.116 342.079C647.067 341.748 647.675 340.938 648.396 340.366C649.717 339.337 649.981 338.166 650.244 336.994C651.027 333.831 650.873 330.411 650.949 327.231C651.085 321.579 650.235 322.619 649.35 320.241C648.91 318.935 644.869 320.37 643.19 321.625C641.51 322.881 642.398 325.141 642.241 326.787C642.19 328.907 640.062 329.209 638.624 330.235C636.826 331.488 635.144 332.862 633.462 334.235C631.3 335.951 633.256 337.883 634.153 339.789C634.378 340.266 634.717 340.863 635.179 341.228C635.987 341.954 637.044 342.097 637.983 342.238C638.101 342.24 638.101 342.24 638.218 342.243C639.746 342.398 641.277 342.434 642.808 342.471ZM662.39 316.901C663.172 318.687 664.307 320.482 665.328 322.156C665.894 323.112 667.153 324.674 668.353 323.76C669.912 322.619 669.606 320.609 669.643 319.078C669.728 315.545 670.205 310.372 668.851 307.866C667.38 305.356 664.588 303.875 662.878 301.478C661.507 299.678 660.324 299.885 658.715 293.248C656.989 286.609 657.38 294.866 656.928 298.979C656.476 303.092 660.166 306.479 660.166 306.479C662.801 309.606 660.944 313.332 662.39 316.901ZM690.459 350.211C691.869 350.362 693.153 350.864 694.067 352.065C695.211 353.506 695.525 355.163 696.43 356.716C696.993 357.79 697.902 359.226 699.441 358.909C700.865 358.472 702.312 357.093 703.453 358.652C705.051 360.811 705.898 359.889 705.898 359.889C706.377 359.547 710.081 357.397 711.814 358.852C721.858 367.458 717.651 361.113 715.139 357.754C712.627 354.394 706.149 349.408 703.275 346.394C700.402 343.38 694.334 345.826 691.049 345.276C687.763 344.726 688.893 341.808 687.175 339.764C685.456 337.719 678.34 339.67 676.711 338.806C675.082 337.942 674.267 337.569 674.32 335.332C674.329 334.979 673.693 332.018 672.843 333.058C672.478 333.52 672.683 334.821 672.669 335.41C672.646 336.352 672.624 337.294 672.719 338.239C673.018 340.485 674.807 339.585 677.709 341.422C680.613 343.141 681.603 346.11 682.132 348.597C682.555 350.611 685.031 350.552 686.921 350.362C688.101 350.272 689.281 350.183 690.459 350.211ZM704.378 438.087C703.792 437.955 702.617 437.809 702.364 438.51C702.112 439.211 703.388 440.067 703.373 440.655C703.351 441.597 703.045 444.536 705.865 444.839C708.568 445.139 709.079 443.502 709.732 440.808C709.861 440.339 709.873 439.868 709.648 439.392C709.309 438.795 708.488 438.657 707.899 438.643C707.313 438.511 706.724 438.497 706.021 438.362C705.435 438.23 704.964 438.219 704.378 438.087ZM673.967 369.728C670.78 370.005 667.788 371.936 665.043 373.402C663.254 374.302 661.341 375.434 660.469 377.416C659.723 379.048 659.773 381.877 659.495 383.638C659.091 385.749 653.602 383.732 651.474 384.035C649.346 384.337 650.001 386.474 649.278 387.163C648.437 387.85 645.513 386.955 643.028 387.367C640.07 387.885 641.359 393.1 641.076 395.097C640.792 397.093 640.038 399.078 639.519 401.068C638.487 404.814 640.732 404.514 642.594 405.502C644.455 406.489 642.559 411.863 642.842 414.816C643.13 417.532 646.601 420.208 648.816 421.203C650.33 421.947 652.222 421.638 653.871 421.678C655.755 421.723 657.636 421.886 659.414 421.457C661.192 421.029 662.521 419.647 664.077 418.623C666.474 416.913 669.085 416.151 672.023 416.457C675.079 416.766 678.015 417.19 681.073 417.381C682.722 417.421 685.562 416.899 685.982 419.03C686.299 420.57 686.024 422.213 686.341 423.752C686.968 427.066 689.234 425.942 691.942 426.007C694.65 426.072 694.717 428.194 695.376 430.213C696.472 433.656 698.95 433.48 702.012 433.553C704.132 433.604 706.251 433.655 708.374 433.588C712.033 433.322 714.357 429.725 714.357 429.725C714.357 429.725 719.383 421.598 721.817 418.357C724.251 415.116 725.371 407.72 725.509 401.95C725.647 396.18 717.835 387.863 717.835 387.863C717.835 387.863 707.438 374.3 705.601 372.253C703.765 370.206 705.002 367.761 704.349 365.507C703.814 363.256 701.96 366.864 699.944 367.405C697.928 367.945 698.796 375.978 698.768 377.156C698.74 378.333 696.273 378.039 695.017 376.359C693.761 374.679 692.928 375.013 691.069 373.908C689.211 372.803 688.081 370.773 687.922 367.588C687.88 364.406 684.558 365.386 680.792 365.178C677.027 364.97 678.53 366.185 677.775 368.17C677.273 369.454 675.857 369.537 674.677 369.627C674.323 369.619 674.085 369.731 673.967 369.728ZM753.273 447.978L753.153 448.093C751.821 449.592 747.81 454.681 750.157 455.09C752.386 455.497 755.181 456.86 756.631 455.363C758.086 453.631 757.649 452.206 761.928 450.659C764.067 449.886 765.989 443.451 765.989 443.451C765.989 443.451 765.339 441.079 763.959 439.633C762.807 438.545 759.885 442.481 758.8 443.515C756.994 445.121 754.843 446.366 753.273 447.978ZM772.52 436.421C773.403 433.968 775.136 435.423 775.178 433.657C775.22 431.89 770.115 428.587 768.386 427.014C764.923 423.985 768.071 430.305 767.207 431.934C766.102 433.793 765.985 433.79 766.755 436.047C766.977 436.641 767.498 439.482 768.081 439.731C771.468 440.991 771.633 438.992 772.52 436.421Z"/>
</mask>
<path d="M182.483 120.656C180.975 119.677 179.464 118.816 177.706 118.421C175.359 118.011 172.645 118.182 170.436 116.95C168.925 116.089 165.965 111.777 169.725 112.22C172.31 112.518 177.376 112.522 179.19 110.562C183.786 105.606 189.501 117.878 194.596 116.704C197.321 116.063 197.995 112.544 200.781 114.26C202.522 115.363 204.367 117.056 205.623 118.736C207.45 121.136 206.124 122.401 203.404 122.807C200.923 123.101 198.456 122.806 195.865 122.744C193.51 122.687 191.149 122.866 188.788 123.046C186.428 123.225 184.457 121.881 182.483 120.656ZM209.94 105.761C209.94 105.761 211.105 111.209 212.972 111.96C214.722 112.709 215.641 113.674 216.878 111.229C218.112 108.902 215.429 107.778 213.472 105.846C211.515 103.914 208.446 99.2449 209.94 105.761ZM200.582 137.349C197.206 135.619 198.908 133.421 197.824 129.507C196.739 125.593 194.173 129.419 190.671 132.988C187.169 136.557 183.915 129.763 182.191 127.954C180.467 126.145 182.124 125.831 173.076 124.79C164.149 123.634 164.861 123.415 160.748 127.911C156.634 132.408 164.081 131.408 169.248 132.121C174.415 132.834 174.459 135.899 173.912 139.067C173.365 142.235 163.864 140.475 154.939 139.201C146.015 137.927 146.792 139.949 142.151 141.84C137.511 143.732 127.982 138.202 124.009 136.811C120.036 135.419 92.6775 136.413 88.6738 136.318C84.6701 136.222 82.3594 139.23 79.2639 140.569C76.1683 141.909 77.3311 147.475 77.1512 150.063C76.9714 152.65 71.14 150.154 68.0784 150.081C65.0167 150.007 65.7987 151.794 65.5096 154.025C65.2205 156.257 66.5101 156.524 70.1662 156.375C73.8223 156.227 75.339 156.853 75.3975 159.329C75.456 161.804 70.6591 160.393 67.7152 160.323C64.7713 160.252 65.8247 165.462 66.3091 169.833C66.7935 174.204 69.6366 173.565 71.2569 174.782C72.8773 175.999 75.1929 177.704 61.1567 183.259C47.1204 188.814 60.6066 186.545 62.9843 185.659C65.362 184.774 75.8007 181.843 78.8624 181.916C81.924 181.989 86.7189 178.569 90.6839 175.365C94.6488 172.161 106.741 173.983 115.452 174.309C124.163 174.636 131.243 193.893 135.411 196.938C139.58 199.984 139.478 223.9 139.191 230.962C138.904 238.025 143.97 242.977 146.271 245.271C148.573 247.564 154.035 260.538 160.188 269.286C166.338 278.153 163.657 267.131 161.891 262.14C160.128 257.031 163.669 261.711 163.669 261.711C163.669 261.711 174.663 274.935 176.757 280.995C178.85 287.054 188.385 292.349 194.85 292.975C201.315 293.601 201.155 295.364 201.155 295.364C201.155 295.364 200.743 297.829 208.492 298.957C216.124 300.083 214.684 306.057 217.807 308.488C220.93 310.92 225.817 313.511 230.174 313.615C234.531 313.72 233.011 313.212 233.757 316.529C234.502 319.846 231.333 324.247 229.039 326.549C226.745 328.85 226.38 334.261 226.228 340.62C226.076 346.979 228.517 348.334 228.517 348.334C228.517 348.334 241.417 370.558 244.548 372.636C247.68 374.714 247.107 378.942 247.107 378.942C247.107 378.942 246.334 411.207 246.157 413.677C245.98 416.147 245.745 416.142 243.554 419.035C241.364 421.928 241.562 428.413 241.562 428.413C241.562 428.413 240.524 457.019 240.473 459.139C240.422 461.258 243.654 464.046 254.232 470.072C264.809 476.099 257.243 467.317 256.114 465.287C254.984 463.257 255.933 458.095 256.026 454.209C256.119 450.323 259.464 448.4 260.816 446.076C262.168 443.752 261.032 441.958 261.131 437.836C261.23 433.715 265.873 431.705 265.873 431.705C265.873 431.705 291.688 406.638 293.746 404.331C295.804 402.024 296.268 397.44 296.094 394.844C295.921 392.247 303.873 384.897 308.306 381.822C312.74 378.747 316.369 369.879 316.652 367.883C316.936 365.887 317.164 361.297 320.161 359.13C323.159 356.964 323.157 352.133 324.455 347.098C325.754 342.062 316.348 341.248 310.783 337.462C305.218 333.676 296.294 332.402 295.588 332.385C294.881 332.368 290.866 332.743 291.172 329.805C291.478 326.867 289.127 321.744 287.773 319.237C286.419 316.73 284.179 316.794 281.47 316.73C278.762 316.665 270.702 308.813 267.226 306.373C263.75 303.934 256.522 305.646 251.843 304.237C247.163 302.829 249.518 302.886 245.307 301.606C241.096 300.327 238.954 306.167 236.938 306.708C234.922 307.249 228.451 306.858 226.104 306.448C223.757 306.039 222.09 301.875 221.591 298.093C221.093 294.31 219.837 292.631 216.7 290.788C213.563 288.946 213.188 284.931 213.609 282.113C214.03 279.295 212.033 279.012 209.681 278.838C207.329 278.664 207.424 279.608 206.787 281.596C206.15 283.584 204.244 284.481 199.2 283.535C194.159 282.472 192.183 276.416 191.71 271.573C191.237 266.731 191.42 264.026 194.785 261.279C198.15 258.531 199.055 260.085 203.513 260.899C207.971 261.712 211.091 259.313 214.109 256.322C217.126 253.331 220.534 258.596 220.534 258.596C220.534 258.596 220.534 258.596 225.182 266.249C229.829 273.901 229.424 266.232 228.421 258.903C227.419 251.574 250.466 228.915 253.96 225.7C257.454 222.484 257.067 223.889 262.966 223.559C268.865 223.229 271.246 217.277 274.72 214.886C278.194 212.495 270.302 212.424 266.814 210.455C263.327 208.486 269.226 208.156 271.371 207.147C273.516 206.138 278.005 205.657 283.884 206.151C289.763 206.645 275.658 185.57 273.242 183.156C270.825 180.742 271.616 177.226 270.521 173.783C269.425 170.34 265.286 175.896 262.254 179.476C259.223 183.056 259.428 179.408 259.953 177.182C260.478 174.956 258.179 172.544 257.192 169.457C256.206 166.37 248.647 167.132 245.941 166.949C243.236 166.767 243.701 167.013 242.767 171.586C241.833 176.159 243.057 179.134 243.78 183.393C244.503 187.652 239.654 193.309 236.875 196.188C234.097 199.067 233.475 195.517 233.427 192.571C233.38 189.624 231.956 190.061 228.67 189.511C225.384 188.961 225.151 188.838 223.929 185.745C222.707 182.652 218.413 179.957 214.297 179.623C210.181 179.289 211.648 172.137 211.842 168.96C212.039 165.666 218.165 165.695 220.181 165.154C222.197 164.613 225.545 162.572 228.752 166.42C231.962 170.149 235.228 166.575 235.228 166.575C235.228 166.575 240.385 162.81 240.442 160.455C240.498 158.1 239.421 158.781 236.242 158.705C233.062 158.629 232.591 158.617 232.656 155.909C232.721 153.201 232.727 152.965 238.382 152.983C244.037 153 241.571 147.757 244.338 145.349C247.106 142.941 249.651 144.887 249.059 149.939C248.467 154.992 254.447 151.247 257.714 152.621C260.98 153.995 259.409 155.607 256.569 156.128C253.729 156.649 255.59 157.637 256.341 160.718C257.092 163.799 256.759 162.967 265.691 163.888C274.624 164.809 267.08 160.033 266.514 159.077C265.947 158.12 263.295 155.7 271.409 156.366C279.523 157.032 274.618 150.316 274.618 150.316C274.618 150.316 269.2 140.407 262.782 137.779C256.365 135.151 258.128 135.311 254.815 130.99C251.502 126.669 238.383 128.358 234.502 128.029C230.622 127.7 230.796 130.297 228.734 132.722C226.791 135.149 231.442 137.735 231.724 145.636C232.006 153.537 226.991 146.465 226.991 146.465C226.991 146.465 224.247 142.983 223.025 139.89C221.803 136.797 221.372 135.137 223.309 132.945C225.247 130.753 226.13 128.3 222.363 123.261C218.596 118.222 215.461 116.262 213.818 115.987C212.175 115.712 212.567 119.02 212.735 121.852C212.903 124.684 214.563 124.252 216.525 125.949C218.37 127.642 217.472 130.684 216.925 133.853C216.378 137.021 216.314 134.78 213.485 129.882C210.657 124.983 208.711 127.529 206.041 130.764C203.372 133.999 210.389 136.17 210.484 142.064C210.578 147.957 207.397 143.05 207.397 143.05C207.397 143.05 203.957 139.08 200.582 137.349ZM90.701 248.416C90.701 248.416 92.9842 261.314 96.2954 260.804C102.918 259.785 98.0738 255.427 92.4674 248.459C92.0133 247.741 90.065 245.456 90.701 248.416ZM231.438 280.537C232.139 280.79 232.842 280.924 233.423 281.292C234.351 281.903 235.032 282.98 236.083 283.358C237.482 283.981 240.342 282.636 241.764 282.316C247.803 281.047 231.912 275.482 229.103 274.708C226.294 273.934 225.484 273.325 219.057 275.999C212.631 278.673 224.401 279.19 224.401 279.19C226.865 279.603 229.214 279.895 231.438 280.537ZM245.602 284.411C245.585 285.118 245.568 285.824 245.683 285.945C246.24 287.254 247.9 286.823 249.078 286.851C250.138 286.876 256.74 286.681 253.707 285.43C251.84 284.679 249.869 283.335 247.766 282.578C244.73 281.445 245.635 282.998 245.602 284.411ZM222.681 114.903C223.575 116.927 224.997 116.608 226.16 117.225C227.324 117.842 227.643 119.264 227.914 122.687C228.186 126.11 239.051 125.075 246.472 125.135C253.893 125.195 249.159 121.193 239.732 121.203C235.608 121.222 235.154 120.504 234.03 118.238C232.906 115.973 231.025 115.81 228.342 114.685C225.659 113.56 225.928 112.153 223.402 109.383C219.957 105.647 221.669 112.876 221.669 112.876C221.669 112.876 221.787 112.879 222.681 114.903ZM252.066 117.846C257.366 117.973 260.855 110.044 261.121 108.755C261.388 107.465 264.621 105.304 268.86 105.405C273.099 105.507 275.336 105.56 277.274 103.368C279.212 101.176 277.185 102.188 283.345 100.804C289.505 99.4195 289.432 97.5326 289.371 95.1747C289.309 92.8167 279.415 92.6975 276.704 92.7504C273.993 92.8032 274.189 94.4575 271.2 96.271C268.21 98.0846 250.472 95.8923 244.822 95.6391C244.233 95.625 243.645 95.6109 243.168 95.8351C243.849 96.9118 246.316 97.2066 247.365 97.703C248.882 98.3285 249.678 99.5258 250.953 100.381C252.232 101.119 253.76 101.273 255.17 101.425C269.97 103.311 258.517 104.333 257.337 104.422C256.156 104.512 254.289 103.76 253.863 106.813C253.436 109.866 249.587 108.243 247.582 108.312C245.577 108.382 246.292 108.046 246.383 104.278C246.473 100.509 237.742 101.007 233.971 101.035C230.2 101.062 231.655 104.278 231.332 107.923C231.009 111.568 231.954 111.473 235.831 111.919C239.591 112.363 238.273 113.274 238.69 115.522C239.108 117.771 245.004 117.559 245.004 117.559C245.004 117.559 246.767 117.719 252.066 117.846ZM295.406 98.9718C295.406 98.9718 292.014 97.948 290.189 100.379C288.363 102.809 290.241 103.09 286.117 103.109C281.993 103.128 282.223 103.369 281.221 105.819C280.22 108.27 278.162 110.577 275.218 110.506C272.274 110.436 267.589 109.263 268.007 111.512C268.421 113.878 272.281 119.98 274.28 120.145C276.279 120.311 293.163 118.83 294.769 125.585C296.372 132.457 293.275 143.694 296.409 145.654C299.543 147.614 298.076 149.818 297.003 150.381C295.929 150.945 294.311 149.61 294.229 153.025C294.147 156.44 295.244 154.934 297.06 157.805C298.877 160.677 299.844 159.64 299.743 163.879C299.641 168.118 299.131 169.755 302.299 170.302C305.467 170.85 308.113 173.505 308.547 175.047C308.982 176.589 312.195 175.253 313.065 173.388C313.934 171.524 324.026 158.452 326.976 158.287C329.926 158.122 334.981 158.596 335.16 156.008C335.34 153.421 333.782 149.613 337.435 149.583C341.088 149.552 348.033 149.836 351.177 146.495C354.32 143.153 360.767 139.655 354.901 138.572C352.204 138.036 349.788 135.622 351.268 132.83C351.395 132.479 355.508 132.931 356.099 132.827C357.518 132.626 359.413 132.2 360.272 130.807C361.626 128.365 362.981 125.923 364.453 123.484C365.796 121.513 370.14 117.258 364.863 116.189C363.223 115.796 362.444 113.892 364.847 111.947C364.847 111.947 368.569 104.142 372.102 104.226C373.161 104.252 383.182 104.02 381.808 102.338C380.892 101.256 380.892 101.256 373.838 100.615C372.898 100.475 372.329 99.6365 371.514 99.2635C370.344 98.882 368.811 98.9631 367.633 98.9349C361.266 99.1358 363.383 99.3044 360.728 97.0021C358.073 94.6999 355.483 94.6378 344.057 94.4819C332.514 94.3232 328.186 93.0412 325.3 95.4464C322.415 97.8515 323.674 99.4134 317.668 99.2695C311.662 99.1256 295.406 98.9718 295.406 98.9718ZM355.509 162.387C355.5 162.74 355.489 163.211 355.481 163.565C355.458 164.507 355.416 166.273 356.711 166.304C358.595 166.349 360.482 166.277 362.369 166.204C363.314 166.109 364.362 166.605 365.083 166.033C366.76 164.895 367.503 163.381 369.749 163.082C370.694 162.986 373.273 163.52 373.425 162.109C373.439 161.521 372.873 155.616 371.948 154.887C369.635 153.064 363.666 156.338 359.662 156.242C358.249 156.208 356.847 155.703 355.311 155.902C354.01 156.106 354.444 157.649 354.657 158.596C355.212 160.023 355.422 161.089 355.509 162.387ZM385.448 191.382C385.448 191.382 380.656 194.684 380.471 197.507C380.288 200.213 379.343 205.257 382.691 203.216C386.156 201.178 388.742 196.527 388.742 196.527C388.742 196.527 389.792 187.127 385.448 191.382ZM392.89 190.618C393.447 191.927 393.646 193.464 393.966 194.885C394.492 197.49 392.908 199.691 391.45 201.541C390.115 203.158 388.298 205.236 390.613 206.941C393.742 209.136 398.103 204.174 401.097 202.125C403.492 200.533 402.385 197.561 401.017 195.643C399.313 193.01 397.247 190.722 396.257 187.753C395.383 184.904 393.429 182.854 391.719 180.457C390.463 178.777 388.68 179.441 387.9 182.486C387.247 185.18 389.097 186.639 390.712 188.091C391.637 188.82 392.441 189.664 392.89 190.618ZM432.822 195.934C428.446 196.654 426.068 197.539 421.854 196.378C419.513 195.733 420.728 189.282 418.266 188.751C417.448 188.496 416.172 187.641 415.564 188.451C415.199 188.914 415.404 190.215 415.39 190.803C415.479 191.984 416.115 194.944 414.343 195.138C411.979 195.435 413.076 193.929 411.544 198.841C410.013 203.753 404.899 205.751 403.227 206.654C401.556 207.556 398.909 209.849 394.905 209.753C390.905 209.54 390.285 210.821 393.411 213.135C395.841 214.96 396.132 217.559 396.3 220.391C396.3 220.391 396.3 220.391 396.297 220.509C396.387 221.689 396.877 225.825 395.102 226.136C392.974 226.438 385.917 225.916 382.973 225.845C380.029 225.775 381.097 230.395 380.911 233.219C380.726 236.042 381.41 237.001 382.346 237.259C383.28 237.635 385.492 238.748 386.607 241.367C387.723 243.986 391.64 242.784 395.638 243.115C399.636 243.447 399.042 238.719 399.673 236.967C400.304 235.215 398.917 234.121 402.923 234.099C406.812 234.075 408.287 231.518 408.829 228.585C409.373 225.535 412.249 228.432 416.195 226.052C420.14 223.672 426.088 231.12 428.749 233.186C430.021 234.159 433.371 236.95 433.119 237.651C432.255 239.279 426.062 237.128 427.864 240.588C430.224 245.358 432.866 243.3 436.629 238.677C440.507 234.175 431.889 229.963 430.272 228.628C428.657 227.175 424.715 224.489 427.623 221.141C430.528 217.912 436.931 226.077 436.931 226.077C439.818 228.503 444.026 234.848 445.315 240.064C446.724 245.164 447.302 245.649 451.886 246.112C456.47 246.576 453.081 240.485 452.431 238.113C451.66 235.856 451.674 235.267 454.615 235.456C457.556 235.644 458.949 241.451 460.547 243.61C462.145 245.769 467.878 247.438 470.256 246.552C472.751 245.67 473.48 244.744 476.239 247.638C478.997 250.532 472.354 257.325 470.344 257.63C468.333 257.935 464.627 260.203 459.976 257.617C455.327 254.914 454.492 255.365 449.215 254.296C443.939 253.227 444.698 255.955 443.327 259.103C441.955 262.252 439.421 259.835 438.277 258.393C437.134 256.952 427.473 252.008 424.002 249.332C420.532 246.657 421.182 244.081 419.949 241.459C418.716 238.837 414.538 241.094 413.812 241.901C413.085 242.708 409.668 242.744 406.488 242.668C403.309 242.592 402.145 241.975 400.202 244.403C398.259 246.83 398.41 245.42 394.821 247.691C391.232 249.961 387.719 249.052 382.521 249.635C377.323 250.217 378.617 260.145 378.574 261.912C378.532 263.678 377.66 265.66 375.552 265.138C373.443 264.616 369.539 275.127 367.012 277.305C364.486 279.483 365.735 286.347 365.797 288.705C365.858 291.063 363.811 292.899 362.504 293.339C361.198 293.779 362.657 301.708 361.667 303.687C360.677 305.667 367.476 307.126 367.476 307.126C368.045 307.964 372.483 309.602 375.323 314.03C378.843 319.534 382.385 319.265 382.385 319.265C382.385 319.265 406.527 319.726 412.062 319.858C414.417 319.915 416.635 320.793 418.12 322.713C419.488 324.631 420.828 327.727 419.479 329.933C418.251 332.025 417.572 335.779 419.29 337.823C420.207 338.905 421.721 339.648 422.878 340.501C426.593 342.829 427.654 352.633 427.533 357.697C427.454 360.994 427.019 364.401 425.998 367.675C425.737 368.729 425.358 369.781 424.629 370.706C423.653 372.096 423.28 372.912 423.358 374.563C423.296 377.154 422.758 379.969 425.558 381.097C427.308 381.845 429.821 390.035 429.821 390.035C429.821 390.035 436.306 409.514 437.147 413.776C437.987 418.037 439.995 417.85 441.29 417.881C442.586 417.912 443.993 418.181 444.389 416.423C444.781 414.783 446.304 415.173 446.304 415.173C446.304 415.173 447.711 415.443 453.84 415.354C460.087 415.268 464.796 405.601 466.363 404.107C467.931 402.613 468.06 402.145 468.015 399.08C467.856 395.895 468.45 395.674 471.518 395.512C474.703 395.352 474.294 392.75 474.558 386.63C474.823 380.509 477.93 378.699 482.267 374.679C486.605 370.659 484.059 353.985 483.867 347.264C483.674 340.544 488.108 337.469 488.108 337.469C488.108 337.469 503.099 316.62 508.537 310.976C513.974 305.333 505.344 306.54 505.344 306.54C505.344 306.54 497.449 306.587 493.809 306.028C490.167 305.588 486.465 297.841 484.746 295.796C483.028 293.752 478.991 290.121 478.383 285.982C477.776 281.844 476.335 278.039 476.335 278.039C476.002 277.206 472.324 273.348 471.96 268.862C471.14 258.827 474.722 266.689 474.722 266.689C474.722 266.689 476.07 269.432 481.046 273.203C486.019 277.093 488.532 290.231 490.884 295.354C493.235 300.477 492.882 300.469 500.651 300.773C508.418 301.194 519.289 290.026 522.519 287.982C525.75 285.939 524.755 283.205 523.527 280.348C522.3 277.491 519.577 278.015 514.421 276.831C509.262 275.765 507.648 269.363 503.009 266.307C498.369 263.25 502.72 263.59 506.009 264.022C509.298 264.454 509.609 266.229 511.209 268.27C512.807 270.43 515.37 271.669 520.562 271.322C525.752 271.093 529.119 273.177 530.26 274.736C531.401 276.295 534.902 277.675 534.902 277.675C534.902 277.675 543.734 277.886 544.766 279.089C545.797 280.292 545.132 283.458 550.888 284.185C556.644 284.912 559.197 296.402 559.197 296.402C559.197 296.402 560.495 311.043 564.44 313.612C572.096 318.626 570.481 302.445 570.907 299.392C571.334 296.339 580.161 291.838 583.256 290.498C584.566 289.94 585.188 288.541 585.34 287.131C585.48 286.192 584.824 284.055 585.548 283.366C586.148 282.909 588.5 283.083 589.204 283.218C590.729 283.49 593.584 282.38 594.211 285.694C594.839 289.008 598.979 293.231 598.979 293.231C600.243 294.557 601.875 295.303 603.633 295.699C605.158 295.971 607.059 295.31 608.452 296.168C610.426 297.394 609.035 301.366 608.875 303.13C608.83 305.014 608.313 306.887 608.501 308.894C608.686 311.019 609.939 312.817 610.359 314.948C610.678 316.369 610.883 317.67 610.967 319.086C610.967 319.086 615.484 332.155 622.345 331.023C626.958 330.309 619.136 322.345 615.806 318.731C612.476 315.116 612.325 311.578 613.943 307.964C615.561 304.35 618.395 309.013 623.383 312.314C628.37 315.615 626.396 314.389 630.642 309.307C634.885 304.342 631.381 298.131 630.117 296.805C628.852 295.479 623.605 288.283 630.017 286.198C636.312 284.111 642.447 283.786 645.873 283.397C649.299 283.008 649.033 279.349 654.877 271.477C660.722 263.605 655.547 253.348 653.291 249.17C650.917 244.989 650.497 242.859 654.128 238.822C657.759 234.785 660.997 242.285 660.997 242.285C660.997 242.285 664.385 248.376 668.955 254.376C673.524 260.377 674.776 252.395 675.645 250.531C676.517 248.548 673.515 246.002 671.813 243.251C670.112 240.501 672.215 236.31 672.723 234.79C673.231 233.27 681.926 229.355 684.659 228.36C687.393 227.365 690.329 222.84 691.747 212.859C693.164 202.878 695.257 213.886 695.257 213.886C695.257 213.886 695.071 236.386 694.855 240.504C694.638 244.623 694.831 246.395 689.692 249.453C684.552 252.511 683.98 251.791 681.258 252.315C678.535 252.838 677.571 253.758 677.18 260.229C676.789 266.7 680.053 263.243 680.443 261.721C680.833 260.199 682.118 255.752 685.524 256.187C688.931 256.622 694.441 252.866 697.677 250.587C700.912 248.308 699.652 241.915 699.621 238.262C699.591 234.609 699.212 235.66 702.397 235.501C705.582 235.342 704.411 235.078 704.952 232.145C705.494 229.213 704.089 228.826 701.148 228.637C698.207 228.449 698.863 225.637 698.863 225.637C698.863 225.637 699.799 211.167 699.174 207.735C698.547 204.421 694.544 199.377 685.934 199.759C677.323 200.142 690.676 188.68 694.899 184.539C699.005 180.396 702.941 183.318 702.941 183.318C702.941 183.318 707.712 185.789 714.391 187.363C721.069 188.937 718.016 183.561 718.925 180.048C719.834 176.536 722.744 178.019 728.189 181.92C733.633 185.821 723.104 192.52 721.758 194.609C720.412 196.697 723.341 202.305 726.606 208.628C729.871 214.951 729.466 207.283 729.996 204.821C730.409 202.357 730.227 200.114 732.745 198.289C735.263 196.464 733.929 193.133 734.05 188.069C734.171 183.006 737.687 183.797 743.222 183.93C748.754 184.18 749.508 182.195 750.823 181.402C752.138 180.609 751.477 178.708 759.745 177.845C768.011 177.101 751.323 155.61 749.947 154.046C748.57 152.481 724.399 153.198 718.517 152.821C712.635 152.445 712.961 148.682 711.817 147.241C710.673 145.8 697.339 146.658 694.869 146.481C692.399 146.304 689.932 141.061 687.818 140.775C685.704 140.489 684.829 142.588 682.664 144.422C680.5 146.255 680.607 141.78 680.416 139.891C680.226 138.001 678.945 137.381 676.607 136.618C674.268 135.855 674.119 142.096 673.95 144.213C673.782 146.33 654.84 145.169 651.192 144.964C647.545 144.759 646.463 140.727 645.858 136.471C645.253 132.214 641.378 136.599 641.378 136.599L632.417 136.855C632.417 136.855 617.356 136.023 613.338 136.516C609.438 137.012 613.453 131.688 615.632 129.266C617.814 126.726 608.131 122.724 606.978 121.636C605.826 120.548 597.906 121.654 596.271 121.026C594.754 120.4 593.639 117.782 593.148 118.595C592.657 119.408 592.009 121.866 590.212 123.119C588.415 124.372 586.777 123.862 584.414 124.159C582.05 124.455 583.438 125.549 575.442 124.886C567.443 124.341 566.962 129.632 564.419 132.516C561.758 135.398 557.524 135.061 555.52 135.131C553.512 135.318 554.123 139.339 553.121 141.789C552.12 144.24 548.487 138.497 547.091 137.757C545.698 136.899 546.059 141.502 546.059 141.502C546.059 141.502 545.614 155.159 544.991 156.558C544.369 157.957 540.176 146.074 540.241 143.366C540.424 140.66 538.327 134.719 537.882 133.648C537.551 132.697 536.337 134.2 534.755 136.283C533.173 138.366 534.014 142.628 533.59 145.563C533.166 148.499 531.554 146.928 526.962 146.818C522.369 146.708 521.508 148.219 519.582 149.94C517.656 151.662 510.719 151.024 506.716 150.928C502.712 150.832 500.656 153.022 496.952 155.172C493.248 157.322 494.275 153.811 491.996 150.576C489.602 147.219 488.648 152.616 487.296 154.94C485.945 157.264 479.264 150.86 476.032 148.072C472.8 145.285 470.75 147.239 468.984 147.196C467.217 147.154 465.198 147.813 463.388 144.706C461.577 141.599 456.623 141.834 451.366 139.941C446.109 138.047 444.368 141.894 438.667 143.76C432.967 145.627 431.475 148.89 431.475 148.89C431.475 148.89 431.475 148.89 431.046 152.061C430.616 155.232 426.646 158.671 424.099 161.674C421.553 164.676 416.837 164.799 414.213 166.15C411.588 167.501 413.154 175.904 413.19 179.322C413.229 182.622 418.702 180.396 422.235 180.481C425.65 180.563 423.695 183.462 423.19 184.863C422.929 185.918 421.169 185.64 420.799 186.338C420.678 186.453 420.672 186.688 420.782 187.044C421.224 188.233 422.497 189.206 423.176 190.401C425.325 194.105 427.07 190.141 427.07 190.141C427.07 190.141 430.592 185.748 433.767 181.111C436.574 177.054 431.704 173.756 434.741 169.941C437.293 166.703 440.425 163.832 443.543 161.551C448.941 157.556 449.706 160.049 451.18 162.441C452.655 164.832 443.391 167.909 440.656 173.853C437.922 179.796 446.849 176.004 444.252 181.126C439.022 192.901 437.555 195.105 432.822 195.934ZM508.71 141.432C510.328 142.767 512.066 143.987 513.925 145.092C514.505 145.459 517.174 147.173 516.513 145.272C516.073 143.965 515.044 142.644 514.245 141.565C512.647 139.406 512.917 137.998 512.984 135.172C513.052 132.346 518.761 130.126 518.761 130.126C538.422 120.936 520.158 125.918 517.323 126.204C514.609 126.374 511.892 126.663 510.468 127.1C509.043 127.537 505.774 131.229 504.167 134.372C503.673 135.303 503.88 136.486 504.211 137.436C504.547 138.151 505.004 138.751 505.7 139.239C506.742 139.971 507.903 140.706 508.71 141.432ZM494.206 373.08C492.647 374.221 492.913 377.879 492.645 384.118C492.603 385.884 494.541 398.42 497.59 394.133C497.593 394.016 501.614 388.456 501.808 385.28C502.005 381.985 504.792 378.753 505.905 376.541C507.019 374.329 506.501 371.371 504.379 366.49C502.257 361.608 499.472 369.671 499.472 369.671C498.734 370.949 495.765 371.939 494.206 373.08ZM614.583 340.263C616.187 342.187 617.787 344.228 619.391 346.152C620.192 347.113 620.994 348.075 621.796 349.037C622.715 350.002 623.87 350.972 624.313 352.161C624.756 353.35 624.599 354.995 625.518 355.96C626.323 356.804 627.618 356.835 628.681 356.743C633.276 356.735 637.863 357.081 642.573 357.193C669.657 357.842 649.213 355.467 648.041 355.204C646.869 354.94 644.382 355.469 642.184 353.767C639.986 352.065 629.848 352.293 629.848 352.293C629.848 352.293 626.312 352.326 626.854 349.394C627.395 346.461 625.977 346.663 621.68 339.137C617.383 331.611 617.494 336.798 610.601 329.446C603.708 322.093 607.89 329.499 609.235 332.359C610.58 335.219 613.672 338.945 613.672 338.945C613.896 339.422 614.238 339.901 614.583 340.263ZM653.254 344.135C652.747 345.655 652.713 347.068 654.465 347.699C657.74 348.72 657.176 347.646 660.524 345.605C661.122 345.266 662.913 344.249 662.815 343.422C662.714 342.712 661.184 342.676 660.603 342.308C660.026 341.823 659.451 341.22 658.745 341.203C657.805 341.063 656.863 341.04 655.918 341.136C654.738 341.225 654.141 341.564 653.765 342.498C653.518 342.963 653.386 343.549 653.254 344.135ZM642.808 342.471C643.868 342.496 645.045 342.525 646.116 342.079C647.067 341.748 647.675 340.938 648.396 340.366C649.717 339.337 649.981 338.166 650.244 336.994C651.027 333.831 650.873 330.411 650.949 327.231C651.085 321.579 650.235 322.619 649.35 320.241C648.91 318.935 644.869 320.37 643.19 321.625C641.51 322.881 642.398 325.141 642.241 326.787C642.19 328.907 640.062 329.209 638.624 330.235C636.826 331.488 635.144 332.862 633.462 334.235C631.3 335.951 633.256 337.883 634.153 339.789C634.378 340.266 634.717 340.863 635.179 341.228C635.987 341.954 637.044 342.097 637.983 342.238C638.101 342.24 638.101 342.24 638.218 342.243C639.746 342.398 641.277 342.434 642.808 342.471ZM662.39 316.901C663.172 318.687 664.307 320.482 665.328 322.156C665.894 323.112 667.153 324.674 668.353 323.76C669.912 322.619 669.606 320.609 669.643 319.078C669.728 315.545 670.205 310.372 668.851 307.866C667.38 305.356 664.588 303.875 662.878 301.478C661.507 299.678 660.324 299.885 658.715 293.248C656.989 286.609 657.38 294.866 656.928 298.979C656.476 303.092 660.166 306.479 660.166 306.479C662.801 309.606 660.944 313.332 662.39 316.901ZM690.459 350.211C691.869 350.362 693.153 350.864 694.067 352.065C695.211 353.506 695.525 355.163 696.43 356.716C696.993 357.79 697.902 359.226 699.441 358.909C700.865 358.472 702.312 357.093 703.453 358.652C705.051 360.811 705.898 359.889 705.898 359.889C706.377 359.547 710.081 357.397 711.814 358.852C721.858 367.458 717.651 361.113 715.139 357.754C712.627 354.394 706.149 349.408 703.275 346.394C700.402 343.38 694.334 345.826 691.049 345.276C687.763 344.726 688.893 341.808 687.175 339.764C685.456 337.719 678.34 339.67 676.711 338.806C675.082 337.942 674.267 337.569 674.32 335.332C674.329 334.979 673.693 332.018 672.843 333.058C672.478 333.52 672.683 334.821 672.669 335.41C672.646 336.352 672.624 337.294 672.719 338.239C673.018 340.485 674.807 339.585 677.709 341.422C680.613 343.141 681.603 346.11 682.132 348.597C682.555 350.611 685.031 350.552 686.921 350.362C688.101 350.272 689.281 350.183 690.459 350.211ZM704.378 438.087C703.792 437.955 702.617 437.809 702.364 438.51C702.112 439.211 703.388 440.067 703.373 440.655C703.351 441.597 703.045 444.536 705.865 444.839C708.568 445.139 709.079 443.502 709.732 440.808C709.861 440.339 709.873 439.868 709.648 439.392C709.309 438.795 708.488 438.657 707.899 438.643C707.313 438.511 706.724 438.497 706.021 438.362C705.435 438.23 704.964 438.219 704.378 438.087ZM673.967 369.728C670.78 370.005 667.788 371.936 665.043 373.402C663.254 374.302 661.341 375.434 660.469 377.416C659.723 379.048 659.773 381.877 659.495 383.638C659.091 385.749 653.602 383.732 651.474 384.035C649.346 384.337 650.001 386.474 649.278 387.163C648.437 387.85 645.513 386.955 643.028 387.367C640.07 387.885 641.359 393.1 641.076 395.097C640.792 397.093 640.038 399.078 639.519 401.068C638.487 404.814 640.732 404.514 642.594 405.502C644.455 406.489 642.559 411.863 642.842 414.816C643.13 417.532 646.601 420.208 648.816 421.203C650.33 421.947 652.222 421.638 653.871 421.678C655.755 421.723 657.636 421.886 659.414 421.457C661.192 421.029 662.521 419.647 664.077 418.623C666.474 416.913 669.085 416.151 672.023 416.457C675.079 416.766 678.015 417.19 681.073 417.381C682.722 417.421 685.562 416.899 685.982 419.03C686.299 420.57 686.024 422.213 686.341 423.752C686.968 427.066 689.234 425.942 691.942 426.007C694.65 426.072 694.717 428.194 695.376 430.213C696.472 433.656 698.95 433.48 702.012 433.553C704.132 433.604 706.251 433.655 708.374 433.588C712.033 433.322 714.357 429.725 714.357 429.725C714.357 429.725 719.383 421.598 721.817 418.357C724.251 415.116 725.371 407.72 725.509 401.95C725.647 396.18 717.835 387.863 717.835 387.863C717.835 387.863 707.438 374.3 705.601 372.253C703.765 370.206 705.002 367.761 704.349 365.507C703.814 363.256 701.96 366.864 699.944 367.405C697.928 367.945 698.796 375.978 698.768 377.156C698.74 378.333 696.273 378.039 695.017 376.359C693.761 374.679 692.928 375.013 691.069 373.908C689.211 372.803 688.081 370.773 687.922 367.588C687.88 364.406 684.558 365.386 680.792 365.178C677.027 364.97 678.53 366.185 677.775 368.17C677.273 369.454 675.857 369.537 674.677 369.627C674.323 369.619 674.085 369.731 673.967 369.728ZM753.273 447.978L753.153 448.093C751.821 449.592 747.81 454.681 750.157 455.09C752.386 455.497 755.181 456.86 756.631 455.363C758.086 453.631 757.649 452.206 761.928 450.659C764.067 449.886 765.989 443.451 765.989 443.451C765.989 443.451 765.339 441.079 763.959 439.633C762.807 438.545 759.885 442.481 758.8 443.515C756.994 445.121 754.843 446.366 753.273 447.978ZM772.52 436.421C773.403 433.968 775.136 435.423 775.178 433.657C775.22 431.89 770.115 428.587 768.386 427.014C764.923 423.985 768.071 430.305 767.207 431.934C766.102 433.793 765.985 433.79 766.755 436.047C766.977 436.641 767.498 439.482 768.081 439.731C771.468 440.991 771.633 438.992 772.52 436.421Z" stroke="#475566" stroke-opacity="0.3" stroke-width="2" mask="url(#path-2-inside-1_405_5203)"/>
<mask id="path-3-inside-2_405_5203" fill="white">
<path d="M252.885 285.293C255.919 286.544 249.316 286.739 248.256 286.713C247.078 286.685 245.419 287.117 244.861 285.807C244.864 285.69 244.763 284.98 244.78 284.274C244.816 282.743 243.908 281.307 246.829 282.32C249.047 283.198 251.136 284.544 252.885 285.293ZM767.679 426.997C764.216 423.968 767.364 430.288 766.5 431.917C765.395 433.776 765.278 433.773 766.048 436.03C766.27 436.624 766.791 439.465 767.374 439.714C770.643 440.971 770.929 438.857 771.813 436.404C772.696 433.951 774.429 435.406 774.471 433.64C774.513 431.873 769.526 428.573 767.679 426.997ZM89.9969 248.282C89.9969 248.282 92.3978 261.182 95.5913 260.669C102.214 259.65 97.3697 255.292 91.7633 248.324C91.3063 247.724 89.3609 245.321 89.9969 248.282ZM359.191 156.23C357.778 156.197 356.376 155.692 354.839 155.891C353.538 156.095 353.973 157.637 354.186 158.585C354.508 159.889 354.718 160.954 354.805 162.252C354.796 162.605 354.785 163.077 354.777 163.43C354.754 164.372 354.712 166.138 356.007 166.169C357.891 166.214 359.778 166.142 361.665 166.069C362.61 165.974 363.658 166.47 364.379 165.898C366.056 164.76 366.799 163.247 369.045 162.947C369.99 162.852 372.569 163.385 372.721 161.975C372.735 161.386 372.169 155.481 371.244 154.752C369.161 153.17 363.074 156.441 359.191 156.23ZM382.107 202.966C385.573 200.929 388.159 196.278 388.159 196.278C388.159 196.278 389.088 186.992 384.744 191.247C384.744 191.247 379.952 194.549 379.77 197.255C379.702 200.081 378.639 205.122 382.107 202.966ZM505.113 139.107C506.036 139.954 507.196 140.689 508.004 141.415C509.621 142.75 511.359 143.97 513.218 145.075C513.798 145.442 516.467 147.156 515.806 145.255C515.366 143.948 514.337 142.627 513.538 141.548C511.94 139.389 512.21 137.981 512.277 135.155C512.345 132.329 518.054 130.109 518.054 130.109C537.715 120.919 519.451 125.901 516.616 126.187C513.902 126.357 511.185 126.646 509.761 127.083C508.336 127.52 505.067 131.212 503.46 134.355C502.966 135.286 503.173 136.469 503.504 137.419C503.964 137.902 504.539 138.505 505.113 139.107ZM390.125 187.959C390.933 188.686 391.737 189.53 392.186 190.483C392.743 191.792 392.942 193.329 393.262 194.75C393.788 197.355 392.204 199.556 390.746 201.406C389.411 203.024 387.594 205.101 389.909 206.806C393.038 209.002 397.281 204.037 400.393 201.991C402.788 200.398 401.681 197.426 400.313 195.508C398.608 192.875 396.542 190.587 395.553 187.618C394.679 184.769 392.725 182.719 391.015 180.322C389.759 178.642 387.976 179.307 387.196 182.351C386.545 184.928 388.395 186.386 390.125 187.959ZM218.35 275.982C211.924 278.656 223.694 279.173 223.694 279.173C226.043 279.465 228.393 279.757 230.616 280.4C231.317 280.652 232.02 280.787 232.601 281.154C233.529 281.765 234.21 282.842 235.261 283.221C236.66 283.843 239.52 282.498 240.942 282.179C246.981 280.91 231.09 275.345 228.281 274.57C225.472 273.796 224.777 273.308 218.35 275.982ZM653.061 342.363C652.811 342.946 652.679 343.532 652.433 343.998C651.925 345.517 651.891 346.93 653.643 347.561C656.918 348.582 656.354 347.508 659.702 345.468C660.3 345.129 662.091 344.111 661.993 343.284C661.893 342.575 660.362 342.538 659.781 342.171C659.204 341.685 658.629 341.083 657.923 341.066C656.984 340.925 656.041 340.903 655.097 340.998C654.037 340.973 653.439 341.312 653.061 342.363ZM757.975 443.495C756.287 445.104 754.139 446.231 752.569 447.843L752.448 447.958C751.116 449.458 747.106 454.546 749.453 454.955C751.682 455.362 754.477 456.725 755.927 455.228C757.382 453.496 756.945 452.072 761.224 450.525C763.363 449.751 765.285 443.317 765.285 443.317C765.285 443.317 764.635 440.945 763.255 439.498C761.865 438.522 758.94 442.576 757.975 443.495ZM677.12 341.408C680.024 343.127 681.013 346.096 681.543 348.583C681.966 350.596 684.442 350.538 686.332 350.347C687.512 350.258 688.695 350.051 689.752 350.194C691.162 350.345 692.446 350.847 693.36 352.048C694.504 353.489 694.818 355.146 695.723 356.699C696.286 357.773 697.195 359.209 698.734 358.892C700.158 358.455 701.605 357.076 702.746 358.635C704.344 360.794 705.191 359.872 705.191 359.872C705.67 359.53 709.374 357.38 711.107 358.835C721.151 367.441 716.944 361.096 714.432 357.737C711.92 354.377 705.442 349.391 702.568 346.377C699.695 343.363 693.627 345.809 690.342 345.259C687.056 344.709 688.186 341.791 686.468 339.747C684.749 337.702 677.633 339.653 676.004 338.789C674.375 337.925 673.56 337.552 673.613 335.315C673.622 334.961 672.986 332.001 672.136 333.041C671.771 333.503 671.976 334.804 671.962 335.393C671.939 336.335 671.917 337.277 672.012 338.222C672.429 340.471 674.218 339.571 677.12 341.408ZM609.808 303.505C609.337 303.494 608.748 303.48 608.277 303.469C608.274 303.587 608.274 303.587 608.272 303.704C608.226 305.588 607.71 307.461 607.898 309.469C608.082 311.594 609.335 313.391 609.756 315.522C610.075 316.944 610.28 318.245 610.363 319.661C610.363 319.661 614.881 332.729 621.742 331.598C626.354 330.883 618.533 322.92 615.203 319.305C611.872 315.691 611.722 312.152 613.34 308.539C614.958 304.925 617.792 309.588 622.779 312.889C627.767 316.189 625.793 314.964 630.039 309.881C633.435 305.839 631.899 301.089 630.424 298.697C623.872 301.722 616.876 303.557 609.808 303.505ZM668.147 307.731C666.676 305.221 663.883 303.741 662.173 301.343C660.803 299.543 659.62 299.75 658.011 293.114C656.285 286.474 656.676 294.731 656.224 298.844C655.772 302.957 659.462 306.345 659.462 306.345C662.094 309.589 660.237 313.315 661.801 316.887C662.583 318.673 663.718 320.468 664.739 322.142C665.305 323.098 666.563 324.66 667.764 323.746C669.323 322.605 669.017 320.595 669.054 319.064C669.144 315.295 669.504 310.12 668.147 307.731ZM637.92 330.1C636.122 331.353 634.44 332.727 632.758 334.1C630.596 335.816 632.552 337.748 633.449 339.655C633.673 340.131 634.013 340.728 634.475 341.093C635.283 341.819 636.34 341.962 637.279 342.103C637.396 342.106 637.397 342.106 637.514 342.108C639.042 342.263 640.573 342.3 642.104 342.336C643.164 342.362 644.341 342.39 645.412 341.944C646.363 341.614 646.971 340.803 647.692 340.231C649.013 339.203 649.276 338.031 649.54 336.859C650.323 333.696 650.169 330.276 650.245 327.096C650.381 321.444 649.531 322.484 648.646 320.106C648.206 318.8 644.165 320.235 642.485 321.491C640.806 322.746 641.694 325.006 641.537 326.652C641.486 328.772 639.358 329.074 637.92 330.1ZM647.334 355.186C646.159 355.041 643.675 355.452 641.477 353.75C639.279 352.048 629.141 352.276 629.141 352.276C629.141 352.276 625.605 352.309 626.147 349.377C626.688 346.444 625.27 346.646 620.973 339.12C616.676 331.594 616.787 336.781 609.894 329.429C603.001 322.076 607.183 329.482 608.528 332.342C609.873 335.202 612.965 338.928 612.965 338.928C613.307 339.408 613.652 339.769 613.994 340.249C615.598 342.172 617.198 344.214 618.802 346.137C619.603 347.099 620.405 348.061 621.207 349.023C622.126 349.987 623.281 350.958 623.724 352.147C624.167 353.335 624.01 354.981 624.929 355.946C625.734 356.79 627.029 356.821 628.092 356.728C632.687 356.721 637.274 357.066 641.984 357.179C668.835 357.705 648.508 355.332 647.334 355.186ZM498.653 369.416C498.027 370.932 495.061 371.804 493.502 372.945C491.943 374.086 492.209 377.745 491.941 383.983C491.899 385.749 493.837 398.285 496.886 393.999C496.888 393.881 500.91 388.322 501.104 385.145C501.301 381.851 504.088 378.618 505.201 376.406C506.315 374.194 505.796 371.236 503.675 366.355C501.553 361.473 498.653 369.416 498.653 369.416Z"/>
</mask>
<path d="M252.885 285.293C255.919 286.544 249.316 286.739 248.256 286.713C247.078 286.685 245.419 287.117 244.861 285.807C244.864 285.69 244.763 284.98 244.78 284.274C244.816 282.743 243.908 281.307 246.829 282.32C249.047 283.198 251.136 284.544 252.885 285.293ZM767.679 426.997C764.216 423.968 767.364 430.288 766.5 431.917C765.395 433.776 765.278 433.773 766.048 436.03C766.27 436.624 766.791 439.465 767.374 439.714C770.643 440.971 770.929 438.857 771.813 436.404C772.696 433.951 774.429 435.406 774.471 433.64C774.513 431.873 769.526 428.573 767.679 426.997ZM89.9969 248.282C89.9969 248.282 92.3978 261.182 95.5913 260.669C102.214 259.65 97.3697 255.292 91.7633 248.324C91.3063 247.724 89.3609 245.321 89.9969 248.282ZM359.191 156.23C357.778 156.197 356.376 155.692 354.839 155.891C353.538 156.095 353.973 157.637 354.186 158.585C354.508 159.889 354.718 160.954 354.805 162.252C354.796 162.605 354.785 163.077 354.777 163.43C354.754 164.372 354.712 166.138 356.007 166.169C357.891 166.214 359.778 166.142 361.665 166.069C362.61 165.974 363.658 166.47 364.379 165.898C366.056 164.76 366.799 163.247 369.045 162.947C369.99 162.852 372.569 163.385 372.721 161.975C372.735 161.386 372.169 155.481 371.244 154.752C369.161 153.17 363.074 156.441 359.191 156.23ZM382.107 202.966C385.573 200.929 388.159 196.278 388.159 196.278C388.159 196.278 389.088 186.992 384.744 191.247C384.744 191.247 379.952 194.549 379.77 197.255C379.702 200.081 378.639 205.122 382.107 202.966ZM505.113 139.107C506.036 139.954 507.196 140.689 508.004 141.415C509.621 142.75 511.359 143.97 513.218 145.075C513.798 145.442 516.467 147.156 515.806 145.255C515.366 143.948 514.337 142.627 513.538 141.548C511.94 139.389 512.21 137.981 512.277 135.155C512.345 132.329 518.054 130.109 518.054 130.109C537.715 120.919 519.451 125.901 516.616 126.187C513.902 126.357 511.185 126.646 509.761 127.083C508.336 127.52 505.067 131.212 503.46 134.355C502.966 135.286 503.173 136.469 503.504 137.419C503.964 137.902 504.539 138.505 505.113 139.107ZM390.125 187.959C390.933 188.686 391.737 189.53 392.186 190.483C392.743 191.792 392.942 193.329 393.262 194.75C393.788 197.355 392.204 199.556 390.746 201.406C389.411 203.024 387.594 205.101 389.909 206.806C393.038 209.002 397.281 204.037 400.393 201.991C402.788 200.398 401.681 197.426 400.313 195.508C398.608 192.875 396.542 190.587 395.553 187.618C394.679 184.769 392.725 182.719 391.015 180.322C389.759 178.642 387.976 179.307 387.196 182.351C386.545 184.928 388.395 186.386 390.125 187.959ZM218.35 275.982C211.924 278.656 223.694 279.173 223.694 279.173C226.043 279.465 228.393 279.757 230.616 280.4C231.317 280.652 232.02 280.787 232.601 281.154C233.529 281.765 234.21 282.842 235.261 283.221C236.66 283.843 239.52 282.498 240.942 282.179C246.981 280.91 231.09 275.345 228.281 274.57C225.472 273.796 224.777 273.308 218.35 275.982ZM653.061 342.363C652.811 342.946 652.679 343.532 652.433 343.998C651.925 345.517 651.891 346.93 653.643 347.561C656.918 348.582 656.354 347.508 659.702 345.468C660.3 345.129 662.091 344.111 661.993 343.284C661.893 342.575 660.362 342.538 659.781 342.171C659.204 341.685 658.629 341.083 657.923 341.066C656.984 340.925 656.041 340.903 655.097 340.998C654.037 340.973 653.439 341.312 653.061 342.363ZM757.975 443.495C756.287 445.104 754.139 446.231 752.569 447.843L752.448 447.958C751.116 449.458 747.106 454.546 749.453 454.955C751.682 455.362 754.477 456.725 755.927 455.228C757.382 453.496 756.945 452.072 761.224 450.525C763.363 449.751 765.285 443.317 765.285 443.317C765.285 443.317 764.635 440.945 763.255 439.498C761.865 438.522 758.94 442.576 757.975 443.495ZM677.12 341.408C680.024 343.127 681.013 346.096 681.543 348.583C681.966 350.596 684.442 350.538 686.332 350.347C687.512 350.258 688.695 350.051 689.752 350.194C691.162 350.345 692.446 350.847 693.36 352.048C694.504 353.489 694.818 355.146 695.723 356.699C696.286 357.773 697.195 359.209 698.734 358.892C700.158 358.455 701.605 357.076 702.746 358.635C704.344 360.794 705.191 359.872 705.191 359.872C705.67 359.53 709.374 357.38 711.107 358.835C721.151 367.441 716.944 361.096 714.432 357.737C711.92 354.377 705.442 349.391 702.568 346.377C699.695 343.363 693.627 345.809 690.342 345.259C687.056 344.709 688.186 341.791 686.468 339.747C684.749 337.702 677.633 339.653 676.004 338.789C674.375 337.925 673.56 337.552 673.613 335.315C673.622 334.961 672.986 332.001 672.136 333.041C671.771 333.503 671.976 334.804 671.962 335.393C671.939 336.335 671.917 337.277 672.012 338.222C672.429 340.471 674.218 339.571 677.12 341.408ZM609.808 303.505C609.337 303.494 608.748 303.48 608.277 303.469C608.274 303.587 608.274 303.587 608.272 303.704C608.226 305.588 607.71 307.461 607.898 309.469C608.082 311.594 609.335 313.391 609.756 315.522C610.075 316.944 610.28 318.245 610.363 319.661C610.363 319.661 614.881 332.729 621.742 331.598C626.354 330.883 618.533 322.92 615.203 319.305C611.872 315.691 611.722 312.152 613.34 308.539C614.958 304.925 617.792 309.588 622.779 312.889C627.767 316.189 625.793 314.964 630.039 309.881C633.435 305.839 631.899 301.089 630.424 298.697C623.872 301.722 616.876 303.557 609.808 303.505ZM668.147 307.731C666.676 305.221 663.883 303.741 662.173 301.343C660.803 299.543 659.62 299.75 658.011 293.114C656.285 286.474 656.676 294.731 656.224 298.844C655.772 302.957 659.462 306.345 659.462 306.345C662.094 309.589 660.237 313.315 661.801 316.887C662.583 318.673 663.718 320.468 664.739 322.142C665.305 323.098 666.563 324.66 667.764 323.746C669.323 322.605 669.017 320.595 669.054 319.064C669.144 315.295 669.504 310.12 668.147 307.731ZM637.92 330.1C636.122 331.353 634.44 332.727 632.758 334.1C630.596 335.816 632.552 337.748 633.449 339.655C633.673 340.131 634.013 340.728 634.475 341.093C635.283 341.819 636.34 341.962 637.279 342.103C637.396 342.106 637.397 342.106 637.514 342.108C639.042 342.263 640.573 342.3 642.104 342.336C643.164 342.362 644.341 342.39 645.412 341.944C646.363 341.614 646.971 340.803 647.692 340.231C649.013 339.203 649.276 338.031 649.54 336.859C650.323 333.696 650.169 330.276 650.245 327.096C650.381 321.444 649.531 322.484 648.646 320.106C648.206 318.8 644.165 320.235 642.485 321.491C640.806 322.746 641.694 325.006 641.537 326.652C641.486 328.772 639.358 329.074 637.92 330.1ZM647.334 355.186C646.159 355.041 643.675 355.452 641.477 353.75C639.279 352.048 629.141 352.276 629.141 352.276C629.141 352.276 625.605 352.309 626.147 349.377C626.688 346.444 625.27 346.646 620.973 339.12C616.676 331.594 616.787 336.781 609.894 329.429C603.001 322.076 607.183 329.482 608.528 332.342C609.873 335.202 612.965 338.928 612.965 338.928C613.307 339.408 613.652 339.769 613.994 340.249C615.598 342.172 617.198 344.214 618.802 346.137C619.603 347.099 620.405 348.061 621.207 349.023C622.126 349.987 623.281 350.958 623.724 352.147C624.167 353.335 624.01 354.981 624.929 355.946C625.734 356.79 627.029 356.821 628.092 356.728C632.687 356.721 637.274 357.066 641.984 357.179C668.835 357.705 648.508 355.332 647.334 355.186ZM498.653 369.416C498.027 370.932 495.061 371.804 493.502 372.945C491.943 374.086 492.209 377.745 491.941 383.983C491.899 385.749 493.837 398.285 496.886 393.999C496.888 393.881 500.91 388.322 501.104 385.145C501.301 381.851 504.088 378.618 505.201 376.406C506.315 374.194 505.796 371.236 503.675 366.355C501.553 361.473 498.653 369.416 498.653 369.416Z" stroke="#475566" stroke-opacity="0.5" stroke-width="2" mask="url(#path-3-inside-2_405_5203)"/>
</svg>
