<svg width="544" height="272" viewBox="0 0 544 272" fill="none" xmlns="http://www.w3.org/2000/svg">
<circle cx="421" cy="38" r="10" fill="white" fill-opacity="0.2"/>
<circle cx="421" cy="38" r="22" fill="white" fill-opacity="0.1"/>
<circle cx="421" cy="38" r="38" fill="white" fill-opacity="0.05"/>
<circle cx="421" cy="38" r="3" fill="white"/>
<path d="M453.162 38.646L451.37 40.466V43H449.97V33.2H451.37V38.674L456.69 33.2H458.286L454.1 37.61L458.552 43H456.914L453.162 38.646ZM465.88 40.55H460.672L459.594 43H458.152L462.59 33.2H463.976L468.428 43H466.958L465.88 40.55ZM465.39 39.43L463.276 34.628L461.162 39.43H465.39ZM476.442 43L474.328 39.99C474.067 40.0087 473.861 40.018 473.712 40.018H471.29V43H469.89V33.2L473.712 33.2C474.981 33.2 475.98 33.5033 476.708 34.11C477.436 34.7167 477.8 35.552 477.8 36.616C477.8 37.372 477.613 38.016 477.24 38.548C476.867 39.08 476.335 39.4673 475.644 39.71L477.968 43H476.442ZM473.67 38.828C474.557 38.828 475.233 38.6367 475.7 38.254C476.167 37.8713 476.4 37.3253 476.4 36.616C476.4 35.9067 476.167 35.3653 475.7 34.992C475.233 34.6093 474.557 34.418 473.67 34.418H471.29V38.828H473.67ZM486.306 40.55H481.098L480.02 43H478.578L483.016 33.2H484.402L488.854 43H487.384L486.306 40.55ZM485.816 39.43L483.702 34.628L481.588 39.43H485.816ZM496.969 38.044H498.313V41.866C497.828 42.2673 497.263 42.5753 496.619 42.79C495.975 43.0047 495.303 43.112 494.603 43.112C493.614 43.112 492.722 42.8973 491.929 42.468C491.136 42.0293 490.51 41.432 490.053 40.676C489.605 39.9107 489.381 39.052 489.381 38.1C489.381 37.148 489.605 36.2893 490.053 35.524C490.51 34.7587 491.136 34.1613 491.929 33.732C492.732 33.3027 493.632 33.088 494.631 33.088C495.415 33.088 496.124 33.2187 496.759 33.48C497.403 33.732 497.949 34.1053 498.397 34.6L497.529 35.468C496.745 34.712 495.798 34.334 494.687 34.334C493.94 34.334 493.268 34.4973 492.671 34.824C492.083 35.1413 491.621 35.5893 491.285 36.168C490.949 36.7373 490.781 37.3813 490.781 38.1C490.781 38.8093 490.949 39.4533 491.285 40.032C491.621 40.6013 492.083 41.0493 492.671 41.376C493.268 41.7027 493.936 41.866 494.673 41.866C495.55 41.866 496.316 41.656 496.969 41.236V38.044ZM507.237 40.55H502.029L500.951 43H499.509L503.947 33.2H505.333L509.785 43H508.315L507.237 40.55ZM506.747 39.43L504.633 34.628L502.519 39.43H506.747ZM519.675 33.2V43H518.527L512.647 35.692V43H511.247V33.2L512.395 33.2L518.275 40.508V33.2H519.675ZM522.609 33.2H526.739C527.775 33.2 528.694 33.4053 529.497 33.816C530.299 34.2267 530.92 34.8053 531.359 35.552C531.807 36.2893 532.031 37.1387 532.031 38.1C532.031 39.0613 531.807 39.9153 531.359 40.662C530.92 41.3993 530.299 41.9733 529.497 42.384C528.694 42.7947 527.775 43 526.739 43H522.609V33.2ZM526.655 41.782C527.448 41.782 528.143 41.628 528.741 41.32C529.347 41.012 529.814 40.5827 530.141 40.032C530.467 39.472 530.631 38.828 530.631 38.1C530.631 37.372 530.467 36.7327 530.141 36.182C529.814 35.622 529.347 35.188 528.741 34.88C528.143 34.572 527.448 34.418 526.655 34.418H524.009V41.782H526.655ZM540.282 40.55H535.074L533.996 43H532.554L536.992 33.2H538.378L542.83 43H541.36L540.282 40.55ZM539.792 39.43L537.678 34.628L535.564 39.43H539.792Z" fill="white"/>
<path opacity="0.5" d="M105.927 197.583L420.264 37.4948" stroke="white" stroke-linejoin="round" stroke-dasharray="2 4"/>
<path d="M223.21 133.125L226.564 134.396L225.878 134.74C225.692 134.874 225.636 135.067 225.707 135.255L226.736 137.25C226.804 137.375 226.87 137.436 226.997 137.431C227.126 137.489 227.19 137.487 227.314 137.419L234.422 133.779L234.45 132.825L234.528 131.551C234.521 131.36 234.707 131.226 234.836 131.285C234.963 131.28 235.029 131.341 235.097 131.465C235.099 131.529 235.165 131.59 235.168 131.653L234.681 140.571C234.876 140.691 235.132 140.744 235.32 140.674C235.635 140.598 235.938 140.205 236.104 139.563L239.087 129.407L239.204 129.148C239.26 128.955 239.448 128.884 239.578 128.943C239.771 128.999 239.841 129.187 239.783 129.317L239.501 130.281L239.162 131.374L244.709 128.494C246.331 127.669 247.095 126.051 246.478 124.867C246.137 124.244 245.485 123.824 244.785 123.787C244.018 123.689 243.198 123.847 242.514 124.255L236.28 127.479L229.258 125.013C228.357 124.73 227.659 124.756 227.229 125.154C226.86 125.486 226.626 126.003 226.645 126.511C226.65 126.638 226.718 126.763 226.848 126.821L231.602 129.819L228.984 131.189L224.498 130.216C224.307 130.223 224.119 130.294 224 130.489L222.996 132.498C222.876 132.693 222.949 132.945 223.21 133.125C223.208 133.062 223.208 133.062 223.21 133.125Z" fill="white"/>
<circle cx="392" cy="194" r="12" fill="#9FCCFF" fill-opacity="0.1"/>
<circle cx="392" cy="194" r="5" fill="#9FCCFF" fill-opacity="0.3"/>
<path d="M392.932 193.821C392.932 193.151 392.398 192.615 391.696 192.615C390.994 192.615 390.432 193.124 390.432 193.794C390.432 194.464 390.965 195 391.668 195C392.342 195 392.904 194.464 392.932 193.821Z" fill="#9FCCFF"/>
<path d="M396.304 176.777C394.506 175.088 391.78 174.445 389.251 175.544C387.425 176.348 386.048 177.956 385.655 179.859C385.543 180.314 385.486 180.797 385.486 181.252C385.486 182.994 386.161 184.736 387.285 186.103L391.724 191.436L396.304 186.21C398.664 183.53 399.029 179.349 396.304 176.777ZM389.729 178.787C390.937 177.661 392.904 177.688 394.084 178.84C395.264 179.993 395.236 181.869 394.028 182.994C392.82 184.12 390.853 184.093 389.673 182.94C389.083 182.351 388.802 181.601 388.802 180.85C388.802 180.1 389.111 179.349 389.729 178.787Z" fill="#9FCCFF"/>
<circle cx="116" cy="178" r="12" fill="#9FCCFF" fill-opacity="0.1"/>
<circle cx="116" cy="178" r="5" fill="#9FCCFF" fill-opacity="0.3"/>
<path d="M116.932 177.821C116.932 177.151 116.398 176.615 115.696 176.615C114.994 176.615 114.432 177.124 114.432 177.794C114.432 178.464 114.965 179 115.668 179C116.342 179 116.904 178.464 116.932 177.821Z" fill="#9FCCFF"/>
<path d="M120.304 160.777C118.506 159.088 115.78 158.445 113.251 159.544C111.425 160.348 110.048 161.956 109.655 163.859C109.543 164.314 109.486 164.797 109.486 165.252C109.486 166.994 110.161 168.736 111.285 170.103L115.724 175.436L120.304 170.21C122.664 167.53 123.029 163.349 120.304 160.777ZM113.729 162.787C114.937 161.661 116.904 161.688 118.084 162.84C119.264 163.993 119.236 165.869 118.028 166.994C116.82 168.12 114.853 168.093 113.673 166.94C113.083 166.351 112.802 165.601 112.802 164.85C112.802 164.1 113.111 163.349 113.729 162.787Z" fill="#9FCCFF"/>
<circle cx="128" cy="257" r="12" fill="#9FCCFF" fill-opacity="0.1"/>
<circle cx="128" cy="257" r="5" fill="#9FCCFF" fill-opacity="0.3"/>
<path d="M128.932 256.821C128.932 256.151 128.398 255.615 127.696 255.615C126.994 255.615 126.432 256.124 126.432 256.794C126.432 257.464 126.965 258 127.668 258C128.342 258 128.904 257.464 128.932 256.821Z" fill="#9FCCFF"/>
<path d="M132.304 239.777C130.506 238.088 127.78 237.445 125.251 238.544C123.425 239.348 122.048 240.956 121.655 242.859C121.543 243.314 121.486 243.797 121.486 244.252C121.486 245.994 122.161 247.736 123.285 249.103L127.724 254.436L132.304 249.21C134.664 246.53 135.029 242.349 132.304 239.777ZM125.729 241.787C126.937 240.661 128.904 240.688 130.084 241.84C131.264 242.993 131.236 244.869 130.028 245.994C128.82 247.12 126.853 247.093 125.673 245.94C125.083 245.351 124.802 244.601 124.802 243.85C124.802 243.1 125.111 242.349 125.729 241.787Z" fill="#9FCCFF"/>
<circle cx="314" cy="54" r="12" fill="#9FCCFF" fill-opacity="0.1"/>
<circle cx="314" cy="54" r="5" fill="#9FCCFF" fill-opacity="0.3"/>
<path d="M314.932 53.8209C314.932 53.1509 314.398 52.6149 313.696 52.6149C312.994 52.6149 312.432 53.1241 312.432 53.7941C312.432 54.464 312.965 55 313.668 55C314.342 55 314.904 54.464 314.932 53.8209Z" fill="#9FCCFF"/>
<path d="M318.304 36.7768C316.506 35.0884 313.78 34.4453 311.251 35.544C309.425 36.348 308.048 37.9559 307.655 39.8586C307.543 40.3142 307.486 40.7966 307.486 41.2522C307.486 42.9941 308.161 44.736 309.285 46.1028L313.724 51.4357L318.304 46.21C320.664 43.5301 321.029 39.3495 318.304 36.7768ZM311.729 38.7867C312.937 37.6611 314.904 37.6879 316.084 38.8403C317.264 39.9926 317.236 41.8685 316.028 42.9941C314.82 44.1196 312.853 44.0928 311.673 42.9405C311.083 42.3509 310.802 41.6006 310.802 40.8502C310.802 40.0998 311.111 39.3495 311.729 38.7867Z" fill="#9FCCFF"/>
<circle cx="384" cy="115" r="12" fill="#9FCCFF" fill-opacity="0.1"/>
<circle cx="384" cy="115" r="5" fill="#9FCCFF" fill-opacity="0.3"/>
<path d="M384.932 114.821C384.932 114.151 384.398 113.615 383.696 113.615C382.994 113.615 382.432 114.125 382.432 114.795C382.432 115.465 382.965 116 383.668 116C384.342 116 384.904 115.465 384.932 114.821Z" fill="#9FCCFF"/>
<path d="M388.304 97.7773C386.506 96.0889 383.78 95.4458 381.251 96.5445C379.425 97.3485 378.048 98.9564 377.655 100.859C377.543 101.315 377.486 101.797 377.486 102.253C377.486 103.995 378.161 105.737 379.285 107.103L383.724 112.436L388.304 107.21C390.664 104.531 391.029 100.35 388.304 97.7773ZM381.729 99.7872C382.937 98.6616 384.904 98.6884 386.084 99.8408C387.264 100.993 387.236 102.869 386.028 103.995C384.82 105.12 382.853 105.093 381.673 103.941C381.083 103.351 380.802 102.601 380.802 101.851C380.802 101.1 381.111 100.35 381.729 99.7872Z" fill="#9FCCFF"/>
<circle cx="103" cy="199" r="16" fill="white" fill-opacity="0.1"/>
<circle cx="103" cy="199" r="8" fill="white" fill-opacity="0.3"/>
<path d="M104.914 199.113C104.914 198.041 104.059 197.184 102.935 197.184C101.812 197.184 100.912 197.999 100.912 199.07C100.912 200.142 101.767 201 102.89 201C103.969 201 104.869 200.142 104.914 199.113Z" fill="white"/>
<path d="M110.308 171.843C107.431 169.142 103.07 168.112 99.0242 169.87C96.102 171.157 93.8991 173.729 93.2697 176.774C93.0899 177.503 93 178.275 93 179.003C93 181.791 94.079 184.578 95.8772 186.764L102.98 195.297L110.308 186.936C114.085 182.648 114.669 175.959 110.308 171.843ZM99.7884 175.059C101.722 173.258 104.869 173.301 106.757 175.144C108.645 176.988 108.6 179.99 106.667 181.791C104.734 183.591 101.587 183.549 99.6985 181.705C98.7544 180.761 98.3049 179.561 98.3049 178.36C98.3049 177.16 98.7994 175.959 99.7884 175.059Z" fill="white"/>
<path d="M8.582 202.782L8.582 204H1.47L1.47 194.2H8.386V195.418H2.87L2.87 198.428H7.784V199.618H2.87L2.87 202.782H8.582ZM15.1899 204.112C14.2099 204.112 13.3232 203.897 12.5299 203.468C11.7459 203.029 11.1299 202.432 10.6819 201.676C10.2339 200.911 10.0099 200.052 10.0099 199.1C10.0099 198.148 10.2339 197.294 10.6819 196.538C11.1299 195.773 11.7506 195.175 12.5439 194.746C13.3372 194.307 14.2239 194.088 15.2039 194.088C15.9692 194.088 16.6692 194.219 17.3039 194.48C17.9386 194.732 18.4799 195.11 18.9279 195.614L18.0179 196.496C17.2806 195.721 16.3612 195.334 15.2599 195.334C14.5319 195.334 13.8739 195.497 13.2859 195.824C12.6979 196.151 12.2359 196.603 11.8999 197.182C11.5732 197.751 11.4099 198.391 11.4099 199.1C11.4099 199.809 11.5732 200.453 11.8999 201.032C12.2359 201.601 12.6979 202.049 13.2859 202.376C13.8739 202.703 14.5319 202.866 15.2599 202.866C16.3519 202.866 17.2712 202.474 18.0179 201.69L18.9279 202.572C18.4799 203.076 17.9339 203.459 17.2899 203.72C16.6552 203.981 15.9552 204.112 15.1899 204.112ZM24.9441 204.112C23.6374 204.112 22.6201 203.739 21.8921 202.992C21.1641 202.245 20.8001 201.172 20.8001 199.772L20.8001 194.2H22.2001L22.2001 199.716C22.2001 201.816 23.1194 202.866 24.9581 202.866C25.8541 202.866 26.5401 202.609 27.0161 202.096C27.4921 201.573 27.7301 200.78 27.7301 199.716L27.7301 194.2H29.0881L29.0881 199.772C29.0881 201.181 28.7241 202.259 27.9961 203.006C27.2681 203.743 26.2507 204.112 24.9441 204.112ZM37.9972 201.55H32.7892L31.7112 204H30.2692L34.7072 194.2H36.0932L40.5452 204H39.0752L37.9972 201.55ZM37.5072 200.43L35.3932 195.628L33.2792 200.43H37.5072ZM42.0071 194.2H46.1371C47.1731 194.2 48.0924 194.405 48.8951 194.816C49.6978 195.227 50.3184 195.805 50.7571 196.552C51.2051 197.289 51.4291 198.139 51.4291 199.1C51.4291 200.061 51.2051 200.915 50.7571 201.662C50.3184 202.399 49.6978 202.973 48.8951 203.384C48.0924 203.795 47.1731 204 46.1371 204H42.0071V194.2ZM46.0531 202.782C46.8464 202.782 47.5418 202.628 48.1391 202.32C48.7458 202.012 49.2124 201.583 49.5391 201.032C49.8658 200.472 50.0291 199.828 50.0291 199.1C50.0291 198.372 49.8658 197.733 49.5391 197.182C49.2124 196.622 48.7458 196.188 48.1391 195.88C47.5418 195.572 46.8464 195.418 46.0531 195.418H43.4071V202.782H46.0531ZM57.9975 204.112C57.0082 204.112 56.1168 203.897 55.3235 203.468C54.5302 203.029 53.9048 202.427 53.4475 201.662C52.9995 200.897 52.7755 200.043 52.7755 199.1C52.7755 198.157 52.9995 197.303 53.4475 196.538C53.9048 195.773 54.5302 195.175 55.3235 194.746C56.1168 194.307 57.0082 194.088 57.9975 194.088C58.9775 194.088 59.8642 194.307 60.6575 194.746C61.4508 195.175 62.0715 195.773 62.5195 196.538C62.9675 197.294 63.1915 198.148 63.1915 199.1C63.1915 200.052 62.9675 200.911 62.5195 201.676C62.0715 202.432 61.4508 203.029 60.6575 203.468C59.8642 203.897 58.9775 204.112 57.9975 204.112ZM57.9975 202.866C58.7162 202.866 59.3602 202.703 59.9295 202.376C60.5082 202.049 60.9608 201.601 61.2875 201.032C61.6235 200.453 61.7915 199.809 61.7915 199.1C61.7915 198.391 61.6235 197.751 61.2875 197.182C60.9608 196.603 60.5082 196.151 59.9295 195.824C59.3602 195.497 58.7162 195.334 57.9975 195.334C57.2788 195.334 56.6255 195.497 56.0375 195.824C55.4588 196.151 55.0015 196.603 54.6655 197.182C54.3388 197.751 54.1755 198.391 54.1755 199.1C54.1755 199.809 54.3388 200.453 54.6655 201.032C55.0015 201.601 55.4588 202.049 56.0375 202.376C56.6255 202.703 57.2788 202.866 57.9975 202.866ZM71.8833 204L69.7693 200.99C69.508 201.009 69.3027 201.018 69.1533 201.018H66.7313V204H65.3313V194.2H69.1533C70.4227 194.2 71.4213 194.503 72.1493 195.11C72.8773 195.717 73.2413 196.552 73.2413 197.616C73.2413 198.372 73.0547 199.016 72.6813 199.548C72.308 200.08 71.776 200.467 71.0853 200.71L73.4093 204H71.8833ZM69.1113 199.828C69.998 199.828 70.6747 199.637 71.1413 199.254C71.608 198.871 71.8413 198.325 71.8413 197.616C71.8413 196.907 71.608 196.365 71.1413 195.992C70.6747 195.609 69.998 195.418 69.1113 195.418H66.7313V199.828H69.1113Z" fill="white"/>
</svg>
