<svg width="207" height="398" viewBox="0 0 207 398" fill="none" xmlns="http://www.w3.org/2000/svg">
<g opacity="0.4">
<path d="M11.8466 36.3356L17.7784 31.4337C18.0303 31.2298 18.2878 31.1845 18.5332 31.251C18.7729 31.159 19.0661 31.2072 19.2993 31.3855L25.4807 35.7619C25.696 35.8936 25.7853 36.1271 25.8088 36.3324L25.8879 38.5518C25.8926 39.1392 25.2271 39.5554 24.6171 39.2539L18.7055 37.4522L12.8751 39.744C12.3356 40.0583 11.6118 39.7469 11.5892 39.1127L11.5101 36.8933C11.5524 36.7164 11.6248 36.4743 11.8466 36.3356Z" fill="#475566"/>
<path d="M18.4269 13.7219C18.7201 13.77 19.1807 13.9682 19.4618 14.1281L34.6079 23.2589C34.889 23.4188 35.0798 23.7741 35.1391 24.0727L35.3036 25.5095C35.3629 25.8081 35.111 26.012 34.8177 25.9638L18.5008 23.9784C18.2075 23.9303 17.7225 23.9557 17.417 24.0195L1.3937 27.5458C1.08821 27.6095 0.855087 27.4312 0.891732 27.0957L0.948055 25.9492C0.936747 25.6321 1.183 25.2698 1.4349 25.0659L16.9352 14.1339C17.1871 13.93 17.6007 13.7177 17.9061 13.654L18.4269 13.7219Z" fill="#475566"/>
<path d="M29.8423 23.1599L32.447 23.0707L32.3867 20.4691C32.3941 19.7698 31.7775 19.7387 31.065 19.7444C30.3525 19.75 29.7895 19.859 29.782 20.5583L29.8423 23.1599Z" fill="#475566"/>
<path d="M24.975 20.2074L27.5797 20.1181L27.5194 17.5165C27.5268 16.8173 26.9102 16.7861 26.1977 16.7918C25.4852 16.7975 24.9222 16.9065 24.9147 17.6058L24.975 20.2074Z" fill="#475566"/>
<path d="M6.86125 24.1613L4.25663 24.2505L4.19632 21.6489C4.20381 20.9497 4.76683 20.8407 5.47931 20.835C6.1918 20.8293 6.79057 20.8137 6.80094 21.5597L6.86125 24.1613Z" fill="#475566"/>
<path d="M11.5449 20.5956L8.94026 20.6849L8.87994 18.0832C8.88741 17.384 9.43824 17.3868 10.1507 17.3811C10.8632 17.3754 11.4263 17.2664 11.4846 17.994L11.5449 20.5956Z" fill="#475566"/>
<path d="M17.1929 33.6404L18.3523 40.2662C18.3814 40.63 18.6982 40.8833 19.0874 40.8946C19.4587 40.8592 19.7886 40.5719 19.7594 40.2081L20.6059 33.5087C20.5899 32.6042 19.2721 32.8958 18.9008 32.9312C18.4637 32.9383 17.129 32.7543 17.1929 33.6404Z" fill="#475566"/>
<path d="M14.3218 9.88751L16.4175 35.063C16.4636 35.9023 17.1329 36.5025 17.8934 36.4784L19.9472 36.3863C20.7076 36.3622 21.3317 35.6941 21.3815 34.8179C21.3815 34.8179 22.2072 9.80661 22.2137 9.53625C22.2588 8.07266 22.0105 6.56095 21.5405 5.18795C21.2725 4.4873 20.9567 3.80506 20.5628 3.20634C19.8587 2.0839 18.7616 -0.0661834 17.1544 1.19363C15.9729 2.1293 15.2624 4.00903 14.8404 5.34951C14.3583 6.8202 14.1695 8.339 14.3218 9.88751Z" fill="#475566"/>
<path d="M132.571 382.369C132.822 382.594 133.211 382.605 133.445 382.355C133.679 382.104 133.698 381.722 133.447 381.497C132.891 380.907 132.288 380.335 131.732 379.744C131.481 379.519 131.092 379.508 130.858 379.759C130.624 380.009 130.605 380.391 130.808 380.635C131.394 381.16 131.998 381.732 132.571 382.369ZM136.144 385.818C136.747 386.39 137.351 386.962 137.954 387.534C138.205 387.759 138.595 387.77 138.829 387.519C139.063 387.269 139.064 386.84 138.83 386.662C138.227 386.09 137.641 385.565 137.038 384.993C136.787 384.768 136.398 384.756 136.164 385.007C135.846 385.183 135.875 385.546 136.144 385.818ZM127.487 376.982C127.738 377.207 128.08 377.236 128.361 376.967C128.613 376.764 128.662 376.316 128.411 376.091C127.856 375.501 127.282 374.864 126.775 374.255C126.554 373.965 126.165 373.954 125.883 374.223C125.631 374.427 125.564 374.827 125.833 375.099C126.341 375.708 126.914 376.345 127.487 376.982ZM141.618 390.788C142.269 391.341 142.873 391.913 143.506 392.42C143.757 392.645 144.176 392.591 144.41 392.34C144.644 392.09 144.645 391.661 144.346 391.454C143.713 390.948 143.109 390.376 142.476 389.869C142.225 389.644 141.806 389.698 141.572 389.948C141.337 390.199 141.367 390.563 141.618 390.788ZM147.295 395.572C147.295 395.572 147.313 395.618 147.361 395.6C147.995 396.107 148.646 396.66 149.328 397.149C149.579 397.374 149.998 397.32 150.214 397.023C150.448 396.772 150.401 396.362 150.102 396.155C149.468 395.648 148.835 395.141 148.183 394.588C147.933 394.363 147.513 394.417 147.279 394.667C147.015 394.983 147.044 395.347 147.295 395.572ZM122.656 371.391C122.907 371.616 123.248 371.645 123.5 371.442C123.752 371.238 123.818 370.837 123.597 370.547C123.072 369.892 122.564 369.283 122.039 368.628C121.836 368.384 121.429 368.326 121.177 368.53C120.877 368.752 120.858 369.134 121.061 369.378C121.587 370.033 122.094 370.642 122.62 371.297C122.59 371.362 122.638 371.344 122.656 371.391ZM118.106 365.531C118.291 365.727 118.68 365.739 118.902 365.6C119.202 365.378 119.221 364.996 119.065 364.734C118.588 364.06 118.11 363.386 117.651 362.759C117.496 362.497 117.071 362.393 116.771 362.615C116.471 362.837 116.387 363.191 116.607 363.481C117.085 364.155 117.563 364.829 118.04 365.502C118.04 365.502 118.04 365.502 118.106 365.531ZM113.856 359.449C114.041 359.645 114.382 359.675 114.652 359.518C114.97 359.342 115.036 358.942 114.816 358.652C114.386 357.959 113.908 357.286 113.479 356.594C113.306 356.285 112.899 356.227 112.629 356.384C112.311 356.56 112.245 356.96 112.4 357.222C112.829 357.914 113.259 358.606 113.737 359.28C113.79 359.42 113.856 359.449 113.856 359.449ZM110.02 353.154C110.205 353.351 110.498 353.399 110.768 353.242C111.085 353.066 111.17 352.712 110.997 352.404C110.615 351.693 110.186 351.001 109.786 350.244C109.613 349.935 109.254 349.859 108.919 349.988C108.601 350.163 108.516 350.517 108.641 350.844C109.023 351.555 109.423 352.312 109.852 353.004C109.936 353.079 109.954 353.126 110.02 353.154ZM106.549 346.666C106.734 346.862 107.027 346.911 107.249 346.772C107.567 346.596 107.699 346.224 107.544 345.962C107.211 345.233 106.811 344.476 106.477 343.747C106.304 343.438 105.975 343.297 105.658 343.472C105.322 343.601 105.19 343.974 105.362 344.282C105.696 345.011 106.048 345.787 106.429 346.497C106.447 346.544 106.465 346.591 106.549 346.666ZM103.474 339.918C103.641 340.068 103.887 340.135 104.126 340.043C104.462 339.914 104.594 339.542 104.469 339.215L104.38 338.981C104.112 338.281 103.814 337.645 103.546 336.944C103.421 336.617 103.044 336.494 102.756 336.605C102.421 336.733 102.288 337.106 102.396 337.386C102.663 338.087 102.914 338.741 103.229 339.423L103.319 339.656C103.372 339.797 103.408 339.89 103.474 339.918ZM100.896 333.033C101.063 333.184 101.309 333.25 101.548 333.158C101.884 333.029 102.082 332.685 101.957 332.358C101.719 331.593 101.464 330.78 101.226 330.014C101.101 329.687 100.754 329.499 100.466 329.609C100.131 329.738 99.9324 330.082 100.04 330.363C100.277 331.128 100.533 331.941 100.771 332.707C100.777 332.865 100.86 332.94 100.896 333.033ZM98.8277 325.9C98.9951 326.05 99.1925 326.135 99.4321 326.043C99.7856 325.96 99.9839 325.616 99.9068 325.271C99.7169 324.487 99.5269 323.703 99.3192 322.872C99.2421 322.527 98.8952 322.338 98.5897 322.402C98.2363 322.484 98.038 322.828 98.0972 323.127C98.2871 323.911 98.4949 324.742 98.6848 325.526C98.7084 325.731 98.7441 325.825 98.8277 325.9ZM97.3224 318.657C97.4898 318.807 97.6693 318.845 97.8789 318.818C98.2323 318.736 98.4485 318.439 98.3714 318.093C98.2294 317.291 98.0874 316.488 97.9934 315.667C97.9642 315.303 97.6174 315.115 97.294 315.132C96.9406 315.214 96.7244 315.512 96.7357 315.829C96.8298 316.65 96.9718 317.452 97.1316 318.301C97.1551 318.507 97.2388 318.582 97.3224 318.657ZM96.2843 311.342C96.3858 311.463 96.5832 311.548 96.7928 311.521C97.1641 311.486 97.3803 311.189 97.3511 310.825C97.2571 310.004 97.2288 309.211 97.1348 308.39C97.1056 308.027 96.8067 307.82 96.4834 307.837C96.1121 307.872 95.8959 308.17 95.9072 308.487C95.9533 309.326 96.0474 310.147 96.1414 310.968C96.147 311.126 96.2006 311.267 96.2843 311.342ZM95.875 303.946C95.9765 304.067 96.156 304.106 96.3356 304.144C96.6589 304.127 96.9409 303.858 96.9597 303.476C96.9314 302.683 96.9333 301.825 96.9529 301.014C96.9416 300.697 96.6728 300.425 96.3316 300.396C96.0083 300.413 95.7263 300.682 95.6896 301.017C95.6699 301.828 95.7161 302.668 95.7142 303.525C95.6719 303.702 95.7913 303.871 95.875 303.946ZM70.2698 277.671C70.5208 277.896 70.91 277.908 71.144 277.657C71.378 277.406 71.3968 277.024 71.1458 276.799C70.5423 276.227 69.9868 275.637 69.4313 275.047C69.1803 274.822 68.7911 274.811 68.5392 275.014C68.3052 275.265 68.2864 275.647 68.4894 275.891C69.0929 276.462 69.6664 277.099 70.2698 277.671ZM73.825 281.074C74.4285 281.646 75.0799 282.199 75.6834 282.771C75.9344 282.996 76.3536 282.942 76.5876 282.692C76.8216 282.441 76.7925 282.077 76.5236 281.806C75.938 281.28 75.2866 280.727 74.6831 280.155C74.4321 279.93 74.043 279.919 73.8089 280.169C73.5928 280.467 73.574 280.849 73.825 281.074ZM65.1862 272.284C65.4372 272.509 65.7784 272.539 66.0303 272.335C66.2822 272.131 66.3489 271.731 66.0801 271.459C65.5725 270.85 64.999 270.213 64.4914 269.605C64.2705 269.314 63.8814 269.303 63.5815 269.525C63.3296 269.729 63.2629 270.13 63.4838 270.42C64.0873 270.992 64.5949 271.6 65.1862 272.284C65.1683 272.237 65.1683 272.237 65.1862 272.284ZM79.4725 285.923C79.4725 285.923 79.4904 285.97 79.5383 285.951C80.1719 286.458 80.8713 286.993 81.5048 287.5C81.7558 287.725 82.175 287.671 82.3912 287.374C82.6252 287.123 82.5782 286.713 82.2793 286.506C81.6457 285.999 80.9642 285.511 80.3307 285.004C80.0797 284.779 79.6605 284.833 79.4264 285.084C79.2403 285.316 79.2216 285.698 79.4725 285.923ZM60.5105 266.526C60.6957 266.723 61.0848 266.734 61.3546 266.577C61.6544 266.355 61.6732 265.973 61.4702 265.729C60.9926 265.055 60.485 264.447 60.0075 263.773C59.7865 263.483 59.4275 263.406 59.1277 263.629C58.8278 263.851 58.7432 264.205 58.9642 264.495C59.4417 265.169 59.9192 265.842 60.4447 266.498L60.5105 266.526ZM85.4143 290.392C85.4322 290.438 85.4801 290.42 85.498 290.467C86.1795 290.955 86.861 291.443 87.5725 291.866C87.8715 292.073 88.2728 291.973 88.4411 291.694C88.6572 291.396 88.5623 291.004 88.2812 290.844C87.6176 290.403 86.9361 289.914 86.2546 289.426C85.9556 289.22 85.6022 289.302 85.3682 289.552C85.152 289.849 85.2113 290.148 85.4143 290.392ZM56.2785 260.491C56.4636 260.687 56.8048 260.717 57.0746 260.56C57.3923 260.384 57.459 259.984 57.286 259.675C56.8564 258.983 56.4268 258.291 55.9972 257.599C55.8243 257.29 55.4173 257.232 55.1475 257.389C54.8298 257.565 54.7631 257.965 54.9182 258.227C55.3478 258.919 55.7952 259.658 56.2249 260.35C56.1948 260.416 56.2606 260.444 56.2785 260.491ZM91.6324 294.433C91.6503 294.479 91.716 294.508 91.716 294.508C92.4276 294.931 93.1392 295.354 93.8508 295.777C94.1318 295.937 94.5332 295.837 94.7014 295.558C94.8697 295.279 94.7747 294.887 94.4936 294.727C93.7821 294.304 93.0705 293.88 92.3589 293.457C92.0779 293.297 91.6765 293.398 91.5083 293.677C91.388 293.937 91.4472 294.236 91.6324 294.433ZM52.5201 254.113C52.7053 254.309 52.9986 254.357 53.2683 254.2C53.586 254.025 53.7185 253.653 53.5456 253.344C53.1639 252.633 52.7822 251.923 52.4306 251.147C52.2577 250.839 51.8807 250.715 51.611 250.873C51.2933 251.048 51.1608 251.42 51.3159 251.682C51.6975 252.393 52.0491 253.168 52.4308 253.879C52.4364 254.038 52.5023 254.066 52.5201 254.113ZM96.0165 296.553C96.118 296.674 96.2496 296.731 96.4113 296.723C96.7525 296.752 97.0345 296.483 97.0711 296.148C97.1387 295.318 97.1584 294.507 97.2439 293.725C97.2806 293.389 97.0117 293.117 96.6705 293.088C96.3293 293.058 95.9994 293.345 96.0107 293.662C95.9431 294.492 95.8754 295.321 95.8078 296.151C95.8435 296.244 95.915 296.431 96.0165 296.553ZM98.1926 298.074C98.2105 298.121 98.2763 298.149 98.342 298.178C99.0837 298.536 99.8432 298.941 100.585 299.299C100.914 299.44 101.249 299.311 101.418 299.033C101.568 298.707 101.443 298.38 101.162 298.22C100.42 297.862 99.6786 297.504 98.937 297.146C98.6559 296.986 98.2546 297.086 98.1042 297.412C97.9482 297.579 97.9595 297.896 98.1926 298.074ZM49.3191 247.467C49.4865 247.617 49.7797 247.665 50.0194 247.573C50.355 247.444 50.4875 247.072 50.3625 246.745C50.0287 246.016 49.7251 245.222 49.4393 244.475C49.3143 244.148 48.9373 244.025 48.6497 244.135C48.3141 244.264 48.1816 244.636 48.2888 244.916C48.5925 245.71 48.9262 246.439 49.2298 247.234C49.2176 247.345 49.2834 247.374 49.3191 247.467ZM104.963 301.26C105.029 301.289 105.065 301.382 105.179 301.392C105.968 301.732 106.74 302.025 107.529 302.364C107.858 302.506 108.224 302.312 108.344 302.052C108.495 301.726 108.304 301.371 107.993 301.276C107.221 300.983 106.432 300.643 105.708 300.332C105.379 300.19 104.995 300.337 104.893 300.645C104.737 300.812 104.778 301.064 104.963 301.26ZM46.7235 240.536C46.8908 240.686 47.1362 240.752 47.3759 240.66C47.7114 240.531 47.9097 240.187 47.7847 239.86C47.5468 239.095 47.2911 238.282 47.0533 237.516C46.9762 237.171 46.5814 237.001 46.2937 237.112C45.9403 237.194 45.7599 237.584 45.8671 237.865C46.1049 238.63 46.3606 239.443 46.5985 240.209C46.6041 240.367 46.6399 240.461 46.7235 240.536ZM96.8225 289.173C96.9062 289.248 97.0378 289.304 97.1694 289.361C97.5106 289.39 97.8104 289.168 97.895 288.814C98.0284 288.013 98.1619 287.212 98.2774 286.364C98.3141 286.029 98.1411 285.72 97.782 285.644C97.4408 285.614 97.141 285.836 97.0386 286.143C96.9051 286.945 96.7416 287.811 96.6561 288.594C96.5838 288.836 96.6552 289.022 96.8225 289.173ZM111.927 303.944C112.01 304.019 112.076 304.047 112.142 304.076C112.962 304.35 113.716 304.596 114.535 304.871C114.846 304.966 115.23 304.819 115.314 304.465C115.417 304.158 115.274 303.784 114.915 303.707C114.113 303.48 113.341 303.187 112.57 302.894C112.258 302.799 111.875 302.946 111.773 303.253C111.718 303.542 111.759 303.794 111.927 303.944ZM44.7689 233.412C44.9362 233.562 45.1336 233.647 45.3254 233.573C45.6788 233.491 45.8771 233.147 45.8179 232.848C45.628 232.064 45.486 231.262 45.344 230.459C45.2669 230.114 44.968 229.907 44.6146 229.989C44.2611 230.071 44.045 230.368 44.1221 230.714C44.2641 231.516 44.4239 232.366 44.6138 233.15C44.6495 233.243 44.6852 233.337 44.7689 233.412ZM119.101 306.172C119.184 306.247 119.268 306.322 119.382 306.332C120.183 306.559 121.033 306.769 121.817 306.95C122.176 307.027 122.494 306.851 122.579 306.497C122.663 306.143 122.442 305.853 122.131 305.758C121.347 305.577 120.545 305.349 119.696 305.14C119.384 305.045 119.019 305.239 118.934 305.593C118.892 305.77 118.981 306.003 119.101 306.172ZM98.1973 281.842C98.281 281.917 98.3646 281.992 98.4783 282.002C98.8374 282.078 99.1372 281.856 99.2397 281.549C99.4211 280.729 99.6203 279.956 99.8674 279.165C99.9699 278.858 99.779 278.503 99.42 278.426C99.0609 278.35 98.7432 278.525 98.6586 278.879C98.4115 279.67 98.2301 280.49 98.0487 281.31C98.0064 281.486 98.0958 281.72 98.1973 281.842ZM126.431 307.803C126.515 307.878 126.647 307.935 126.76 307.945C127.592 308.108 128.424 308.271 129.238 308.387C129.597 308.463 129.897 308.241 129.982 307.887C130.018 307.551 129.797 307.261 129.486 307.166C128.672 307.05 127.84 306.888 127.057 306.706C126.697 306.63 126.398 306.852 126.313 307.206C126.193 307.467 126.282 307.7 126.431 307.803ZM43.5512 226.058C43.6528 226.18 43.8502 226.265 44.0598 226.238C44.4311 226.203 44.6651 225.952 44.6359 225.588L44.6303 225.43C44.572 224.702 44.4958 223.928 44.4196 223.154C44.4083 222.837 44.0915 222.583 43.7682 222.6C43.3969 222.636 43.1807 222.933 43.192 223.25C43.2682 224.024 43.3444 224.799 43.4206 225.573C43.3961 225.796 43.4497 225.937 43.5512 226.058ZM133.859 308.97C133.943 309.045 134.092 309.148 134.206 309.158C135.068 309.256 135.864 309.325 136.726 309.422C137.067 309.452 137.367 309.23 137.434 308.829C137.47 308.494 137.202 308.222 136.86 308.192C136.016 308.142 135.202 308.025 134.406 307.956C134.065 307.926 133.765 308.149 133.681 308.503C133.668 308.614 133.74 308.801 133.859 308.97ZM43.1119 218.728C43.2134 218.849 43.3929 218.888 43.5724 218.926C43.8958 218.909 44.1778 218.64 44.2144 218.304C44.2341 217.493 44.2538 216.682 44.2735 215.871C44.3101 215.536 44.0234 215.217 43.6521 215.253C43.3109 215.223 43.0289 215.492 43.0102 215.874C42.9905 216.685 42.9887 217.543 42.969 218.354C42.9088 218.484 43.0103 218.606 43.1119 218.728ZM100.308 274.711C100.392 274.786 100.457 274.814 100.541 274.889C100.852 274.984 101.218 274.79 101.32 274.483C101.568 273.691 101.88 272.928 102.145 272.184C102.248 271.877 102.105 271.503 101.794 271.408C101.483 271.313 101.099 271.461 100.997 271.768C100.702 272.577 100.437 273.322 100.142 274.132C100.051 274.327 100.141 274.561 100.308 274.711ZM141.36 309.465C141.462 309.587 141.593 309.643 141.755 309.635C142.599 309.686 143.425 309.69 144.299 309.676C144.623 309.659 144.905 309.39 144.941 309.054C144.93 308.737 144.661 308.465 144.32 308.436C143.494 308.431 142.667 308.427 141.823 308.376C141.482 308.347 141.2 308.616 141.164 308.951C141.205 309.203 141.259 309.343 141.36 309.465ZM43.5288 211.336C43.6303 211.458 43.7619 211.514 43.9235 211.506C44.2648 211.536 44.5646 211.313 44.6492 210.959C44.7168 210.13 44.8502 209.329 44.9837 208.528C45.0203 208.192 44.7994 207.902 44.4403 207.826C44.0991 207.796 43.7993 208.018 43.7147 208.372C43.5991 209.22 43.4657 210.021 43.3981 210.851C43.3079 211.046 43.3793 211.233 43.5288 211.336ZM103.041 267.769C103.107 267.797 103.143 267.891 103.256 267.901C103.585 268.042 103.969 267.895 104.071 267.588L104.282 267.132C104.552 266.546 104.871 265.942 105.142 265.356C105.292 265.03 105.167 264.703 104.838 264.562C104.509 264.42 104.173 264.549 104.023 264.874C103.705 265.479 103.434 266.065 103.133 266.716L102.923 267.172C102.814 267.32 102.856 267.572 103.041 267.769ZM148.904 309.354C149.006 309.476 149.203 309.561 149.365 309.552C150.221 309.491 151.029 309.449 151.886 309.388C152.257 309.353 152.473 309.055 152.462 308.738C152.451 308.421 152.134 308.168 151.81 308.185C150.972 308.293 150.164 308.335 149.307 308.396C148.984 308.413 148.702 308.682 148.731 309.046C148.749 309.092 148.821 309.279 148.904 309.354ZM44.7418 204.014C44.8255 204.089 44.9092 204.164 45.0708 204.155C45.4299 204.232 45.7297 204.01 45.8143 203.656C45.9957 202.836 46.1949 202.063 46.3763 201.244C46.4608 200.89 46.2399 200.6 45.9288 200.505C45.5697 200.428 45.2699 200.651 45.1675 200.958C44.9861 201.777 44.7389 202.569 44.5576 203.388C44.5031 203.677 44.5745 203.864 44.7418 204.014ZM106.48 261.092C106.498 261.139 106.564 261.167 106.629 261.196C106.91 261.355 107.312 261.255 107.48 260.976C107.925 260.27 108.321 259.582 108.766 258.876C108.934 258.597 108.887 258.186 108.558 258.045C108.277 257.885 107.876 257.985 107.707 258.264C107.263 258.97 106.818 259.677 106.392 260.43C106.236 260.597 106.295 260.895 106.48 261.092ZM156.408 308.563C156.557 308.666 156.755 308.751 156.964 308.724C157.803 308.616 158.623 308.462 159.492 308.289C159.845 308.207 160.061 307.91 159.984 307.565C159.907 307.219 159.608 307.013 159.255 307.095C158.434 307.249 157.614 307.403 156.775 307.511C156.422 307.593 156.206 307.89 156.217 308.207C156.271 308.348 156.324 308.488 156.408 308.563ZM46.721 196.826C46.8046 196.901 46.8704 196.929 47.002 196.986C47.3132 197.081 47.6788 196.887 47.7812 196.58C48.0284 195.788 48.3414 195.025 48.5885 194.234C48.691 193.927 48.5481 193.553 48.2369 193.459C47.9258 193.364 47.5423 193.511 47.4399 193.818C47.1448 194.628 46.8797 195.372 46.5846 196.182C46.5123 196.424 46.5536 196.676 46.721 196.826ZM163.835 306.997C164.003 307.147 164.2 307.232 164.44 307.14C165.242 306.939 166.075 306.673 166.86 306.425C167.196 306.296 167.394 305.952 167.287 305.672C167.21 305.327 166.815 305.157 166.527 305.267C165.742 305.515 164.94 305.716 164.155 305.964C163.801 306.046 163.603 306.39 163.68 306.735C163.716 306.829 163.752 306.922 163.835 306.997ZM110.613 254.792C110.63 254.839 110.678 254.82 110.696 254.867C110.995 255.073 111.349 254.991 111.565 254.694C112.075 254.016 112.538 253.356 113.066 252.725C113.282 252.428 113.205 252.083 112.954 251.857C112.655 251.651 112.284 251.686 112.068 251.984C111.557 252.662 111.047 253.34 110.536 254.018C110.368 254.296 110.427 254.595 110.613 254.792ZM49.454 189.884C49.5198 189.913 49.5555 190.006 49.6692 190.016C49.9982 190.158 50.3817 190.01 50.4842 189.703C50.7971 188.94 51.1759 188.206 51.5546 187.471C51.705 187.145 51.58 186.818 51.2989 186.659C50.9699 186.517 50.6344 186.646 50.4661 186.925C50.0874 187.659 49.7265 188.441 49.3656 189.222C49.2274 189.436 49.2688 189.688 49.454 189.884ZM171.007 304.619C171.174 304.769 171.42 304.835 171.659 304.743C172.474 304.431 173.224 304.089 174.038 303.777C174.374 303.648 174.507 303.275 174.381 302.948C174.209 302.64 173.88 302.498 173.544 302.627C172.795 302.968 172.028 303.263 171.213 303.576C170.877 303.704 170.745 304.077 170.852 304.357C170.906 304.497 170.923 304.544 171.007 304.619ZM115.361 248.951C115.379 248.998 115.379 248.998 115.361 248.951C115.63 249.223 116.049 249.169 116.283 248.919C116.811 248.288 117.405 247.685 117.999 247.082C118.233 246.831 118.252 246.449 118.001 246.224C117.75 245.999 117.361 245.987 117.127 246.238C116.533 246.841 115.957 247.491 115.411 248.075C115.147 248.391 115.176 248.755 115.361 248.951ZM52.9587 183.236C52.9766 183.283 53.0424 183.311 53.1082 183.339C53.3892 183.499 53.7906 183.399 53.9588 183.12C54.4034 182.413 54.8479 181.707 55.2925 181.001C55.4607 180.722 55.4137 180.311 55.1327 180.152C54.8516 179.992 54.4324 180.045 54.2641 180.324C53.8196 181.031 53.375 181.737 52.9305 182.443C52.7143 182.74 52.7735 183.039 52.9587 183.236ZM177.857 301.4C178.043 301.597 178.336 301.645 178.606 301.488C179.337 301.1 180.098 300.647 180.812 300.212C181.129 300.037 181.196 299.636 181.041 299.374C180.868 299.066 180.461 299.008 180.191 299.165C179.478 299.599 178.747 299.987 178.033 300.422C177.715 300.597 177.631 300.951 177.756 301.278C177.774 301.325 177.84 301.353 177.857 301.4ZM120.695 243.636C120.946 243.861 121.335 243.873 121.569 243.622C122.181 243.066 122.793 242.509 123.471 241.981C123.722 241.778 123.789 241.377 123.52 241.105C123.299 240.815 122.91 240.804 122.628 241.073C121.968 241.647 121.357 242.204 120.745 242.76C120.493 242.964 120.474 243.346 120.695 243.636ZM57.175 177.011C57.1929 177.057 57.2408 177.039 57.2587 177.086C57.5576 177.292 57.9289 177.257 58.145 176.96C58.6554 176.282 59.1836 175.65 59.7119 175.019C59.9459 174.768 59.8989 174.358 59.6479 174.133C59.3969 173.908 58.9777 173.962 58.7436 174.212C58.2154 174.843 57.6571 175.54 57.1468 176.218C56.9127 176.468 56.972 176.767 57.175 177.011ZM184.29 297.377C184.475 297.574 184.865 297.585 185.086 297.446C185.782 296.965 186.46 296.437 187.137 295.909C187.389 295.705 187.456 295.305 187.253 295.061C187.05 294.818 186.643 294.76 186.391 294.964C185.713 295.491 185.066 295.954 184.388 296.482C184.088 296.705 184.069 297.087 184.224 297.349C184.272 297.33 184.29 297.377 184.29 297.377ZM126.549 238.818C126.734 239.015 127.123 239.026 127.393 238.869C128.088 238.387 128.718 237.878 129.414 237.397C129.713 237.174 129.798 236.821 129.577 236.53C129.356 236.24 128.997 236.164 128.697 236.386C128.002 236.867 127.306 237.349 126.629 237.877C126.329 238.099 126.31 238.481 126.513 238.724C126.531 238.771 126.531 238.771 126.549 238.818ZM62.1386 171.302C62.3896 171.527 62.7787 171.538 63.0128 171.288C63.2468 171.037 63.4809 170.787 63.7328 170.583C64.0927 170.23 64.4527 169.878 64.8306 169.572C65.0646 169.322 65.0834 168.939 64.8803 168.696C64.6294 168.471 64.2402 168.46 64.0062 168.71C63.6462 169.063 63.2862 169.415 62.9262 169.767C62.6922 170.018 62.4581 170.269 62.2063 170.472C61.9064 170.695 61.8876 171.077 62.1386 171.302ZM190.162 292.605C190.413 292.83 190.802 292.842 191.036 292.591L191.6 292.053C192.038 291.617 192.428 291.2 192.866 290.764C193.1 290.513 193.071 290.149 192.868 289.906C192.617 289.681 192.228 289.669 191.994 289.92C191.604 290.338 191.214 290.755 190.758 291.144L190.242 291.664C189.912 291.951 189.893 292.333 190.162 292.605C190.144 292.559 190.144 292.559 190.162 292.605ZM132.862 234.626C133.047 234.823 133.389 234.853 133.61 234.714C134.324 234.28 135.055 233.892 135.786 233.504C136.104 233.328 136.189 232.974 136.064 232.648C135.891 232.339 135.532 232.263 135.196 232.391C134.465 232.779 133.703 233.232 132.99 233.667C132.672 233.842 132.588 234.196 132.761 234.505C132.779 234.551 132.796 234.598 132.862 234.626ZM70.3511 172.22C70.8709 172.717 71.3908 173.214 71.9106 173.711C72.1616 173.936 72.5808 173.882 72.8148 173.631C73.0489 173.381 73.0677 172.999 72.7509 172.745C72.2489 172.295 71.7291 171.798 71.2093 171.302L70.9583 171.077C70.7073 170.851 70.3181 170.84 70.0841 171.091C69.8501 171.341 69.8313 171.723 70.0343 171.967L70.3511 172.22ZM66.779 168.342C67.03 168.567 67.3712 168.597 67.6231 168.393C67.875 168.189 67.9417 167.788 67.7208 167.498C67.2132 166.89 66.6877 166.234 66.1623 165.579C65.9592 165.336 65.5522 165.278 65.3003 165.481C65.0005 165.704 64.9817 166.086 65.1848 166.329C65.7102 166.985 66.2357 167.64 66.7433 168.249C66.7612 168.295 66.779 168.342 66.779 168.342ZM75.8558 176.696C75.8737 176.743 75.9216 176.724 75.9395 176.771C76.6689 177.241 77.3805 177.664 78.14 178.069C78.421 178.229 78.8224 178.128 78.9728 177.803C79.141 177.524 79.0461 177.132 78.7171 176.99C78.0233 176.614 77.3118 176.19 76.6002 175.767C76.3013 175.561 75.8999 175.661 75.7317 175.94C75.5935 176.154 75.6528 176.452 75.8558 176.696ZM62.3252 162.445C62.5103 162.642 62.8515 162.672 63.1213 162.515C63.4212 162.292 63.5057 161.938 63.2848 161.648L61.9001 159.609C61.745 159.347 61.3201 159.242 61.0203 159.464C60.7026 159.64 60.6359 160.04 60.8568 160.331L62.2415 162.37C62.2894 162.352 62.3073 162.399 62.3252 162.445ZM67.7414 166.258C67.9924 166.483 68.3336 166.513 68.5855 166.309C69.2632 165.781 69.9108 165.318 70.5885 164.79C70.8883 164.568 70.925 164.233 70.752 163.924C70.5311 163.634 70.172 163.558 69.8722 163.78C69.1766 164.261 68.499 164.789 67.8213 165.317C67.5215 165.539 67.5027 165.921 67.7057 166.165C67.7414 166.258 67.7414 166.258 67.7414 166.258ZM58.219 156.308C58.4042 156.505 58.7454 156.534 59.0152 156.377C59.3329 156.202 59.3996 155.801 59.2266 155.493C58.797 154.8 58.3195 154.127 57.8899 153.435C57.7169 153.126 57.3099 153.068 57.0402 153.225C56.7225 153.401 56.6557 153.801 56.8108 154.063C57.2405 154.755 57.6701 155.447 58.1476 156.121C58.1833 156.214 58.2012 156.261 58.219 156.308ZM82.6209 179.723C82.7045 179.798 82.7882 179.873 82.9019 179.883C83.7517 180.093 84.5836 180.255 85.4634 180.4C85.8046 180.43 86.1044 180.207 86.189 179.853C86.2256 179.518 86.0047 179.228 85.6456 179.151C84.8316 179.035 84.0656 178.901 83.2638 178.673C82.9526 178.578 82.587 178.772 82.5024 179.126C82.43 179.368 82.5015 179.555 82.6209 179.723ZM54.3169 149.985C54.5021 150.182 54.8433 150.212 55.0651 150.073C55.3828 149.897 55.4495 149.497 55.2944 149.235C54.8648 148.543 54.4352 147.851 54.0535 147.14C53.8806 146.831 53.5215 146.755 53.2038 146.931C52.8861 147.106 52.8015 147.46 52.9745 147.769C53.4041 148.461 53.7858 149.171 54.2332 149.91C54.2511 149.957 54.269 150.004 54.3169 149.985ZM195.161 286.99C195.179 287.037 195.227 287.018 195.245 287.065C195.544 287.272 195.915 287.236 196.131 286.939C196.642 286.261 197.152 285.583 197.662 284.905C197.879 284.608 197.784 284.216 197.503 284.056C197.204 283.849 196.802 283.949 196.634 284.228C196.172 284.888 195.661 285.566 195.151 286.244C194.947 286.429 194.976 286.793 195.161 286.99ZM139.605 231.127C139.79 231.324 140.084 231.372 140.306 231.233C141.055 230.892 141.804 230.551 142.619 230.238C142.954 230.109 143.087 229.737 142.962 229.41C142.837 229.083 142.46 228.96 142.124 229.089C141.309 229.402 140.56 229.743 139.763 230.102C139.428 230.231 139.295 230.604 139.42 230.93C139.504 231.006 139.54 231.099 139.605 231.127ZM50.5764 143.654C50.7616 143.851 51.0549 143.899 51.3246 143.742C51.6423 143.566 51.7269 143.212 51.5539 142.904C51.1723 142.193 50.7427 141.501 50.3431 140.744C50.1702 140.435 49.8111 140.359 49.4755 140.487C49.1578 140.663 49.0733 141.017 49.1983 141.344C49.58 142.054 50.0274 142.793 50.4091 143.504C50.4928 143.579 50.5586 143.607 50.5764 143.654ZM90.0983 180.013C90.2656 180.163 90.463 180.248 90.6548 180.175C91.5054 179.955 92.3382 179.689 93.1531 179.376C93.4887 179.247 93.6212 178.875 93.4962 178.548C93.3711 178.221 92.9942 178.098 92.6586 178.227C91.8917 178.521 91.1068 178.769 90.352 178.952C89.9986 179.034 89.8003 179.378 89.8595 179.676C89.9789 179.845 90.0146 179.938 90.0983 180.013ZM47.0399 137.137C47.2251 137.334 47.5184 137.382 47.7881 137.225C48.1058 137.049 48.2383 136.677 48.0654 136.368C47.6837 135.658 47.2842 134.901 46.9504 134.172C46.7775 133.863 46.4005 133.74 46.0828 133.916C45.7651 134.091 45.6326 134.463 45.8056 134.772C46.1873 135.482 46.5868 136.24 46.9685 136.95C46.9562 137.062 46.9741 137.109 47.0399 137.137ZM74.0371 162.02C74.2222 162.217 74.5635 162.247 74.7853 162.108C75.4987 161.673 76.23 161.286 76.9612 160.898C77.2789 160.722 77.4114 160.35 77.2385 160.041C77.0655 159.733 76.6886 159.61 76.3709 159.785C75.5916 160.191 74.8604 160.579 74.147 161.014C73.8293 161.189 73.7447 161.543 73.9177 161.852C73.9534 161.945 73.9713 161.992 74.0371 162.02ZM43.6472 130.565C43.8324 130.762 44.1257 130.81 44.3475 130.671C44.6652 130.496 44.7977 130.124 44.6426 129.862C44.3089 129.133 43.9093 128.375 43.5756 127.647C43.4506 127.32 43.0736 127.196 42.7559 127.372C42.4382 127.547 42.2879 127.873 42.4608 128.182C42.7946 128.911 43.1941 129.668 43.5278 130.397C43.5635 130.49 43.6293 130.518 43.6472 130.565ZM199.36 280.718C199.378 280.765 199.443 280.793 199.509 280.821C199.79 280.981 200.192 280.881 200.342 280.555C200.769 279.802 201.147 279.067 201.526 278.333C201.677 278.007 201.552 277.68 201.27 277.52C200.941 277.379 200.606 277.508 200.456 277.833C200.077 278.568 199.698 279.302 199.301 279.99C199.115 280.222 199.127 280.54 199.36 280.718ZM146.652 228.422C146.819 228.572 147.065 228.639 147.304 228.547C148.089 228.299 148.874 228.051 149.725 227.832C150.078 227.75 150.276 227.406 150.199 227.06C150.122 226.715 149.775 226.527 149.44 226.655C148.637 226.857 147.804 227.123 146.972 227.389C146.636 227.518 146.438 227.862 146.563 228.189C146.533 228.254 146.568 228.347 146.652 228.422ZM40.4942 123.901C40.6794 124.098 40.9726 124.146 41.1945 124.007C41.53 123.879 41.6625 123.506 41.5375 123.179L40.5185 120.946C40.3934 120.619 40.0165 120.496 39.6809 120.624C39.3454 120.753 39.2129 121.126 39.3379 121.453L40.3569 123.686C40.3927 123.78 40.4763 123.855 40.4942 123.901ZM96.847 176.673C97.098 176.898 97.4392 176.927 97.6911 176.723C98.1949 176.316 98.6809 175.861 99.1668 175.407C99.3228 175.24 99.4967 175.12 99.6048 174.971C99.8388 174.721 99.8576 174.338 99.6066 174.113C99.3556 173.888 98.9665 173.877 98.7324 174.127C98.6244 174.276 98.4505 174.396 98.2944 174.563C97.8564 174.999 97.4006 175.389 96.9447 175.778C96.6928 175.982 96.6261 176.382 96.847 176.673C96.7991 176.691 96.7991 176.691 96.847 176.673ZM37.5329 117.164C37.7002 117.314 37.9456 117.38 38.2332 117.27C38.5687 117.141 38.7013 116.769 38.5762 116.442C38.2425 115.713 37.9388 114.919 37.6531 114.171C37.528 113.844 37.1511 113.721 36.8155 113.85C36.48 113.979 36.3475 114.351 36.4725 114.678C36.7583 115.426 37.1099 116.201 37.3957 116.949C37.4314 117.042 37.4972 117.07 37.5329 117.164ZM80.8516 158.708C81.0189 158.858 81.2642 158.924 81.456 158.851L81.5519 158.814C82.2709 158.538 83.0379 158.244 83.7748 158.014C84.1104 157.885 84.3087 157.541 84.1837 157.214C84.0586 156.888 83.7118 156.699 83.3762 156.828C82.5914 157.076 81.7764 157.389 81.0094 157.683C80.6739 157.812 80.4934 158.203 80.6006 158.483C80.7501 158.586 80.8337 158.661 80.8516 158.708ZM34.7455 110.306C34.9128 110.456 35.1582 110.522 35.3979 110.43C35.7334 110.302 35.8659 109.929 35.7588 109.649C35.473 108.902 35.1693 108.108 34.8835 107.36C34.7585 107.033 34.4295 106.892 34.0939 107.021C33.7584 107.149 33.608 107.475 33.7331 107.802C34.0188 108.549 34.3225 109.343 34.6083 110.091C34.644 110.184 34.7098 110.212 34.7455 110.306ZM154.02 226.558C154.188 226.708 154.367 226.746 154.577 226.719C155.397 226.565 156.218 226.41 157.056 226.303C157.428 226.267 157.626 225.923 157.615 225.606C157.585 225.243 157.239 225.054 156.915 225.071C156.077 225.179 155.256 225.333 154.388 225.506C154.034 225.588 153.818 225.885 153.895 226.231C153.835 226.361 153.937 226.483 154.02 226.558ZM202.487 273.946C202.571 274.021 202.637 274.05 202.703 274.078C203.014 274.173 203.397 274.025 203.5 273.718C203.795 272.909 204.06 272.164 204.337 271.308C204.44 271.001 204.249 270.645 203.938 270.55C203.627 270.456 203.261 270.65 203.158 270.957C202.911 271.748 202.646 272.493 202.351 273.302C202.279 273.544 202.32 273.796 202.487 273.946ZM32.1978 103.356C32.3651 103.506 32.6105 103.573 32.8502 103.481C33.1857 103.352 33.3361 103.026 33.259 102.681C32.9732 101.933 32.7175 101.121 32.4317 100.374C32.3067 100.047 31.9777 99.9051 31.6242 99.9872C31.2887 100.116 31.0904 100.46 31.2154 100.787C31.4533 101.553 31.7569 102.347 32.0427 103.094C32.0963 103.234 32.132 103.328 32.1978 103.356ZM101.565 170.897C101.631 170.926 101.649 170.972 101.733 171.047C102.062 171.189 102.445 171.042 102.548 170.735C102.956 169.935 103.251 169.125 103.481 168.287C103.565 167.933 103.392 167.625 103.033 167.548C102.674 167.472 102.357 167.647 102.272 168.001C102.055 168.727 101.79 169.472 101.459 170.188C101.339 170.449 101.398 170.747 101.565 170.897ZM88.1183 156.722C88.2198 156.844 88.4172 156.928 88.6269 156.902C89.4653 156.794 90.3216 156.733 91.082 156.709C91.4054 156.692 91.6873 156.423 91.724 156.088C91.7127 155.77 91.4438 155.499 91.1026 155.469C90.2764 155.465 89.4201 155.526 88.5337 155.652C88.1624 155.687 87.9463 155.984 87.9754 156.348C87.9811 156.507 88.0347 156.647 88.1183 156.722ZM161.536 225.654C161.638 225.776 161.835 225.861 161.997 225.853C162.206 225.826 162.368 225.817 162.596 225.837C163.242 225.803 163.841 225.787 164.506 225.8C164.829 225.783 165.111 225.514 165.147 225.179C165.136 224.862 164.867 224.59 164.526 224.56C163.879 224.594 163.215 224.581 162.616 224.597C162.407 224.624 162.179 224.604 161.969 224.631C161.598 224.666 161.364 224.917 161.393 225.281C161.333 225.411 161.387 225.551 161.536 225.654ZM29.8118 96.3976C29.9791 96.5477 30.2245 96.6142 30.4641 96.5222C30.7997 96.3933 30.998 96.0494 30.873 95.7224C30.6351 94.9566 30.3794 94.1442 30.1416 93.3784C30.0165 93.0515 29.6697 92.8632 29.3341 92.992C28.9985 93.1208 28.8002 93.4648 28.9253 93.7918C29.1631 94.5575 29.4188 95.37 29.6567 96.1358C29.6924 96.2292 29.7281 96.3226 29.8118 96.3976ZM204.532 266.787C204.616 266.862 204.748 266.918 204.879 266.975C205.238 267.051 205.538 266.829 205.623 266.475C205.804 265.656 205.92 264.808 206.005 264.025C206.042 263.69 205.821 263.399 205.462 263.323C205.121 263.293 204.821 263.516 204.736 263.869C204.651 264.652 204.517 265.453 204.336 266.273C204.294 266.45 204.365 266.637 204.532 266.787ZM95.6014 157.17C95.6851 157.245 95.7508 157.274 95.8824 157.33C96.6842 157.558 97.408 157.869 98.0359 158.218C98.317 158.378 98.7184 158.277 98.8866 157.998C99.0548 157.719 98.9599 157.327 98.6788 157.167C97.9193 156.763 97.1297 156.423 96.2621 156.167C95.951 156.072 95.5854 156.266 95.4829 156.573C95.3927 156.768 95.4341 157.02 95.6014 157.17ZM102.491 163.685C102.658 163.836 102.903 163.902 103.095 163.828C103.449 163.746 103.647 163.402 103.522 163.075C103.314 162.245 102.945 161.422 102.449 160.702C102.276 160.393 101.869 160.335 101.599 160.492C101.282 160.668 101.215 161.068 101.37 161.33C101.782 161.976 102.098 162.658 102.27 163.395C102.371 163.517 102.407 163.61 102.491 163.685ZM27.6476 89.3005C27.8149 89.4506 28.0602 89.5171 28.252 89.4435C28.6054 89.3614 28.7859 88.9707 28.6787 88.6904C28.4408 87.9247 28.2331 87.0938 27.9952 86.328C27.9181 85.9827 27.5713 85.7944 27.2357 85.9232C26.8823 86.0053 26.684 86.3493 26.809 86.6763C27.0468 87.442 27.2546 88.2729 27.4925 89.0387C27.4803 89.1505 27.5818 89.2722 27.6476 89.3005ZM169.038 225.721C169.14 225.842 169.271 225.899 169.433 225.891C170.277 225.942 171.091 226.058 171.905 226.174C172.246 226.203 172.546 225.981 172.631 225.627C172.667 225.292 172.446 225.002 172.087 224.925C171.273 224.809 170.411 224.711 169.567 224.661C169.226 224.631 168.878 224.871 168.859 225.254C168.865 225.412 168.936 225.599 169.038 225.721ZM205.225 259.397C205.326 259.518 205.506 259.556 205.685 259.595C206.009 259.578 206.291 259.309 206.327 258.973C206.329 258.116 206.283 257.276 206.237 256.437C206.208 256.073 205.909 255.866 205.585 255.883C205.214 255.919 204.998 256.216 205.009 256.533C205.038 257.326 205.084 258.165 205.112 258.958C205.022 259.153 205.123 259.275 205.225 259.397ZM25.6451 82.1949C25.8124 82.345 26.0098 82.4299 26.2495 82.3379C26.6029 82.2558 26.8012 81.9118 26.7241 81.5664C26.5342 80.7823 26.3264 79.9514 26.0885 79.1856C26.0115 78.8403 25.6646 78.652 25.3112 78.7341C24.9578 78.8162 24.7594 79.1602 24.8365 79.5056C25.0265 80.2897 25.2342 81.1206 25.4721 81.8864C25.5257 82.0265 25.5614 82.1199 25.6451 82.1949ZM176.484 226.934C176.567 227.009 176.651 227.084 176.765 227.094C177.549 227.275 178.35 227.503 179.152 227.73C179.463 227.825 179.829 227.631 179.931 227.324C180.034 227.017 179.843 226.662 179.532 226.567C178.73 226.339 177.928 226.111 177.078 225.902C176.719 225.825 176.402 226.001 176.317 226.355C176.275 226.532 176.316 226.784 176.484 226.934ZM204.396 252.055C204.564 252.205 204.761 252.289 205.001 252.197C205.354 252.115 205.552 251.771 205.475 251.426C205.267 250.595 205.078 249.811 204.822 248.999C204.745 248.653 204.35 248.483 204.014 248.612C203.679 248.741 203.481 249.085 203.606 249.412C203.843 250.178 204.081 250.943 204.223 251.746C204.229 251.904 204.313 251.98 204.396 252.055ZM23.9001 75.0441C24.0674 75.1941 24.2648 75.279 24.5045 75.187C24.8579 75.1049 25.0562 74.7609 24.9791 74.4155C24.7892 73.6314 24.5993 72.8472 24.4394 71.9979C24.3623 71.6526 24.0155 71.4643 23.71 71.528C23.3566 71.6101 23.1583 71.9541 23.2175 72.2528C23.4074 73.0369 23.5673 73.8862 23.7572 74.6704C23.7628 74.8289 23.8164 74.969 23.9001 75.0441ZM183.61 229.18C183.675 229.208 183.759 229.283 183.825 229.311C184.596 229.604 185.338 229.962 186.08 230.321C186.409 230.462 186.744 230.333 186.913 230.054C187.063 229.729 186.938 229.402 186.657 229.242C185.915 228.884 185.126 228.544 184.336 228.204C184.007 228.063 183.624 228.21 183.521 228.517C183.383 228.731 183.442 229.03 183.61 229.18ZM201.866 245.151C202.052 245.348 202.345 245.396 202.567 245.257C202.884 245.082 203.017 244.71 202.862 244.448C202.653 244.046 202.444 243.644 202.236 243.242C202.045 242.887 201.872 242.578 201.633 242.241C201.46 241.933 201.053 241.875 200.783 242.032C200.466 242.207 200.399 242.608 200.554 242.87C200.727 243.178 200.966 243.515 201.139 243.824C201.33 244.179 201.538 244.581 201.747 244.983C201.783 245.076 201.849 245.105 201.866 245.151ZM190.26 232.626C190.278 232.673 190.326 232.655 190.344 232.701C191.007 233.143 191.689 233.631 192.352 234.073C192.651 234.279 193.023 234.244 193.239 233.947C193.455 233.649 193.378 233.304 193.127 233.079C192.445 232.591 191.764 232.102 191.034 231.633C190.735 231.426 190.334 231.526 190.166 231.805C189.998 232.084 190.027 232.448 190.26 232.626ZM22.3468 67.8195C22.5142 67.9696 22.6937 68.0078 22.9033 67.9809C23.2567 67.8988 23.4729 67.6015 23.3958 67.2562C23.2538 66.4536 23.0639 65.6694 22.9219 64.8669C22.8448 64.5215 22.5459 64.3148 22.1925 64.3969C21.8391 64.479 21.6229 64.7763 21.7 65.1217C21.842 65.9242 21.9839 66.7268 22.1917 67.5577C22.2096 67.6044 22.2632 67.7445 22.3468 67.8195ZM197.712 239.032C197.963 239.257 198.305 239.287 198.556 239.083C198.808 238.88 198.875 238.479 198.606 238.207C198.033 237.57 197.477 236.98 196.856 236.361C196.605 236.136 196.216 236.125 195.982 236.376C195.748 236.626 195.729 237.008 195.98 237.233C196.631 237.787 197.187 238.377 197.712 239.032ZM20.9853 60.5214C21.1527 60.6715 21.3322 60.7097 21.5418 60.6828C21.8952 60.6007 22.1114 60.3034 22.0343 59.958C21.8923 59.1555 21.7504 58.3529 21.6563 57.532C21.5792 57.1866 21.2803 56.9799 20.909 57.0153C20.5556 57.0974 20.3394 57.3947 20.3686 57.7585C20.5106 58.561 20.6525 59.3636 20.7466 60.1845C20.8481 60.3063 20.9017 60.4464 20.9853 60.5214ZM19.8513 53.2431C20.0008 53.3464 20.1982 53.4314 20.4078 53.4045C20.7612 53.3224 20.9774 53.0251 20.9661 52.7081C20.8721 51.8871 20.7301 51.0845 20.636 50.2635C20.6069 49.8998 20.26 49.7115 19.9367 49.7285C19.5654 49.7639 19.3671 50.1079 19.3784 50.4249C19.4724 51.2459 19.6144 52.0485 19.7084 52.8694C19.7141 53.028 19.7498 53.1214 19.8513 53.2431ZM18.957 45.8728C19.0585 45.9945 19.2559 46.0795 19.4655 46.0526C19.8368 46.0172 20.053 45.7199 20.0238 45.3561L19.848 43.6024C19.8188 43.2386 19.5199 43.0319 19.1486 43.0673C18.7773 43.1027 18.5611 43.4 18.5903 43.7638L18.7662 45.5175C18.7718 45.6761 18.8254 45.8162 18.957 45.8728Z" fill="#475566"/>
</g>
</svg>
